<svg xmlns="http://www.w3.org/2000/svg" xmlns:xlink="http://www.w3.org/1999/xlink" viewBox="0 0 3689 2466.41"><defs><style>.b323d3b4-7801-4fc6-9fcf-ef7daf7b96ff{isolation:isolate;}.a4ecec8d-935b-464d-940e-942a2f780794{fill:url(#ab895326-e32e-4873-ad39-222d0aadbe72);}.ee061fee-fa2f-404f-803f-761c9fd8cd27{fill:url(#f8fd323f-e5c4-4f8b-be3e-db743945d5f6);}.bcc5bc26-93ff-467d-b99e-7e5f21358b29{fill:url(#a9ea26b5-d9b0-4a24-9ee0-210e838cda70);}.ac5114b0-5319-408c-8122-e9e48029e9ad{fill:url(#bf55a482-733d-42de-a88a-5aa8024d87c7);}.b4f2a69d-0208-4612-bc69-7e4ff350fb20{fill:#fff;}.a510d878-8db5-49cb-a378-511861f95e84{fill:#8dacce;}.ec4d01bb-a2bf-48ce-971b-631904677ed8{fill:#56769e;}.a4b52b98-4273-4df2-b99c-3eca567af3c5{fill:#45628c;}.a5af6cbd-15bb-4eb5-ab69-5921c0649330{fill:#3b557f;}.a7d82ecd-36d6-492b-af23-850309e55164{fill:#4c6993;}.bf065070-5fb0-4a7e-a629-a713c419b781{fill:#e2debf;}.bd9336b3-e439-4d7f-b7ff-801f27fa802b{fill:#fffbd7;}.ade61f14-e49f-449a-8b99-7eb4d0bda63f{fill:#222628;}.f3ee597a-2e53-4b29-a549-87ea3b05b855{fill:#968171;}.bd437f5c-5028-4a54-87e7-1013558e6f1a{fill:#cfdee7;}.b66f77c3-7bab-48e3-a350-78dfac95e4ab{fill:#152435;}.eb4429f9-6d08-4929-ba74-31acf3eb3ac5{fill:#1f3045;}.bd54df01-7609-4750-abd3-a1e16418637c{fill:#d8e8f0;}.a6fbfae0-1563-4e45-8d70-5f7daf987150{fill:#f5b790;}.b0a4872e-5aaf-4d54-8bb0-4b1834bd7803{fill:#1a120c;}.bcabdc3a-9432-4934-a94b-6651a0f3188a{fill:#b59b84;}.a5338750-fd35-4f90-827b-1243a3043c1d{fill:#89776b;}.a0563110-b977-47f9-93ba-d0cdbd042392,.ae3c1069-3c3e-4d23-a0a1-ff02e44d038b{fill:#fff200;}.a0563110-b977-47f9-93ba-d0cdbd042392{opacity:0.19;mix-blend-mode:lighten;}</style><linearGradient id="ab895326-e32e-4873-ad39-222d0aadbe72" x1="970.51" y1="410" x2="970.51" y2="2878" gradientTransform="translate(3683.2 2812) rotate(180)" gradientUnits="userSpaceOnUse"><stop offset="0" stop-color="#fff"/><stop offset="0.11" stop-color="#fffffa"/><stop offset="0.24" stop-color="#fffded"/><stop offset="0.36" stop-color="#fffcd7"/><stop offset="0.5" stop-color="#fff9b9"/><stop offset="0.54" stop-color="#fff8ad"/></linearGradient><linearGradient id="f8fd323f-e5c4-4f8b-be3e-db743945d5f6" x1="1838.7" y1="410" x2="1838.7" y2="2878" xlink:href="#ab895326-e32e-4873-ad39-222d0aadbe72"/><linearGradient id="a9ea26b5-d9b0-4a24-9ee0-210e838cda70" x1="2802.51" y1="410" x2="2802.51" y2="2878" xlink:href="#ab895326-e32e-4873-ad39-222d0aadbe72"/><linearGradient id="bf55a482-733d-42de-a88a-5aa8024d87c7" x1="970.81" y1="1250.93" x2="970.81" y2="1254.84" xlink:href="#ab895326-e32e-4873-ad39-222d0aadbe72"/></defs><title>Artboard 1</title><g class="b323d3b4-7801-4fc6-9fcf-ef7daf7b96ff"><g id="b6e50bb3-a169-4d90-bd4f-17149afaf6bf" data-name="BACKGROUND"><polygon class="a4ecec8d-935b-464d-940e-942a2f780794" points="2713.02 1559.98 2712.39 1559.11 2712.38 1559.23 2712.36 1559.32 2712.51 1559.47 2713.02 1559.98"/><path class="ee061fee-fa2f-404f-803f-761c9fd8cd27" d="M284.76,1719.48l187-84.93,143.65,44.52.34.11.58.17L683,1649.48l33.32-14.93,12.55,9.69,21.08,16.29,130.24-101.42.09.1.13-.1,150.4,153.64,47.18-27,27.42-15.69h0l75,58.48,152.72-53.61h0l106.49,62,6.17-2,370.7-357,373.17,308.39,114.17-51.84,143.65,44.52.31.1.61.18,60.78-27.24,39.17-17.56,8,6.15,25.67,19.83,36.19-28.18,94.05-73.24h0l.09.1h0l0,0,.09-.08h0l150.4,153.64,41.3-23.64,33.3-19h0l17.51,13.66,57.46,44.82,152.72-53.61h0l124.42,72.46,18.38-6.18h0l53.16-17.86,52.91-17.78,262.91,106.54c8-54.42,12.14-113.33,12.14-177.11a1463,1463,0,0,0-48.22-373H3065.16c0-1.09-.16-2.14-.16-3.24a102,102,0,0,1,101.95-102,103.28,103.28,0,0,1,20.5,2.06c24.39-75.36,95.06-129.9,178.55-129.9a187.6,187.6,0,0,1,166.34,100.89,105.76,105.76,0,0,1,68.47,4.21C3529.68,938,3417.91,758,3274.29,602H2292.35a203.43,203.43,0,0,1-1.51-23.69C2290.84,467.12,2381,377,2492.18,377a200.3,200.3,0,0,1,92.24,22.5,380.47,380.47,0,0,1,195.45-174C2505.62,82.22,2185.89,0,1844.5,0c-209.91,0-411.62,31.09-599.61,88.34a312.18,312.18,0,0,1,65.44,85.16A176.19,176.19,0,0,1,1526.18,392h-880C505.48,498.69,383.09,623.83,283.81,763.2A267.61,267.61,0,0,1,412.7,730.33c102.59,0,191.71,57.51,237,142A142.68,142.68,0,0,1,858,999.2a145.55,145.55,0,0,1-1.07,16.8H144.69c-.32-5-.74-10-.82-15.13C51.22,1195.87,0,1410.13,0,1635q0,38.57,2,74.76l162.25-87ZM2433.29,1392a142.05,142.05,0,0,1,125.29,75.06,75.42,75.42,0,0,1,110.09,67.06,76.55,76.55,0,0,1-.57,8.88H2291.62c-.19-3-.45-5.89-.45-8.88A142.12,142.12,0,0,1,2433.29,1392ZM996.65,1358.61a58.09,58.09,0,0,1,11.58,1.16A105.94,105.94,0,0,1,1203,1343.39a60.16,60.16,0,0,1,73.7,74.61H939.18c0-.61-.09-1.21-.09-1.83A57.56,57.56,0,0,1,996.65,1358.61Z"/><polygon class="bcc5bc26-93ff-467d-b99e-7e5f21358b29" points="881.02 1559.98 880.39 1559.11 880.36 1559.32 881.02 1559.98"/><polygon class="ac5114b0-5319-408c-8122-e9e48029e9ad" points="2712.39 1559.11 2712.39 1559.11 2712.39 1559.11 2712.39 1559.11"/><polygon class="b4f2a69d-0208-4612-bc69-7e4ff350fb20" points="2937.39 1670.06 2937.39 1670.06 2904.09 1689.12 2937.39 1670.06 2937.39 1670.06"/><polygon class="b4f2a69d-0208-4612-bc69-7e4ff350fb20" points="3361.04 1723.35 3413.95 1705.57 3676.86 1812.11 3676.86 1812.11 3413.95 1705.57 3361.04 1723.35"/><polygon class="b4f2a69d-0208-4612-bc69-7e4ff350fb20" points="881.02 1559.98 880.36 1559.32 880.36 1559.32 881.02 1559.98 881.02 1559.98"/><polygon class="b4f2a69d-0208-4612-bc69-7e4ff350fb20" points="728.85 1644.24 716.3 1634.55 682.98 1649.48 716.3 1634.55 728.85 1644.24"/><polygon class="b4f2a69d-0208-4612-bc69-7e4ff350fb20" points="2712.39 1559.11 2712.39 1559.11 2712.38 1559.23 2712.39 1559.11 2712.39 1559.11"/><polygon class="b4f2a69d-0208-4612-bc69-7e4ff350fb20" points="1105.39 1670.06 1077.97 1685.75 1105.39 1670.06 1105.39 1670.06"/><polygon class="b4f2a69d-0208-4612-bc69-7e4ff350fb20" points="2713.02 1559.98 2713.02 1559.98 2712.51 1559.47 2713.02 1559.98"/><polygon class="b4f2a69d-0208-4612-bc69-7e4ff350fb20" points="880.39 1559.11 880.26 1559.21 880.26 1559.21 880.39 1559.11"/><polygon class="b4f2a69d-0208-4612-bc69-7e4ff350fb20" points="2712.16 1559.11 2712.16 1559.11 2712.26 1559.2 2712.16 1559.11"/><polygon class="b4f2a69d-0208-4612-bc69-7e4ff350fb20" points="2937.39 1670.06 2937.39 1670.06 2954.9 1683.72 2937.39 1670.06"/><polygon class="b4f2a69d-0208-4612-bc69-7e4ff350fb20" points="2712.3 1559.19 2712.26 1559.21 2712.26 1559.21 2712.3 1559.19"/><polygon class="b4f2a69d-0208-4612-bc69-7e4ff350fb20" points="2862.78 1712.75 2862.78 1712.75 2712.39 1559.11 2712.39 1559.11 2862.78 1712.75"/><polygon class="b4f2a69d-0208-4612-bc69-7e4ff350fb20" points="2618.13 1632.35 2581.93 1660.53 2581.93 1660.53 2618.13 1632.35"/><polygon class="b4f2a69d-0208-4612-bc69-7e4ff350fb20" points="164.25 1622.78 284.76 1719.48 471.77 1634.55 615.43 1679.07 615.43 1679.07 615.77 1679.18 615.43 1679.07 471.77 1634.55 284.76 1719.48 164.25 1622.78 2 1709.76 2 1709.76 164.25 1622.78"/><polygon class="b4f2a69d-0208-4612-bc69-7e4ff350fb20" points="2556.26 1640.7 2548.3 1634.55 2509.13 1652.11 2548.3 1634.55 2556.26 1640.7"/><polygon class="b4f2a69d-0208-4612-bc69-7e4ff350fb20" points="2303.78 1634.55 2447.43 1679.07 2447.43 1679.07 2447.74 1679.17 2447.43 1679.07 2303.78 1634.55 2189.61 1686.39 2189.61 1686.39 2303.78 1634.55"/><polygon class="a510d878-8db5-49cb-a378-511861f95e84" points="1439.57 1736.94 1333.08 1674.92 1333.08 1674.92 1439.57 1736.94 1439.57 1736.94"/><polygon class="a510d878-8db5-49cb-a378-511861f95e84" points="1246.44 1727.84 1246.03 1727.23 1246.01 1727.43 1246.44 1727.84"/><polygon class="a510d878-8db5-49cb-a378-511861f95e84" points="1180.36 1728.55 1105.39 1670.06 1105.39 1670.06 1180.36 1728.55"/><polygon class="a510d878-8db5-49cb-a378-511861f95e84" points="517.43 1694.16 517.54 1694.24 517.65 1694.16 615.27 1765.4 649.69 1738.59 471.77 1634.55 284.76 1719.48 375.32 1792.14 517.43 1694.16"/><polygon class="a510d878-8db5-49cb-a378-511861f95e84" points="1113.32 1797.07 1245.8 1727.23 1245.88 1727.31 1246.03 1727.23 1303.08 1780.4 1406.77 1747.38 1333.08 1674.92 1180.36 1728.55 1155.07 1737.31 1105.39 1670.06 1077.97 1685.75 1030.79 1712.75 1113.32 1797.07"/><polygon class="a510d878-8db5-49cb-a378-511861f95e84" points="748.3 1661.8 716.3 1634.55 682.98 1649.48 616.35 1679.36 615.77 1679.18 615.43 1679.07 662.43 1728.67 748.3 1661.8"/><polygon class="a510d878-8db5-49cb-a378-511861f95e84" points="517.9 1694.51 517.65 1694.16 517.6 1694.28 517.9 1694.51"/><polygon class="ec4d01bb-a2bf-48ce-971b-631904677ed8" points="662.43 1728.67 615.43 1679.07 615.43 1679.07 471.77 1634.55 649.69 1738.59 662.43 1728.67"/><polygon class="ec4d01bb-a2bf-48ce-971b-631904677ed8" points="1406.77 1747.38 1439.57 1736.94 1333.08 1674.92 1333.08 1674.92 1333.08 1674.92 1406.77 1747.38"/><polygon class="ec4d01bb-a2bf-48ce-971b-631904677ed8" points="1155.07 1737.31 1180.36 1728.55 1105.39 1670.06 1105.39 1670.06 1105.39 1670.06 1155.07 1737.31"/><polygon class="ec4d01bb-a2bf-48ce-971b-631904677ed8" points="748.3 1661.8 749.93 1660.53 728.85 1644.24 716.3 1634.55 748.3 1661.8"/><polygon class="a4b52b98-4273-4df2-b99c-3eca567af3c5" points="517.43 1694.16 375.32 1792.14 375.43 1792.23 517.54 1694.24 517.43 1694.16"/><polygon class="a4b52b98-4273-4df2-b99c-3eca567af3c5" points="585.56 1788.71 517.9 1694.51 517.6 1694.28 484.09 1775.99 486.29 1775.03 558.98 1809.41 585.56 1788.71"/><polygon class="a4b52b98-4273-4df2-b99c-3eca567af3c5" points="1245.8 1727.23 1113.32 1797.07 1113.4 1797.15 1245.88 1727.31 1245.8 1727.23"/><polygon class="a4b52b98-4273-4df2-b99c-3eca567af3c5" points="1011.82 1873.13 1109.19 1842.13 1113.4 1797.15 1068.59 1821.67 881.02 1559.98 880.36 1559.32 837.3 1854.73 758.34 1772.27 757.03 1870 709.65 1845.12 739.18 1894.66 875.06 1958.95 1011.82 1873.13"/><polygon class="a4b52b98-4273-4df2-b99c-3eca567af3c5" points="1246.01 1727.43 1240.49 1800.32 1286.6 1785.64 1246.44 1727.84 1246.01 1727.43"/><polygon class="a4b52b98-4273-4df2-b99c-3eca567af3c5" points="748.3 1661.8 662.43 1728.67 649.69 1738.59 615.27 1765.4 585.58 1788.7 880.26 1559.21 880.26 1559.21 880.16 1559.11 749.93 1660.53 748.3 1661.8"/><polygon class="a5af6cbd-15bb-4eb5-ab69-5921c0649330" points="585.56 1788.71 585.58 1788.7 615.27 1765.4 517.65 1694.16 517.9 1694.51 585.56 1788.71"/><polygon class="a5af6cbd-15bb-4eb5-ab69-5921c0649330" points="1286.6 1785.64 1303.08 1780.4 1246.03 1727.23 1246.44 1727.84 1286.6 1785.64"/><polygon class="a5af6cbd-15bb-4eb5-ab69-5921c0649330" points="881.02 1559.98 1068.59 1821.67 1113.4 1797.15 1113.32 1797.07 1030.79 1712.75 880.39 1559.11 881.02 1559.98 881.02 1559.98"/><polygon class="ec4d01bb-a2bf-48ce-971b-631904677ed8" points="1240.49 1800.32 1246.01 1727.43 1246.03 1727.23 1245.88 1727.31 1113.4 1797.15 1109.19 1842.13 1240.49 1800.32"/><polygon class="ec4d01bb-a2bf-48ce-971b-631904677ed8" points="517.65 1694.16 517.54 1694.24 375.43 1792.23 400.9 1812.66 484.09 1775.99 517.6 1694.28 517.65 1694.16"/><polygon class="ec4d01bb-a2bf-48ce-971b-631904677ed8" points="585.58 1788.7 585.56 1788.71 558.98 1809.41 739.18 1894.66 709.65 1845.12 757.03 1870 758.34 1772.27 837.3 1854.73 880.36 1559.32 880.36 1559.32 880.39 1559.11 880.26 1559.21 585.58 1788.7"/><path class="a5af6cbd-15bb-4eb5-ab69-5921c0649330" d="M95.62,1767.63,123.89,1890a319.94,319.94,0,0,1,90.38,133.35,288.87,288.87,0,0,1,61,23.4A318.28,318.28,0,0,1,400,2025.15a323.78,323.78,0,0,1,32.75,2.57l-45.46-134.67H218.53l267.76-118-2.2,1-83.19,36.67-25.47-20.43-.11-.09-90.56-72.66-120.51-96.7v134Z"/><path class="a5af6cbd-15bb-4eb5-ab69-5921c0649330" d="M461.56,1813.71,502,1929.18l-47-10.32,77,131.69-1.93,6.22A319.7,319.7,0,0,1,618.38,2120L875.06,1959l-135.88-64.28L559,1809.41,486.29,1775Z"/><path class="a7d82ecd-36d6-492b-af23-850309e55164" d="M123.89,1890,95.62,1767.63l68.63-10.81v-134L2,1709.76A1106,1106,0,0,0,14.45,1827,318.4,318.4,0,0,1,123.89,1890Z"/><path class="a7d82ecd-36d6-492b-af23-850309e55164" d="M532,2050.55l-77-131.69,47,10.32-40.44-115.47L486.29,1775l-267.76,118H387.26l45.46,134.67a317.2,317.2,0,0,1,97.35,29Z"/><polygon class="a510d878-8db5-49cb-a378-511861f95e84" points="3658.91 1830.07 3541.35 1777.57 3620.54 1859.52 3658.91 1830.07"/><polygon class="a510d878-8db5-49cb-a378-511861f95e84" points="3012.36 1728.55 2954.9 1683.72 2937.39 1670.06 2937.39 1670.06 3012.36 1728.55"/><polygon class="a510d878-8db5-49cb-a378-511861f95e84" points="2349.54 1694.24 2349.65 1694.16 2447.27 1765.4 2481.69 1738.59 2303.78 1634.55 2189.61 1686.39 2258.8 1743.57 2268.51 1749.95 2349.43 1694.16 2349.54 1694.24"/><polygon class="a510d878-8db5-49cb-a378-511861f95e84" points="2494.43 1728.67 2580.3 1661.8 2548.3 1634.55 2509.13 1652.11 2448.35 1679.36 2447.74 1679.17 2447.43 1679.07 2494.43 1728.67"/><polygon class="a510d878-8db5-49cb-a378-511861f95e84" points="2349.65 1694.16 2349.6 1694.28 2349.91 1694.51 2349.65 1694.16"/><polygon class="a510d878-8db5-49cb-a378-511861f95e84" points="2945.32 1797.07 3077.8 1727.23 3077.88 1727.31 3078.03 1727.23 3277.3 1912.91 3277.38 1912.97 3526.2 1770.8 3413.95 1720.67 3307.88 1756.32 3307.88 1741.21 3289.5 1747.39 3165.08 1674.92 3165.08 1674.92 3288.97 1747.08 3248.9 1757.34 3165.08 1674.92 3012.36 1728.55 2987.07 1737.31 2937.39 1670.06 2904.09 1689.12 2862.78 1712.75 2862.78 1712.75 2945.32 1797.07"/><polygon class="a510d878-8db5-49cb-a378-511861f95e84" points="3676.14 1816.85 3676.14 1816.85 3674.37 1818.21 3676.14 1816.85"/><polygon class="a510d878-8db5-49cb-a378-511861f95e84" points="3078.44 1727.84 3078.03 1727.23 3078.01 1727.43 3078.44 1727.84"/><polygon class="ec4d01bb-a2bf-48ce-971b-631904677ed8" points="2494.43 1728.67 2447.43 1679.07 2447.43 1679.07 2303.78 1634.55 2481.69 1738.59 2494.43 1728.67"/><polygon class="ec4d01bb-a2bf-48ce-971b-631904677ed8" points="3248.9 1757.34 3288.97 1747.08 3165.08 1674.92 3165.08 1674.92 3165.08 1674.92 3248.9 1757.34"/><path class="ec4d01bb-a2bf-48ce-971b-631904677ed8" d="M3361,1723.35l-53.16,17.86h0v15.11L3414,1720.67l112.25,50.13,5.55-3.17,9.6,9.94,117.56,52.5,15.46-11.86,1.77-1.36c.24-1.58.49-3.16.72-4.74L3414,1705.57Z"/><polygon class="ec4d01bb-a2bf-48ce-971b-631904677ed8" points="2987.07 1737.31 3012.36 1728.55 2937.39 1670.06 2937.39 1670.06 2937.39 1670.06 2987.07 1737.31"/><polygon class="ec4d01bb-a2bf-48ce-971b-631904677ed8" points="2580.3 1661.8 2581.93 1660.53 2581.93 1660.53 2556.26 1640.7 2548.3 1634.55 2580.3 1661.8"/><polygon class="a4b52b98-4273-4df2-b99c-3eca567af3c5" points="3227.03 1941.74 3078.44 1727.84 3078.01 1727.43 3062.74 1929.16 3129.09 1894.66 3211.19 1950.79 3277.38 1912.97 3277.3 1912.91 3277.38 1912.97 3227.03 1941.74"/><polygon class="a4b52b98-4273-4df2-b99c-3eca567af3c5" points="3005.05 1959.16 3007.14 1958.08 3004.85 1958.57 3005.05 1959.16"/><polygon class="a4b52b98-4273-4df2-b99c-3eca567af3c5" points="2349.6 1694.28 2316.09 1775.99 2318.29 1775.03 2390.98 1809.41 2417.56 1788.71 2349.91 1694.51 2349.6 1694.28"/><polygon class="a4b52b98-4273-4df2-b99c-3eca567af3c5" points="2978.76 1972.83 2936.43 1893.05 2945.4 1797.15 2900.59 1821.67 2713.02 1559.98 2712.51 1559.47 2712.36 1559.32 2669.3 1854.73 2590.34 1772.27 2589.03 1870 2541.66 1845.12 2571.18 1894.66 2863.31 2032.87 2978.76 1972.83"/><polygon class="a4b52b98-4273-4df2-b99c-3eca567af3c5" points="3077.8 1727.23 2945.32 1797.07 2945.4 1797.15 3077.88 1727.31 3077.8 1727.23"/><polygon class="a4b52b98-4273-4df2-b99c-3eca567af3c5" points="2349.43 1694.16 2268.51 1749.95 2268.63 1750.03 2349.54 1694.24 2349.43 1694.16"/><polygon class="a4b52b98-4273-4df2-b99c-3eca567af3c5" points="2580.3 1661.8 2494.43 1728.67 2481.69 1738.59 2447.27 1765.4 2417.58 1788.7 2712.26 1559.21 2712.26 1559.21 2712.26 1559.2 2712.16 1559.11 2712.16 1559.11 2618.13 1632.35 2581.93 1660.53 2580.3 1661.8"/><polygon class="a5af6cbd-15bb-4eb5-ab69-5921c0649330" points="2349.91 1694.51 2417.56 1788.71 2417.58 1788.7 2447.27 1765.4 2349.65 1694.16 2349.91 1694.51"/><polygon class="a5af6cbd-15bb-4eb5-ab69-5921c0649330" points="3227.03 1941.74 3277.38 1912.97 3277.3 1912.91 3078.03 1727.23 3078.44 1727.84 3227.03 1941.74"/><polygon class="a5af6cbd-15bb-4eb5-ab69-5921c0649330" points="2712.39 1559.11 2713.02 1559.98 2713.02 1559.98 2900.59 1821.67 2945.4 1797.15 2945.32 1797.07 2862.78 1712.75 2712.39 1559.11 2712.39 1559.11 2712.39 1559.11 2712.39 1559.11 2712.39 1559.11 2712.39 1559.11"/><polygon class="ec4d01bb-a2bf-48ce-971b-631904677ed8" points="2978.76 1972.83 3005.05 1959.16 3004.85 1958.57 3007.14 1958.08 3062.74 1929.16 3078.01 1727.43 3078.03 1727.23 3077.88 1727.31 2945.4 1797.15 2936.43 1893.05 2978.76 1972.83"/><polygon class="ec4d01bb-a2bf-48ce-971b-631904677ed8" points="2349.6 1694.28 2349.65 1694.16 2349.54 1694.24 2268.63 1750.03 2311.35 1778.08 2316.09 1775.99 2349.6 1694.28"/><polygon class="ec4d01bb-a2bf-48ce-971b-631904677ed8" points="2417.58 1788.7 2417.56 1788.71 2390.98 1809.41 2571.18 1894.66 2541.66 1845.12 2589.03 1870 2590.34 1772.27 2669.3 1854.73 2712.36 1559.32 2712.38 1559.23 2712.39 1559.11 2712.39 1559.11 2712.3 1559.19 2712.26 1559.21 2417.58 1788.7"/><polygon class="a5af6cbd-15bb-4eb5-ab69-5921c0649330" points="2571.18 1894.66 2390.98 1809.41 2318.29 1775.03 2314.86 1780.39 2771.8 2080.46 2863.31 2032.87 2571.18 1894.66"/><polygon class="a5af6cbd-15bb-4eb5-ab69-5921c0649330" points="2318.29 1775.03 2316.09 1775.99 2311.35 1778.08 2311.35 1778.08 2318.29 1775.03"/><path class="a5af6cbd-15bb-4eb5-ab69-5921c0649330" d="M3658.91,1830.07l-38.37,29.45-79.19-82-9.6-9.94-47,119-44.28,13.17L3458.65,2010a318.51,318.51,0,0,1,196.61-93.35,886.91,886.91,0,0,0,20.88-99.76l-1.77,1.36Z"/><path class="a5af6cbd-15bb-4eb5-ab69-5921c0649330" d="M3129.09,1894.66l-4.82,82.9L3078,1966.45l-20.11,168a319.92,319.92,0,0,1,283.91,3.26,292.34,292.34,0,0,1,40.89-46.62l-171.53-140.29Z"/><polygon class="a5af6cbd-15bb-4eb5-ab69-5921c0649330" points="3129.09 1894.66 3062.74 1929.16 3007.14 1958.08 3005.05 1959.16 2978.76 1972.83 2863.31 2032.87 2771.8 2080.46 2771.8 2080.46 3129.09 1894.66"/><path class="a7d82ecd-36d6-492b-af23-850309e55164" d="M3057.92,2134.44l20.11-168,46.24,11.11,4.82-82.9-357.29,185.8,190.27,124.95A320.28,320.28,0,0,1,3057.92,2134.44Z"/><path class="a7d82ecd-36d6-492b-af23-850309e55164" d="M3211.19,1950.79l171.53,140.29q3.59-3.32,7.27-6.5a321.18,321.18,0,0,1,52.58-57.14q7.71-9,16.08-17.48l-18.17-110.19,44.28-13.17,47-119-5.55,3.17L3277.37,1913Z"/><polygon class="a7d82ecd-36d6-492b-af23-850309e55164" points="2311.35 1778.08 2314.86 1780.39 2318.29 1775.03 2311.35 1778.08"/><path class="a7d82ecd-36d6-492b-af23-850309e55164" d="M1024.51,1891.41,638.87,2142.9a320.59,320.59,0,0,1,30.57,44.85l355.4-256,402.09-179.74-353.21,215.26L935.63,2174a197.07,197.07,0,0,1,56.28,33.9,320.21,320.21,0,0,1,79.31-101.66,318.71,318.71,0,0,1,242-112.21l174.21-144.23,209.11-267.09-193.27,318.54-97.86,106a318.53,318.53,0,0,1,128,73.86l6.91-6.31h0l32.7-30-14.07-12,159.72-137.56,6.46,8.48,91.3-525.75-488.52,543.49L1445.74,1735Z"/><path class="a510d878-8db5-49cb-a378-511861f95e84" d="M1406.77,1747.38l-103.69,33-16.48,5.24-46.11,14.68-131.3,41.81-97.37,31L875.06,1959,618.38,2120q10.79,10.93,20.49,22.86l385.64-251.49L1445.74,1735l-6.17,2h0Z"/><path class="a5af6cbd-15bb-4eb5-ab69-5921c0649330" d="M869,2160.49A196.93,196.93,0,0,1,935.63,2174l138.09-206.72,353.21-215.26-402.09,179.74-355.4,256q7.6,13.48,13.92,27.76A289.4,289.4,0,0,1,714,2229,197,197,0,0,1,869,2160.49Z"/><path class="a4b52b98-4273-4df2-b99c-3eca567af3c5" d="M2803.49,2302.07a196.74,196.74,0,0,1,70.49,15.1q3.27-6.63,6.82-13.09l-244.42-202.52a318,318,0,0,1,61.8,197.84c-.09,3.25-.25,6.48-.44,9.7,3.59-.22,7.2-.34,10.84-.34a181.46,181.46,0,0,1,29.67,2.45A197.09,197.09,0,0,1,2803.49,2302.07Z"/><path class="a4b52b98-4273-4df2-b99c-3eca567af3c5" d="M1725.14,1903.75,1854.85,2074a197.34,197.34,0,0,1,286.7,3q9.79-10.87,20.53-20.81l-311.22-391.57,395,335.61a317.3,317.3,0,0,1,56.06-19.65L2098.3,1809.24l-237.38-295,245.73,242.23L2383,1971.23l4.77.1a318,318,0,0,1,128.79,31l-387.29-320.89,795.08,561.8a322.67,322.67,0,0,1,29.05-28.12q4.21-4.93,8.63-9.71L2771.8,2080.46h0l-456.94-300.07-3.51-2.31h0l-42.72-28-.12-.08-9.71-6.38-69.19-57.18h0L1816.44,1378Z"/><path class="a5af6cbd-15bb-4eb5-ab69-5921c0649330" d="M2636.38,2101.56l244.42,202.52a320,320,0,0,1,43.59-60.84l-795.08-561.8,387.29,320.89A320.47,320.47,0,0,1,2636.38,2101.56Z"/><path class="a5af6cbd-15bb-4eb5-ab69-5921c0649330" d="M2245.83,2000.22l-395-335.61,311.22,391.57A320.18,320.18,0,0,1,2245.83,2000.22Z"/><path class="a5af6cbd-15bb-4eb5-ab69-5921c0649330" d="M1573,2044.83l-32.7,30,80,81.93a179.64,179.64,0,0,1,59.75-10.17q6.45,0,12.79.46Z"/><path class="a7d82ecd-36d6-492b-af23-850309e55164" d="M1840.4,2090.74a200.26,200.26,0,0,1,14.45-16.74l-129.71-170.25-6.46-8.48L1559,2032.83l14.07,12L1692.85,2147a178.89,178.89,0,0,1,84.21,27.91A197.75,197.75,0,0,1,1840.4,2090.74Z"/><path class="a510d878-8db5-49cb-a378-511861f95e84" d="M1323.12,1994.17a319.5,319.5,0,0,1,82.28,13.09l97.86-106,193.27-318.54-209.11,267.09-174.21,144.23C1316.51,1994.05,1319.81,1994.08,1323.12,1994.17Z"/><path class="a5af6cbd-15bb-4eb5-ab69-5921c0649330" d="M2383,1971.23l-276.39-214.76-245.73-242.23,237.38,295,203.59,171.33A319.79,319.79,0,0,1,2383,1971.23Z"/><polygon class="a510d878-8db5-49cb-a378-511861f95e84" points="1327.92 1921.48 1816.44 1378 1445.74 1734.97 1327.92 1921.48"/><path class="a7d82ecd-36d6-492b-af23-850309e55164" d="M1540.33,2074.81h0l-6.91,6.31a320.57,320.57,0,0,1,64.41,85.31,178.73,178.73,0,0,1,22.48-9.69Z"/><path class="bf065070-5fb0-4a7e-a629-a713c419b781" d="M158.47,2014.6a291.29,291.29,0,0,1,55.8,8.72A319.94,319.94,0,0,0,123.89,1890a318.4,318.4,0,0,0-109.44-63q4.69,28.83,10.88,56A320.71,320.71,0,0,1,158.47,2014.6Z"/><path class="bf065070-5fb0-4a7e-a629-a713c419b781" d="M3458.65,2010q-8.36,8.43-16.08,17.48A318.05,318.05,0,0,1,3645,1951.23q5.47-16.93,10.28-34.62A318.51,318.51,0,0,0,3458.65,2010Z"/><path class="bf065070-5fb0-4a7e-a629-a713c419b781" d="M3057.92,2134.44a320.28,320.28,0,0,0-95.85,71q-4.41,4.77-8.63,9.71a319.48,319.48,0,0,1,363.73-35.31,291.22,291.22,0,0,1,24.66-42.11,319.92,319.92,0,0,0-283.91-3.26Z"/><path class="bf065070-5fb0-4a7e-a629-a713c419b781" d="M638.87,2142.9Q629.18,2131,618.38,2120a318.37,318.37,0,0,0-185.66-92.32,323.78,323.78,0,0,0-32.75-2.57,318.28,318.28,0,0,0-124.73,21.57,291.2,291.2,0,0,1,30.27,18.14,321.82,321.82,0,0,1,58.46-3.71c106,2.94,198.56,57.27,254.4,138.45a289.33,289.33,0,0,1,65,15.91q-6.3-14.25-13.92-27.76A320.59,320.59,0,0,0,638.87,2142.9Z"/><path class="bf065070-5fb0-4a7e-a629-a713c419b781" d="M833,2196.49a196.7,196.7,0,0,1,138.9,62.73,316.6,316.6,0,0,1,20-51.29A197.32,197.32,0,0,0,714,2229c.93.47,1.85,1,2.77,1.45A196.47,196.47,0,0,1,833,2196.49Z"/><path class="bf065070-5fb0-4a7e-a629-a713c419b781" d="M2636.38,2101.56a318.86,318.86,0,0,0-248.57-130.23l-4.77-.1a318.45,318.45,0,0,0-221,84.95q-10.73,9.93-20.53,20.81a197.34,197.34,0,0,0-286.7-3,200.26,200.26,0,0,0-14.45,16.74A197.34,197.34,0,0,1,2105.55,2113a318.62,318.62,0,0,1,246.26-105.66c169.4,4.7,304.3,140.5,310.26,307.52a179.2,179.2,0,0,1,35.67-5.75c.19-3.22.35-6.45.44-9.7A318,318,0,0,0,2636.38,2101.56Z"/><path class="bf065070-5fb0-4a7e-a629-a713c419b781" d="M2874,2317.17a198,198,0,0,0-135.73-6,179,179,0,0,1,80.11,35,196,196,0,0,1,37.68,15.62A315.39,315.39,0,0,1,2874,2317.17Z"/><path class="bf065070-5fb0-4a7e-a629-a713c419b781" d="M1533.42,2081.12a318.33,318.33,0,0,0-210.3-86.95c-3.31-.09-6.61-.12-9.91-.11a318.71,318.71,0,0,0-242,112.21,318.18,318.18,0,0,1,215.9-76.1c117,3.24,217.57,69.06,270.54,164.5a180.08,180.08,0,0,1,40.17-28.24A320.57,320.57,0,0,0,1533.42,2081.12Z"/><path class="bd9336b3-e439-4d7f-b7ff-801f27fa802b" d="M2023.74,2317.7A318,318,0,0,1,2105.55,2113a197.42,197.42,0,0,0-328.49,62,179.89,179.89,0,0,1,81.55,130,198.35,198.35,0,0,1,38.17,40.84,179.32,179.32,0,0,1,113.61,54.8,289.66,289.66,0,0,1,13.58-58.63Q2023.42,2329.92,2023.74,2317.7Z"/><path class="bd9336b3-e439-4d7f-b7ff-801f27fa802b" d="M959.05,2340.54a319.79,319.79,0,0,1,12.81-81.32,197.36,197.36,0,0,0-255.11-28.82,291.67,291.67,0,0,1,145,177.82,180.28,180.28,0,0,1,99.68-18.43A322.41,322.41,0,0,1,959.05,2340.54Z"/><path class="bd9336b3-e439-4d7f-b7ff-801f27fa802b" d="M1858.61,2304.93a180,180,0,0,1,.17,41.39,182,182,0,0,1,21.64-1.3c5.52,0,11,.26,16.36.75A198.35,198.35,0,0,0,1858.61,2304.93Z"/><path class="bd9336b3-e439-4d7f-b7ff-801f27fa802b" d="M2856,2361.79a196,196,0,0,0-37.68-15.62,181,181,0,0,1,32.78,32.83Q2853.36,2370.3,2856,2361.79Z"/><path class="bd9336b3-e439-4d7f-b7ff-801f27fa802b" d="M3442.57,2027.44a321.18,321.18,0,0,0-52.58,57.14,291.14,291.14,0,0,1,230.16-67.71,701,701,0,0,0,24.83-65.64A318.05,318.05,0,0,0,3442.57,2027.44Z"/><path class="bd9336b3-e439-4d7f-b7ff-801f27fa802b" d="M1287.12,2030.17a319.08,319.08,0,0,0-328.07,310.37,322.41,322.41,0,0,0,2.4,49.25,178.82,178.82,0,0,1,78.94,27.68q-1.37-14-1.38-28.38c0-160.7,130.27-291,291-291a290.3,290.3,0,0,1,221.62,102.45c2-2,4-4,6.06-5.9C1504.69,2099.23,1404.14,2033.41,1287.12,2030.17Z"/><path class="bd9336b3-e439-4d7f-b7ff-801f27fa802b" d="M2351.81,2007.33a319.37,319.37,0,0,0-328.07,310.37q-.35,12.23.23,24.24c39.34-114.13,147.66-196.13,275.15-196.13,135,0,248.49,91.92,281.36,216.58a179.66,179.66,0,0,1,81.59-47.54C2656.11,2147.83,2521.21,2012,2351.81,2007.33Z"/><path class="bd9336b3-e439-4d7f-b7ff-801f27fa802b" d="M2953.44,2215.12a320.81,320.81,0,0,0-72.64,89q-3.56,6.45-6.82,13.09a315.39,315.39,0,0,0-17.94,44.62q-2.68,8.51-4.9,17.21a178.7,178.7,0,0,1,11.87,17.42c38.47-115.66,147.56-199.08,276.15-199.08a289.62,289.62,0,0,1,156.41,45.58,289.32,289.32,0,0,1,21.6-63.11,319.48,319.48,0,0,0-363.73,35.31Z"/><path class="bd9336b3-e439-4d7f-b7ff-801f27fa802b" d="M141.25,2014.08c5.78,0,11.52.19,17.22.52A320.71,320.71,0,0,0,25.33,1883c11.57,50.8,27,97.21,46,139.6A291.59,291.59,0,0,1,141.25,2014.08Z"/><path class="bd9336b3-e439-4d7f-b7ff-801f27fa802b" d="M364,2061.15a321.82,321.82,0,0,0-58.46,3.71,291.24,291.24,0,0,1,120,178.06A289.63,289.63,0,0,1,582,2197.34a295.34,295.34,0,0,1,36.4,2.26C562.53,2118.42,470,2064.09,364,2061.15Z"/><path class="b4f2a69d-0208-4612-bc69-7e4ff350fb20" d="M1858.78,2346.32A179.74,179.74,0,0,0,1692.85,2147q-6.35-.45-12.79-.46a179.18,179.18,0,0,0-122.4,48.1c-2.07,1.92-4.09,3.88-6.06,5.9a291.31,291.31,0,0,1,59.1,265.26q49.59-.26,100-.49A180,180,0,0,1,1858.78,2346.32Z"/><path class="b4f2a69d-0208-4612-bc69-7e4ff350fb20" d="M2863,2396.42a178.7,178.7,0,0,0-11.87-17.42,181,181,0,0,0-32.78-32.83,179,179,0,0,0-80.11-35,181.46,181.46,0,0,0-29.67-2.45c-3.64,0-7.25.12-10.84.34a179.13,179.13,0,0,0-117.26,53.29,291.51,291.51,0,0,1,9.61,74.39q0,12.42-1,24.57c91.71-3.45,179.49-9.1,262.62-18.14A288.8,288.8,0,0,1,2863,2396.42Z"/><path class="b4f2a69d-0208-4612-bc69-7e4ff350fb20" d="M2008.15,2436.78a294.46,294.46,0,0,1,2.24-36.21,179.32,179.32,0,0,0-113.61-54.8c-5.39-.49-10.84-.75-16.36-.75a182,182,0,0,0-21.64,1.3,180,180,0,0,0-148.1,119q66.3-.3,133.82-.34,83.45,0,165.06.48C2008.64,2456,2008.15,2446.47,2008.15,2436.78Z"/><path class="b4f2a69d-0208-4612-bc69-7e4ff350fb20" d="M1040.39,2417.47a178.82,178.82,0,0,0-78.94-27.68,180.28,180.28,0,0,0-99.68,18.43,289.34,289.34,0,0,1,8.17,38.34c57.17,5.55,116.44,9.61,177.57,12.55A289.64,289.64,0,0,1,1040.39,2417.47Z"/><path class="b4f2a69d-0208-4612-bc69-7e4ff350fb20" d="M425.55,2242.92A290.42,290.42,0,0,0,158.47,2014.6c-5.7-.33-11.44-.52-17.22-.52a291.59,291.59,0,0,0-69.88,8.47C130.9,2155,225.82,2248.23,349.18,2313.73A292.55,292.55,0,0,1,425.55,2242.92Z"/><path class="b4f2a69d-0208-4612-bc69-7e4ff350fb20" d="M2590.09,2436.78a291.51,291.51,0,0,0-9.61-74.39c-32.87-124.66-146.37-216.58-281.36-216.58-127.49,0-235.81,82-275.15,196.13a289.66,289.66,0,0,0-13.58,58.63,294.46,294.46,0,0,0-2.24,36.21c0,9.69.49,19.26,1.41,28.7,204.6,1,399.59,2.65,579.49-4.13Q2590.07,2449.2,2590.09,2436.78Z"/><path class="b4f2a69d-0208-4612-bc69-7e4ff350fb20" d="M1621,2389.09a291,291,0,0,0-291-291c-160.7,0-291,130.27-291,291q0,14.35,1.38,28.38a289.64,289.64,0,0,0,7.12,41.64c174.31,8.4,363.78,7.73,563.19,6.72A291.22,291.22,0,0,0,1621,2389.09Z"/><path class="b4f2a69d-0208-4612-bc69-7e4ff350fb20" d="M716.75,2230.4c-.92-.48-1.84-1-2.77-1.45a289.63,289.63,0,0,0-95.61-29.35,295.34,295.34,0,0,0-36.4-2.26,289.63,289.63,0,0,0-156.42,45.58,292.55,292.55,0,0,0-76.37,70.81c140.24,74.45,317.24,113.08,520.76,132.83A290.11,290.11,0,0,0,716.75,2230.4Z"/><path class="b4f2a69d-0208-4612-bc69-7e4ff350fb20" d="M3579.87,2014.08a289.83,289.83,0,0,0-189.88,70.5q-3.69,3.18-7.27,6.5a291.69,291.69,0,0,0-65.55,88.73,289.32,289.32,0,0,0-21.6,63.11,292.75,292.75,0,0,1,66.57,58.48c114.23-65.69,202.24-157.21,258-284.53A292.47,292.47,0,0,0,3579.87,2014.08Z"/><path class="b4f2a69d-0208-4612-bc69-7e4ff350fb20" d="M3295.57,2242.92a289.62,289.62,0,0,0-156.41-45.58c-128.59,0-237.68,83.42-276.15,199.08a288.8,288.8,0,0,0-11.34,46.79c200.64-21.83,374.21-63.45,510.47-141.81A292.75,292.75,0,0,0,3295.57,2242.92Z"/><path class="b4f2a69d-0208-4612-bc69-7e4ff350fb20" d="M856.93,1016A145.55,145.55,0,0,0,858,999.2,142.68,142.68,0,0,0,649.73,872.33c-45.32-84.49-134.44-142-237-142A267.61,267.61,0,0,0,283.81,763.2a1573.36,1573.36,0,0,0-139.94,237.67c.08,5.09.5,10.09.82,15.13Z"/><path class="b4f2a69d-0208-4612-bc69-7e4ff350fb20" d="M2668.1,1543a76.55,76.55,0,0,0,.57-8.88,75.42,75.42,0,0,0-110.09-67.06,142.11,142.11,0,0,0-267.41,67.06c0,3,.26,5.93.45,8.88Z"/><path class="b4f2a69d-0208-4612-bc69-7e4ff350fb20" d="M1276.67,1418a60.14,60.14,0,0,0-73.7-74.61,105.94,105.94,0,0,0-194.74,16.38,57.63,57.63,0,0,0-69.14,56.4c0,.62.07,1.22.09,1.83Z"/><path class="b4f2a69d-0208-4612-bc69-7e4ff350fb20" d="M3532.34,1129.86A187.6,187.6,0,0,0,3366,1029c-83.49,0-154.16,54.54-178.55,129.9a103.28,103.28,0,0,0-20.5-2.06,102,102,0,0,0-101.95,102c0,1.1.13,2.15.16,3.24h575.62q-17.12-65-40-127.93a105.76,105.76,0,0,0-68.47-4.21Z"/><path class="b4f2a69d-0208-4612-bc69-7e4ff350fb20" d="M2584.42,399.48a200.3,200.3,0,0,0-92.24-22.5c-111.2,0-201.34,90.14-201.34,201.33a203.43,203.43,0,0,0,1.51,23.69h981.94c-138-149.9-305.41-277.7-494.42-376.47A380.47,380.47,0,0,0,2584.42,399.48Z"/><path class="b4f2a69d-0208-4612-bc69-7e4ff350fb20" d="M1533,343.83A176.06,176.06,0,0,0,1310.33,173.5a312.18,312.18,0,0,0-65.44-85.16C1023.21,155.85,820.62,259.75,646.19,392h880A176.4,176.4,0,0,0,1533,343.83Z"/></g><g id="e45fd027-a346-46f7-90a0-9272932b2b65" data-name="CHARACTER"><g id="a5f4262a-1f45-484d-a459-e8b891f7f959" data-name="GUY"><path class="ade61f14-e49f-449a-8b99-7eb4d0bda63f" d="M1698.56,1289.47c-2.7.5-5.92,1.53-5.86,3.78,0,2,2.64,3.39,4.94,4.32a101,101,0,0,0,55.32,5.83,31.08,31.08,0,0,0,10.26-3.38c2.94-1.76,5.1-4.47,5.08-7.52-.08-9.12-13.44-11.29-21.89-10.44-9,.9-18,2.79-26.92,4Q1708.95,1287.56,1698.56,1289.47Z"/><path class="ade61f14-e49f-449a-8b99-7eb4d0bda63f" d="M1956.09,1294.45c2.69.6,5.87,1.76,5.72,4-.13,2-2.77,3.29-5.1,4.13a101.11,101.11,0,0,1-55.51,3.69,31.09,31.09,0,0,1-10.12-3.78c-2.87-1.87-4.93-4.67-4.78-7.71.42-9.11,13.86-10.76,22.27-9.59,9,1.25,17.85,3.49,26.74,5.08Q1945.8,1292.13,1956.09,1294.45Z"/><rect class="f3ee597a-2e53-4b29-a549-87ea3b05b855" x="1794.91" y="1190.82" width="72.68" height="58.89" transform="matrix(1, 0.02, -0.02, 1, 23.93, -35.18)"/><path class="f3ee597a-2e53-4b29-a549-87ea3b05b855" d="M1937.69,1195.16,1887,1219.4c-.63.3-3.59-14.15-3.71-15.4a54.14,54.14,0,0,1-.19-8.25c.19-3.2.15-3.73,3.2-3.14,11.08,2.12,21.1,5,32.58,4.74A98.86,98.86,0,0,0,1937.69,1195.16Z"/><path class="f3ee597a-2e53-4b29-a549-87ea3b05b855" d="M1729.65,1191.76l49.68,26.18c.62.33,4.14-14,4.31-15.24a52.78,52.78,0,0,0,.5-8.24c-.06-3.21,0-3.73-3.07-3.26-11.15,1.7-21.28,4.16-32.74,3.48A99.11,99.11,0,0,1,1729.65,1191.76Z"/><path class="bd437f5c-5028-4a54-87e7-1013558e6f1a" d="M1835.28,901.42c-17.52,11.27-31.58,22.63-31.58,22.63s-15-14.51-31.69-20.67c6.24,23.49,24.24,97.51,44,133.51C1818.18,973.75,1828.2,927.15,1835.28,901.42Z"/><path class="b66f77c3-7bab-48e3-a350-78dfac95e4ab" d="M1825,1050.13a74.34,74.34,0,0,1-8.92-13.24c-.16,4.91-.27,9.95-.33,15.06a38.77,38.77,0,0,0,9.1,5.89,38.77,38.77,0,0,1-9.1-5.89,754.05,754.05,0,0,0,2.87,75.51c4.74-33.34,13.89-82.62,28.88-106.53l-6.68-22.66,17.24-2.63-13.48-99.95c-3.16,1.87-6.27,3.8-9.27,5.73-7.08,25.73-17.1,72.33-19.23,135.47A74.34,74.34,0,0,0,1825,1050.13Z"/><path class="eb4429f9-6d08-4929-ba74-31acf3eb3ac5" d="M1993,1152s-64.31-91.91-64.6-94c-3.74-26.73-10.13-156.85-31.32-162.9-10.89-3.11-52,.87-52.51.62L1858,995.64l-17.24,2.63,6.68,22.66c-15,23.91-24.14,73.19-28.88,106.53a819.23,819.23,0,0,0,11.58,82.83s45.27,45,59.32,8c2.82-7.43-21.09-107-21.09-107l19.15-119.6s-1.06,65.76,12.78,90.81c7.36,13.33,75.42,85.43,75.42,85.43Z"/><path class="eb4429f9-6d08-4929-ba74-31acf3eb3ac5" d="M1814.52,1161.38s1.26-14.17,4.07-33.92a754.05,754.05,0,0,1-2.87-75.51c-13.41-11.22-24.57-30.92-24.57-30.92l1.7-26.65-8.82-3.72c-20.11-28.75-19.68-71.9-18.13-89.08-6.9-1.56-32.72,2.65-38.79,6.32-20.69,12.52-15.26,141.75-18.85,159-.25,1.21-57.3,79.1-57.3,79.1l15.37,15.66s58.86-53.54,67.09-67.32c11.95-20,12.08-73.71,10.19-96.29L1784,1125.08l-14.57,100.05s43.33,29.87,60.79-14.84a819.23,819.23,0,0,1-11.58-82.83C1815.78,1147.21,1814.52,1161.38,1814.52,1161.38Z"/><path class="b66f77c3-7bab-48e3-a350-78dfac95e4ab" d="M1784,990.66l8.82,3.72-1.7,26.65s15.26,25.18,24.9,45.42c.06-5.11-.16-24.65,0-29.56-19.8-36-37.8-110-44-133.51a48.86,48.86,0,0,0-6.11-1.8C1764.35,918.76,1763.92,961.91,1784,990.66Z"/><polygon class="b66f77c3-7bab-48e3-a350-78dfac95e4ab" points="1804.25 924.06 1796.44 932.74 1805 943.43 1812.26 930.95 1804.25 924.06"/><polygon class="b66f77c3-7bab-48e3-a350-78dfac95e4ab" points="1805 943.43 1804.99 1016.4 1816.39 1043.63 1823.62 1014.3 1805 943.43"/><path class="bd54df01-7609-4750-abd3-a1e16418637c" d="M1803.7,924.05s-8,12.54-8,11.13-29.79-33.6-29.79-33.6l10.86-3.59Z"/><path class="bd54df01-7609-4750-abd3-a1e16418637c" d="M1804.25,924.06s7.54,12.84,7.57,11.44,31.06-32.43,31.06-32.43l-10.71-4Z"/><path class="a6fbfae0-1563-4e45-8d70-5f7daf987150" d="M1767,836.49c-.17,9-5.23,16.24-11.29,16.13s-10.83-7.53-10.66-16.55,5.23-16.24,11.29-16.12S1767.19,827.47,1767,836.49Z"/><path class="a6fbfae0-1563-4e45-8d70-5f7daf987150" d="M1866.33,838.41c-.18,9-5.23,16.24-11.29,16.13S1844.2,847,1844.37,838s5.23-16.24,11.3-16.12S1866.5,829.39,1866.33,838.41Z"/><path class="a6fbfae0-1563-4e45-8d70-5f7daf987150" d="M1803.64,916.55h0a43.26,43.26,0,0,1-42.29-43.95l1.35-70.05a43.26,43.26,0,0,1,44-42.29h0a43.26,43.26,0,0,1,42.29,44l-1.36,70A43.24,43.24,0,0,1,1803.64,916.55Z"/><path class="b0a4872e-5aaf-4d54-8bb0-4b1834bd7803" d="M1847.46,840.53s-2.31-15.47-2.28-17-6.14-34.11-6.14-34.11-43.21,16.94-65.39,1.35l-5.79,29.17-6.11,18.18-2.11-52.85s-11.24-13.81,2.12-28.72,59.58-25.52,71.53,5.57C1833.29,762.09,1882.92,764.35,1847.46,840.53Z"/><path class="b0a4872e-5aaf-4d54-8bb0-4b1834bd7803" d="M1761.75,838.09l-2,51.73s9.26,34.69,41.53,42.63c0,0,40.92-7.05,49.9-38.77l-3.52-61.25s1.08,25.12-16.3,31.58c0,0-26-37.1-50.2.08Z"/><path class="bcabdc3a-9432-4934-a94b-6651a0f3188a" d="M1951.49,1175.66c9-3.92,18.43-7.82,28.18-7.48s20,6,23,15.86c3.1,10.27-2.48,21.26-9.32,29.27-16.62,19.46-40.7,29.49-64.08,38.12a1182.07,1182.07,0,0,1-156.5,45.74c-6.32,1.38-8.15,3.9-14.47,2.52-3.67-.8-7.39-6.41-17.9-14.13.33-5.19,15.2-9,19.38-11.48q22.47-13.44,45.31-26.16,45.68-25.41,92.76-47.86Q1924.46,1187.37,1951.49,1175.66Z"/><path class="a5338750-fd35-4f90-827b-1243a3043c1d" d="M1809.3,1233c.38.61,52.87,38,52.87,38l-9.74,3.62-57.29-34.39Z"/><polygon class="f3ee597a-2e53-4b29-a549-87ea3b05b855" points="1767.79 1269.3 1775.25 1264.3 1842.34 1279.59 1823.9 1284.93 1813.69 1287.45 1767.79 1269.3"/><path class="bcabdc3a-9432-4934-a94b-6651a0f3188a" d="M1699.87,1170.16c-8.88-4.26-18.11-8.51-27.87-8.56s-20.22,5.25-23.57,15c-3.48,10.14,1.66,21.34,8.18,29.61,15.86,20.09,39.53,31,62.57,40.57a1179.27,1179.27,0,0,0,154.61,51.75c6.26,1.63,12.74,3.21,19.1,2.08,3.71-.66,13.58-4.85,13.44-10.26-.13-5.2-14.58-11.72-18.67-14.38q-21.93-14.31-44.26-27.89-44.67-27.16-90.84-51.41Q1726.43,1182.91,1699.87,1170.16Z"/><path class="a6fbfae0-1563-4e45-8d70-5f7daf987150" d="M1977,1166.69l15-14.12,3.6,1.21s26.6-2.62,28.88,2.27-21.76,5.42-21.76,5.42l12.38,14.35,18.46,3.47s15.17-5.24,22,3.77l-6.31,2.28s4.63,3.29,3.16,7l-33.3,5.88s-30.36-12.77-43.47-30.25Z"/><path class="a6fbfae0-1563-4e45-8d70-5f7daf987150" d="M2040.05,1182.86c.38-3.88,2.14-4.27,2.53-8.15.19-1.9-.87-14.58-6.49-17.78-3-1.7-8.29-3.06-11.65-2.26l-3.46,3.18a14.47,14.47,0,0,0,9.66,5.5c1.38,4.11,2.27,11.2,1.76,11l-8.3,9.11a74.4,74.4,0,0,1,15.85.35"/><path class="a6fbfae0-1563-4e45-8d70-5f7daf987150" d="M1665.09,1160.66l-14.48-14.7L1647,1147s-26.47-3.65-29,1.15,21.54,6.26,21.54,6.26l-12.92,13.86-18.59,2.75s-15-5.82-22.17,2.91l6.22,2.53s-4.76,3.1-3.42,6.82l33,7.17s30.82-11.59,44.6-28.55Z"/><path class="a6fbfae0-1563-4e45-8d70-5f7daf987150" d="M1601.49,1174.38c-.23-3.89-2-4.35-2.21-8.24-.12-1.91,1.43-14.54,7.17-17.51,3.07-1.59,8.4-2.75,11.73-1.82l3.34,3.32a14.58,14.58,0,0,1-9.87,5.12c-1.54,4-2.7,11.11-2.19,10.87l8,9.43a75,75,0,0,0-15.85-.27"/><path class="a0563110-b977-47f9-93ba-d0cdbd042392" d="M2049.36,1185.34l6.31-2.28c-3.51-4.6-9.18-5.48-13.89-5.25a9.62,9.62,0,0,0,.8-3.1c.19-1.9-.87-14.58-6.49-17.78-3-1.7-8.29-3.06-11.65-2.26l-.59.55c-4.82-3.75-28.18-1.44-28.18-1.44l-3.41-1.15.72-.67s-64.31-91.91-64.6-94c-3.74-26.73-10.13-156.85-31.32-162.9-8.35-2.38-34.46-.6-46.42.25.17-.54.34-1.09.5-1.64l-2.43-42.34a8.8,8.8,0,0,0,6.33,3.2c6.06.11,11.11-7.1,11.29-16.13s-4.6-16.43-10.66-16.54a5.17,5.17,0,0,0-.68,0c19.48-57.93-21.7-59.82-21.7-59.82-12-31.09-58.17-20.48-71.53-5.57s-2.12,28.72-2.12,28.72l1.46,36.44a8.11,8.11,0,0,0-4.75-1.73c-6.06-.12-11.12,7.1-11.29,16.12s4.6,16.43,10.66,16.55a8.35,8.35,0,0,0,5.54-2.11l-1.55,39.31a64.4,64.4,0,0,0,4.7,11.53c-8.53-.81-31.6,3.1-37.3,6.55-20.69,12.52-15.26,141.75-18.85,159-.25,1.21-57.3,79.1-57.3,79.1l15.37,15.66s58.86-53.54,67.09-67.33c11.95-20,12.08-73.7,10.19-96.28L1784,1125.08l-9.79,67.25c-8.39,1.43-16.46,2.83-25.31,2.37q-24.3-12.67-49-24.54c-8.88-4.26-18.11-8.51-27.87-8.56a27.89,27.89,0,0,0-5.94.63l.26-.29-1.23-1.28-14.48-14.7L1647,1147s-23.26-3.21-28.21.34l-.57-.57c-3.33-.93-8.66.23-11.73,1.82-5.74,3-7.29,15.6-7.17,17.51a9.42,9.42,0,0,0,.68,3.13c-4.7-.42-10.4.24-14.09,4.7l6.22,2.53s-4.76,3.1-3.42,6.82l33,7.17a164.14,164.14,0,0,0,26.56-13.39c-3.13,10,1.92,21,8.33,29.07,15.86,20.09,39.53,31,62.57,40.57q25.89,10.69,52.22,20.14l-3.61,2.42h0l-8,4.78c-3.32,2-13.4,4.8-17.55,8.47-7.61,1-15.15,2.49-22.71,3.54q-10.54,1.47-20.93,3.38c-2.7.5-5.92,1.53-5.86,3.78,0,2,2.64,3.39,4.94,4.32a101,101,0,0,0,55.32,5.83,31.08,31.08,0,0,0,10.26-3.38l.08,0c2.94-.42,5.16-1.87,9.44-2.8q20.55-4.5,40.94-9.73h0l10.21-2.52.94-.27q24.35,7.46,49,13.83c5,1.31,10.19,2.58,15.33,2.45a13.64,13.64,0,0,0,2,1.55,31.09,31.09,0,0,0,10.12,3.78,101.11,101.11,0,0,0,55.51-3.69c2.33-.84,5-2.17,5.1-4.13.15-2.24-3-3.4-5.72-4q-10.29-2.31-20.78-4.18c-8.89-1.59-17.75-3.83-26.74-5.08a37.37,37.37,0,0,0-6.21-.31c-4.62-3.67-12-7.17-14.7-9q-5.17-3.37-10.37-6.71,26.14-8.29,52-17.79c23.38-8.63,47.46-18.66,64.08-38.12,5.48-6.41,10.13-14.74,10.19-23.07a159.44,159.44,0,0,0,15.71,7.93l33.3-5.88C2054,1188.63,2049.36,1185.34,2049.36,1185.34Zm-422.73-17-13.62,2-3.55-4.21c-.51.24.65-6.82,2.19-10.87a14.54,14.54,0,0,0,8.82-4c5.78,2.4,19.08,3.21,19.08,3.21ZM1791.15,1021s.64,1.05,1.73,2.89C1791.77,1022.12,1791.15,1021,1791.15,1021Zm114.48,175.35c-6.41-1-12.67-2.5-19.3-3.77h0c-6-31.81-17.91-81.32-17.91-81.32l19.15-119.6s-1.06,65.76,12.78,90.81c7.36,13.33,75.42,85.43,75.42,85.43l.26.32c-8.45.59-16.62,4-24.52,7.42Q1928.42,1185.65,1905.63,1196.38Zm109.54-20.56-12.38-14.35s13.32-.29,19.19-2.46a14.54,14.54,0,0,0,8.66,4.34c1.38,4.11,2.27,11.2,1.76,11l-3.7,4.06Z"/></g></g><g id="ab784d42-d643-4b98-8b64-b6f08546ced1" data-name="SPARKLES"><path class="ae3c1069-3c3e-4d23-a0a1-ff02e44d038b" d="M2334.09,415a55.42,55.42,0,0,0-42.37,41.12,55.45,55.45,0,0,0-40.8-40.76,55.49,55.49,0,0,0,42.37-41.14A55.38,55.38,0,0,0,2334.09,415Z"/><path class="ae3c1069-3c3e-4d23-a0a1-ff02e44d038b" d="M1423.38,706.06a45.1,45.1,0,0,0-34.48,33.45,45.1,45.1,0,0,0-33.19-33.16,45.14,45.14,0,0,0,34.47-33.47A45.07,45.07,0,0,0,1423.38,706.06Z"/><path class="ae3c1069-3c3e-4d23-a0a1-ff02e44d038b" d="M1355.71,1378a34.88,34.88,0,0,0-26.67,25.88,34.92,34.92,0,0,0-25.69-25.65,34.92,34.92,0,0,0,26.67-25.9A34.88,34.88,0,0,0,1355.71,1378Z"/><path class="ae3c1069-3c3e-4d23-a0a1-ff02e44d038b" d="M1833.21,351.08a47.69,47.69,0,0,0-36.45,35.38,47.72,47.72,0,0,0-35.1-35.07A47.73,47.73,0,0,0,1798.11,316,47.63,47.63,0,0,0,1833.21,351.08Z"/><path class="ae3c1069-3c3e-4d23-a0a1-ff02e44d038b" d="M2077.29,1352.58a34.86,34.86,0,0,0-26.67,25.88,34.92,34.92,0,0,0-25.69-25.65,34.93,34.93,0,0,0,26.67-25.9A34.88,34.88,0,0,0,2077.29,1352.58Z"/><path class="ae3c1069-3c3e-4d23-a0a1-ff02e44d038b" d="M2349.16,1205.17a25.6,25.6,0,0,0-19.56,19,25.61,25.61,0,0,0-18.84-18.82,25.57,25.57,0,0,0,19.56-19A25.56,25.56,0,0,0,2349.16,1205.17Z"/><path class="ae3c1069-3c3e-4d23-a0a1-ff02e44d038b" d="M2222.55,873.68a25.58,25.58,0,0,0-19.56,19,25.61,25.61,0,0,0-18.84-18.82,25.59,25.59,0,0,0,19.56-19A25.59,25.59,0,0,0,2222.55,873.68Z"/><path class="ae3c1069-3c3e-4d23-a0a1-ff02e44d038b" d="M1513.83,950.56a34.89,34.89,0,0,0-26.67,25.88,34.87,34.87,0,0,0-25.68-25.65,34.94,34.94,0,0,0,26.67-25.9A34.88,34.88,0,0,0,1513.83,950.56Z"/><path class="ae3c1069-3c3e-4d23-a0a1-ff02e44d038b" d="M1388.21,1129.81a25.59,25.59,0,0,0-19.56,19,25.61,25.61,0,0,0-18.84-18.82,25.6,25.6,0,0,0,19.56-19A25.58,25.58,0,0,0,1388.21,1129.81Z"/><path class="ae3c1069-3c3e-4d23-a0a1-ff02e44d038b" d="M1322.27,415.28a25.6,25.6,0,0,0-19.56,19,25.61,25.61,0,0,0-18.84-18.82,25.6,25.6,0,0,0,19.56-19A25.56,25.56,0,0,0,1322.27,415.28Z"/><path class="ae3c1069-3c3e-4d23-a0a1-ff02e44d038b" d="M1825.09,669.78a25.59,25.59,0,0,0-19.56,19A25.6,25.6,0,0,0,1786.69,670a25.6,25.6,0,0,0,19.56-19A25.59,25.59,0,0,0,1825.09,669.78Z"/><path class="ae3c1069-3c3e-4d23-a0a1-ff02e44d038b" d="M2114.65,1174.79a25.58,25.58,0,0,0-19.56,19,25.57,25.57,0,0,0-18.84-18.81,25.6,25.6,0,0,0,19.56-19A25.59,25.59,0,0,0,2114.65,1174.79Z"/><path class="ae3c1069-3c3e-4d23-a0a1-ff02e44d038b" d="M2146.25,840.81a25.6,25.6,0,0,0-19.56,19A25.6,25.6,0,0,0,2107.86,841a25.6,25.6,0,0,0,19.56-19A25.57,25.57,0,0,0,2146.25,840.81Z"/><path class="ae3c1069-3c3e-4d23-a0a1-ff02e44d038b" d="M2190.43,1253.7a34.89,34.89,0,0,0-26.67,25.88,34.9,34.9,0,0,0-25.68-25.66,34.92,34.92,0,0,0,26.67-25.89A34.88,34.88,0,0,0,2190.43,1253.7Z"/><path class="ae3c1069-3c3e-4d23-a0a1-ff02e44d038b" d="M1328.07,937.49a25.58,25.58,0,0,0-19.56,19,25.61,25.61,0,0,0-18.84-18.82,25.57,25.57,0,0,0,19.56-19A25.59,25.59,0,0,0,1328.07,937.49Z"/><path class="ae3c1069-3c3e-4d23-a0a1-ff02e44d038b" d="M2001.19,655.15a25.59,25.59,0,0,0-19.56,19,25.61,25.61,0,0,0-18.84-18.82,25.6,25.6,0,0,0,19.56-19A25.56,25.56,0,0,0,2001.19,655.15Z"/><path class="ae3c1069-3c3e-4d23-a0a1-ff02e44d038b" d="M1643.86,682.06a25.58,25.58,0,0,0-19.56,19,25.6,25.6,0,0,0-18.84-18.81,25.63,25.63,0,0,0,19.56-19A25.59,25.59,0,0,0,1643.86,682.06Z"/><path class="ae3c1069-3c3e-4d23-a0a1-ff02e44d038b" d="M1611.13,1274.76a84.88,84.88,0,0,0-64.88,63,84.9,84.9,0,0,0-62.47-62.41,84.93,84.93,0,0,0,64.87-63A84.86,84.86,0,0,0,1611.13,1274.76Z"/><path class="ae3c1069-3c3e-4d23-a0a1-ff02e44d038b" d="M2108.51,993.36a54.42,54.42,0,0,0-41.6,40.38,54.44,54.44,0,0,0-40.06-40,54.48,54.48,0,0,0,41.6-40.4A54.39,54.39,0,0,0,2108.51,993.36Z"/></g></g></svg>