<svg xmlns="http://www.w3.org/2000/svg" viewBox="0 0 1212.67 1227.19"><defs><style>.cls-1{fill:#69ccf4;}.cls-2{fill:#fff;}.cls-3{fill:none;}.cls-4{fill:#224970;}</style></defs><title>Icon</title><g id="Layer_2" data-name="Layer 2"><g id="Layer_1-2" data-name="Layer 1"><g id="Icon"><path class="cls-1" d="M1068.64,1018.23c1.14-1.92,2.26-3.84,3.38-5.76v0c1.12-1.94,2.22-3.87,3.32-5.81q1.83-3.25,3.62-6.52,2.23-4.11,4.38-8.23c1.91-3.66,3.75-7.31,5.55-11,.71-1.43,1.41-2.87,2.1-4.3q2.65-5.5,5.17-11c.68-1.48,1.34-2.95,2-4.42q2.2-4.94,4.3-9.83c.71-1.68,1.42-3.36,2.11-5,1.05-2.54,2.09-5.07,3.1-7.59,1.34-3.35,2.62-6.68,3.88-10,.32-.83.63-1.65.94-2.48q1.86-4.95,3.62-9.86c.42-1.18.84-2.36,1.25-3.54q1.68-4.83,3.26-9.57c.33-1,.65-2,1-3,.72-2.2,1.43-4.4,2.12-6.57.34-1.09.68-2.17,1-3.25.68-2.18,1.33-4.33,2-6.48.29-.94.57-1.89.85-2.83q2.68-9.11,5-17.85c.24-.91.47-1.8.7-2.7.53-2,1-4,1.54-6,.25-1,.5-2,.74-3,.48-2,1-3.91,1.41-5.84.2-.85.41-1.71.6-2.55.64-2.72,1.25-5.41,1.83-8q1.53-6.94,2.82-13.46t2.39-12.57q1.08-6,2-11.59c.3-1.85.58-3.66.85-5.41s.51-3.37.74-5c.08-.56.15-1.08.23-1.63.15-1.05.29-2.1.43-3.1.09-.61.16-1.2.24-1.79.12-.89.24-1.79.35-2.65.08-.62.15-1.22.23-1.82.09-.79.19-1.58.28-2.34.08-.6.14-1.17.21-1.75s.17-1.43.25-2.11.12-1.1.18-1.64.14-1.31.21-1.93.1-1,.15-1.5.12-1.19.18-1.75.09-.91.13-1.34.1-1.08.15-1.59.07-.81.11-1.2.08-.94.12-1.39.06-.71.08-1,.07-.82.1-1.21,0-.6.07-.88.05-.69.07-1,0-.49,0-.71,0-.55.06-.8,0-.4,0-.56,0-.45,0-.64,0-.24,0-.33,0-.32,0-.45v-.15a.58.58,0,0,1,0-.17v0l30.45,28.61q-1.83-15-4.07-29.41t-4.85-28.42q-2.61-14-5.57-27.44t-6.24-26.45c-5.47-21.65-11.59-42.29-18.22-61.94-1.68-5-3.41-9.87-5.15-14.73-2.39-6.64-4.83-13.19-7.32-19.6q-6.5-16.64-13.42-32.23-1.74-3.92-3.5-7.77c-1.56-3.41-3.13-6.76-4.71-10.09-.4-.83-.79-1.66-1.19-2.48-1.59-3.31-3.18-6.6-4.79-9.84q-7.27-14.58-14.8-28.15-5-9.06-10.12-17.66t-10.26-16.78q-5.15-8.17-10.35-15.92t-10.39-15.06q-10.39-14.62-20.7-27.58-2.57-3.24-5.12-6.38l-.05-.06c-1.52-1.86-3-3.68-4.54-5.49l-1.09-1.31-.28-.33c-1.12-1.33-2.23-2.65-3.35-4l-.66-.77-.69-.81c-1.5-1.75-3-3.48-4.48-5.17q-10-11.31-19.42-21-7-7.22-13.62-13.57l-.36-.34q-4.34-4.16-8.47-7.94c-1.32-1.2-2.62-2.38-3.9-3.52l-.62-.55c-1.1-1-2.19-1.95-3.27-2.89l-.38-.33c-1.16-1-2.32-2-3.45-3l-.08-.07-3.6-3-.2-.17a202.54,202.54,0,0,1-7.66,23.95c-11.86,30.07-29.07,56.29-48.93,80.26-20.14,23.86-44.25,45.33-72.63,61.17a203.62,203.62,0,0,1-45.47,18.62,190.21,190.21,0,0,1-49.27,6.2c-33.22-.42-67.67-10.56-95.08-32.81a132.65,132.65,0,0,1-47-90.51c-1.36-17.44.91-35.66,8-52.31,7.21-16.84,18.58-30.67,30.52-41.53a239.83,239.83,0,0,1,38.28-27.84,336.28,336.28,0,0,1,40.79-20.73c.32-.14.65-.2,1-.31-.86-2.64-1.64-5.31-2.55-7.93-3-8.62-6.29-17.12-9.69-25.58l-3.47-.71q-13.23-2.61-26.56-4.87l-2.85-.48q-19.12-3.18-38.38-5.71-7.86-1-15.72-1.93l-4.75-.54q-5.71-.64-11.46-1.24l-4.89-.5q-6.9-.69-13.8-1.31c-.66-.05-1.32-.12-2-.18-5.26-.46-10.53-.88-15.8-1.29l-4.43-.32q-5.87-.43-11.73-.81l-5-.32q-6.44-.4-12.88-.75l-3-.17q-7.92-.41-15.86-.75l-4-.16q-6.06-.24-12.11-.45l-5.05-.16q-6.12-.19-12.24-.34l-3.82-.1q-7.94-.18-15.87-.31l-3.51,0q-6.29-.09-12.57-.15l-5.14,0-11.81-.05h-8.41q-15.52,0-31.07.17l-1.93,0q-16.17.18-32.35.49h0l17.46,14.59,21.85,18.25h0s-.6,0-1.71.06l-1.41.06-1.16.07h-.12l-1.45.1L369,207l-2.14.2-.69.07-1.72.17-.88.1-1.89.23-.86.1-2.95.39c-1.78.25-3.68.53-5.68.86-1.45.23-3,.49-4.53.78q-5.88,1.05-12.73,2.6-4.1.94-8.51,2.08c-6.87,1.78-14.28,4-22.12,6.62q-5.7,1.92-11.69,4.21c-1.44.55-2.89,1.11-4.35,1.7-2.87,1.14-5.78,2.33-8.73,3.61q-3,1.29-6.09,2.69c-3.08,1.4-6.2,2.89-9.34,4.44s-6.31,3.14-9.52,4.84q-5.67,3-11.47,6.36-6.44,3.72-13,7.9-5.44,3.48-10.94,7.27-7.6,5.25-15.29,11.15l22.44.41,46.51.86-.11.07-.08,0h0l-.34.2,0,0-.12.07c-.41.24-1,.58-1.72,1l-.34.2-.92.59-.42.27-1.52,1q-1.8,1.2-4.13,2.83-2,1.39-4.32,3.14c-.91.68-1.87,1.41-2.86,2.18l-.76.58c-1.48,1.16-3,2.4-4.67,3.74l-.66.55c-.91.75-1.84,1.53-2.8,2.34-1.26,1.08-2.57,2.22-3.91,3.4l-1,.88c-1.37,1.22-2.76,2.47-4.19,3.8l-.31.29q-1.59,1.49-3.24,3.06c-.77.74-1.56,1.5-2.35,2.28q-3.53,3.43-7.23,7.29l-2.42,2.54c-2.09,2.23-4.22,4.54-6.38,7q-3.88,4.35-7.87,9.14-2.67,3.19-5.37,6.58-5.41,6.79-10.95,14.41Q189,360,186.2,364t-5.57,8.27c-1.86,2.82-3.72,5.73-5.57,8.7q-3.37,5.4-6.72,11.13c-.88,1.49-1.75,3-2.63,4.54a507.5,507.5,0,0,0-23.3,46.25l2.94-1.42L190,419.86l-2.62,15.85q-1.17,6.18-2.23,12.48c-.79,4.77-1.53,9.59-2.23,14.43q-.81,5.61-1.55,11.24T180,485.07c0,.43-.11.87-.16,1.3-.48,4.25-.92,8.52-1.33,12.78q-.5,5.19-.91,10.38-.51,6.24-.89,12.49c-.05.94-.11,1.88-.16,2.82-.25,4.23-.46,8.47-.6,12.7-.08,2.13-.14,4.26-.2,6.39-.26,10.65-.2,21.29.3,31.85q.28,6.33.81,12.63.39,4.77,1,9.51c.37,3.15.81,6.29,1.28,9.42l8.05-17.25.74-1.54.53-1.11.48-1,1.74-3.63c.15-.32.31-.64.47-1l2.71-5.66c.18-.36.35-.72.52-1.08.54-1.13,1.08-2.26,1.61-3.35.41-.86.82-1.7,1.2-2.51l2.49-5.19c.32-.67.58-1.19.78-1.63l.49-1,7.13,15,7.83,16.44L226.1,614.2l26,54.5,7.82,16.41,14.39,30.21h0l-.18.07.8.29q3.83-2.65,7.7-5.23t7.8-5q7.88-5,15.95-9.52c2-1.14,4.06-2.26,6.1-3.37h0c2.71-1.46,5.44-2.87,8.19-4.27h0q5.17-2.62,10.42-5.09,4.2-1.95,8.45-3.8,10.56-4.53,21.41-8.35c4.38-1.54,8.79-3,13.22-4.34q5.88-1.77,11.82-3.3c7.93-2,15.92-3.72,24-5q3.44-.54,6.89-1h0c2.45-.33,4.9-.59,7.35-.84l2.06-.21h0c2.65-.24,5.31-.45,8-.6h0q-5,1.26-10,2.6h0q-6.07,1.62-12.1,3.35-3.56,1-7.1,2.09-11.56,3.51-22.88,7.58-5.65,2.05-11.23,4.27t-11.07,4.63c-2.16,1-4.29,1.94-6.43,2.94q-2.88,1.35-5.73,2.76c-1.36.67-2.74,1.32-4.09,2-1.71.85-3.38,1.76-5.07,2.64-5.39,2.82-10.72,5.73-15.94,8.83q-5.14,3-10.16,6.29a332.34,332.34,0,0,0-29,20.95q-4.65,3.75-9.15,7.65t-8.86,8q-8.71,8.13-16.89,16.77t-15.83,17.71q-7.65,9.07-14.78,18.56t-13.73,19.3q-6.6,9.84-12.68,20t-11.56,20.55c-2.83,5.44-5.49,10.94-8.07,16.46l44.68-4.31,22.67-2.19,4.85-.47h0l-4.79,15.2-3.91,12.38Q230.79,906.51,227,921c-1.52,5.88-2.9,11.8-4.22,17.73-.86,3.84-1.7,7.68-2.47,11.54q-1.53,7.35-2.86,14.75T215,979.9q-1.14,7.43-2.11,14.89t-1.76,15q-1.63,15-2.69,30-.52,7.5-.88,15t-.52,15c-.1,4.3-.14,8.6-.16,12.9l.31-.24c4.41-3.27,8.63-6.42,13.84-10l17.51-11.94,15.1,16.63,2,2.21,2.43,2.57c1.67,1.73,3.4,3.46,5.17,5.18l.26.25c2.3,2.23,4.66,4.42,7.05,6.6,1.21,1.1,2.42,2.21,3.65,3.3,3.75,3.32,7.61,6.56,11.53,9.73s7.91,6.26,11.94,9.31a462.66,462.66,0,0,0,40.47,27.39q2.35,1.41,4.72,2.79,4.72,2.76,9.54,5.39,2.4,1.32,4.83,2.6,4.85,2.57,9.76,5t9.9,4.7q5,2.28,10,4.4a315.12,315.12,0,0,0,36,12.67q5.24,1.47,10.51,2.76,10.55,2.55,21.25,4.25,6.35,1,12.73,1.85l4.23.52c2.86.36,5.71.73,8.58,1l5.07.52c2.61.27,5.22.54,7.83.78l5.4.45c2.52.2,5,.41,7.57.58l5.57.36q3.72.22,7.47.42l5.64.25c2.48.1,5,.19,7.45.27l5.65.15q3.76.08,7.53.11c1.86,0,3.71.05,5.57.05,2.14,0,4.28,0,6.42,0,2.71,0,5.41,0,8.12-.08l6.24-.14q4-.11,8-.25c2.09-.07,4.18-.16,6.26-.25,2.68-.12,5.36-.26,8-.4l6.22-.37q4-.26,8.08-.56l6.11-.46c2.75-.23,5.5-.48,8.24-.73l5.87-.55q4.3-.43,8.58-.92c1.83-.2,3.65-.39,5.47-.6,3.16-.37,6.31-.78,9.45-1.19l4.5-.57q7-.94,13.86-2,5.5-.84,11-1.81l1-.19q5.31-.94,10.6-2l0,0c.53-.79,1.08-1.55,1.6-2.36l1.57-2.41c1-1.64,2.06-3.28,3-5a221.39,221.39,0,0,0,11-21.26,363.66,363.66,0,0,0,17.07-46.67c4.78-16.13,8.76-32.66,12.11-49.36Q742,1043,744,1030.34q1-6.33,1.9-12.64.44-3.16.83-6.31l.39-3.13.34-3h0l3.19-32.41,22,20.2,8.7,8,.09-1.78c.41-8.41.76-16.83,1-25.25.48-16.84.61-33.7.14-50.51a497.09,497.09,0,0,0-3.7-50.2c-.54-4.15-1.19-8.28-1.87-12.4l-2-12.39c-.7-4.13-1.43-8.27-2.18-12.45s-1.56-8.38-2.3-12.74c0,0,24,29.4,30.08,99,1.5,17.28,2.82,34.54,3.13,51.83.15,8.65.15,17.3,0,25.94-.09,4.33-.27,8.65-.45,13-.09,2.17-.22,4.33-.35,6.51l-.21,3.26-.12,1.64-.14,1.7h0l-1.07,21.4L778,1031.18c-.1,1.12-.19,2.25-.29,3.37q-1.25,13.41-3,26.77c-2.35,17.83-5.39,35.63-9.37,53.39a406.15,406.15,0,0,1-15.51,53.07c0,.1-.1.2-.14.3l.84-.26c1.87-.58,3.73-1.18,5.59-1.78l3.3-1.09c1.66-.55,3.33-1.1,5-1.67l1-.34,3.12-1.09,3.74-1.31,2.58-.92,1.45-.54,4.48-1.64,2.6-1,2.37-.91q2.31-.87,4.6-1.77l1.67-.66,2.68-1.06,5.51-2.24.82-.34,2.53-1c3-1.24,5.9-2.48,8.84-3.76q9.74-4.23,19.32-8.77,12.78-6,25.29-12.59t24.68-13.53q20.48-11.73,39.84-25,6.43-4.42,12.72-9t12.41-9.4q6.18-4.71,12.29-9.48c8.15-6.38,16.16-12.88,23.92-19.68l33.21-29.12,3.53,42.26c.2,2.47.43,4.94.66,7.4q.43,4.44.88,8.87.42,4.07.86,8.13c.28,2.71.57,5.42.84,8.13,1.41-1.67,2.79-3.34,4.16-5,1.93-2.37,3.85-4.74,5.73-7.13.78-1,1.56-2,2.33-3q6.56-8.48,12.63-17.1c1-1.41,2-2.81,2.94-4.22q3.24-4.71,6.34-9.43,4-6.09,7.75-12.21C1066,1022.58,1067.34,1020.4,1068.64,1018.23Z"/><path class="cls-2" d="M913.77,243.81c-.16-.67-.3-1.36-.48-2-6.07-23.74-22.5-47-39.31-70.39a762.06,762.06,0,0,0-54.36-66.55A773.28,773.28,0,0,0,758,44.72C747.48,35.43,737.23,28.09,727.53,27c-9.71-1.4-21.35,3.06-32.39,10.39a178.82,178.82,0,0,0-16.23,12.26c-5,4.27-9.2,8.69-11.86,13.23a26.2,26.2,0,0,0-3.77,14.47c0,5.3,1.64,11.19,3.94,17.18,4.68,11.92,12.61,24.59,19.28,38.12,5.62,11.3,10.76,22.82,15.59,34.47.9,2.17,1.81,4.33,2.69,6.51q5.51,14.13,10.07,28.57a519.21,519.21,0,0,1,14.66,57.37c5.24,29.31,7.24,59.29,3.42,88.86-3.77-14.44-6.94-28.7-10.33-42.83-3.56-14.11-7-28.12-10.76-42-.43-1.54-.88-3.06-1.32-4.6-23.29,13.5-45.94,28.36-63.09,46.45-9,9.47-16,19.24-19.69,29.69a75.54,75.54,0,0,0-3.44,33.93c2.93,23.27,15.39,46.31,33.55,60.54C676.21,444.3,701,451.85,726,452.23A145.81,145.81,0,0,0,763.67,448a160.73,160.73,0,0,0,35.75-14.18c23-12.44,43.64-30.14,61.45-50.75s33.87-43.57,44.1-67.8a142.41,142.41,0,0,0,9.95-34.2v0A97.34,97.34,0,0,0,913.77,243.81Z"/><path class="cls-3" d="M1173.68,720.52q2.61,14,4.85,28.42Q1176.3,734.48,1173.68,720.52Z"/><path class="cls-3" d="M434.21,655.71c-7.44,1.87-14.83,3.84-22.15,6,7.33-2.12,14.71-4.09,22.15-6Z"/><path class="cls-3" d="M1102.47,951.39q-2.1,4.89-4.3,9.83Q1100.38,956.28,1102.47,951.39Z"/><path class="cls-3" d="M1116.12,916.44q-5.25,14.73-11.54,29.92Q1110.88,931.2,1116.12,916.44Z"/><path class="cls-3" d="M265.33,742.28q4.35-4.06,8.86-8-4.5,3.9-8.86,8a398.83,398.83,0,0,0-32.72,34.48A398.83,398.83,0,0,1,265.33,742.28Z"/><polygon class="cls-3" points="239.14 865.1 243.99 864.63 243.99 864.63 239.14 865.1"/><path class="cls-3" d="M1168.11,693.08q3,13.47,5.57,27.44Q1171.07,706.56,1168.11,693.08Z"/><path class="cls-3" d="M1050.61,1046.39c-1,1.41-1.95,2.81-2.94,4.22C1048.66,1049.2,1049.64,1047.8,1050.61,1046.39Z"/><path class="cls-3" d="M274.88,715.68q3.83-2.65,7.7-5.23-3.88,2.58-7.7,5.23Z"/><polygon class="cls-3" points="259.87 685.11 259.87 685.11 274.26 715.32 274.26 715.32 259.87 685.11"/><path class="cls-3" d="M1096.17,965.64c-4,8.72-8.24,17.48-12.82,26.25C1087.93,983.12,1092.18,974.36,1096.17,965.64Z"/><path class="cls-3" d="M1064.7,1024.75q-3.77,6.12-7.75,12.21Q1060.94,1030.87,1064.7,1024.75Z"/><path class="cls-3" d="M1068.39,445.36q5.16,8.17,10.26,16.78Q1073.55,453.53,1068.39,445.36Z"/><path class="cls-3" d="M1035,1067.71c-.77,1-1.55,2-2.33,3C1033.49,1069.71,1034.27,1068.71,1035,1067.71Z"/><path class="cls-3" d="M285.75,1107c3.92,3.17,7.91,6.26,11.94,9.31a462.66,462.66,0,0,0,40.47,27.39,462.66,462.66,0,0,1-40.47-27.39C293.66,1113.29,289.67,1110.2,285.75,1107Z"/><path class="cls-3" d="M1078.65,462.14q5.1,8.61,10.12,17.66Q1083.76,470.74,1078.65,462.14Z"/><path class="cls-3" d="M659.58,191.17q13.32,2.27,26.56,4.87Q672.91,193.43,659.58,191.17Z"/><path class="cls-3" d="M1161.87,666.63q3.29,13,6.24,26.45Q1165.16,679.61,1161.87,666.63Z"/><path class="cls-3" d="M973.29,327.6l.36.34Z"/><path class="cls-3" d="M222.82,938.77c-.86,3.84-1.7,7.68-2.47,11.54Q217.29,965,215,979.9q2.3-14.88,5.34-29.59C221.12,946.45,222,942.61,222.82,938.77Z"/><path class="cls-3" d="M239.2,879.83l-3.91,12.38Q230.79,906.51,227,921q3.74-14.52,8.25-28.83Z"/><path class="cls-3" d="M212.9,994.79q-1,7.47-1.76,15-1.63,15-2.69,30,1-15,2.69-30Q211.94,1002.26,212.9,994.79Z"/><path class="cls-3" d="M1103.57,508q7.26,14.58,14.19,30.18Q1110.85,522.53,1103.57,508Z"/><path class="cls-3" d="M1131.18,570.36c2.49,6.41,4.93,13,7.32,19.6C1136.11,583.32,1133.67,576.77,1131.18,570.36Z"/><path class="cls-3" d="M982.84,1037.18c-7.76,6.8-15.77,13.3-23.92,19.68,8.15-6.38,16.16-12.88,23.92-19.68l33.21-29.12h0Z"/><path class="cls-3" d="M571.77,1195.41l-6.24.14Z"/><path class="cls-3" d="M467.43,1190.14q-6.39-.87-12.73-1.85Q461,1189.28,467.43,1190.14Z"/><path class="cls-3" d="M586.07,1194.91c-2.08.09-4.17.18-6.26.25C581.9,1195.09,584,1195,586.07,1194.91Z"/><path class="cls-3" d="M553.27,1195.67c1.38,0,2.76,0,4.14,0-2.14,0-4.28,0-6.42,0Z"/><path class="cls-3" d="M270.57,1094c-2.39-2.18-4.75-4.37-7.05-6.6C265.82,1089.63,268.18,1091.82,270.57,1094Z"/><path class="cls-3" d="M352.42,1151.91q-4.82-2.62-9.54-5.39Q347.6,1149.28,352.42,1151.91Z"/><path class="cls-3" d="M367,1159.51q-4.92-2.43-9.76-5Q362.1,1157.08,367,1159.51Z"/><path class="cls-3" d="M532.24,1195.34c-2.48-.08-5-.17-7.45-.27C527.27,1195.17,529.76,1195.26,532.24,1195.34Z"/><path class="cls-3" d="M480.24,1191.71c-2.87-.32-5.72-.69-8.58-1C474.52,1191,477.37,1191.39,480.24,1191.71Z"/><path class="cls-3" d="M506.11,1194c-2.53-.17-5.05-.38-7.57-.58C501.06,1193.66,503.58,1193.86,506.11,1194Z"/><path class="cls-3" d="M545.42,1195.6q-3.76,0-7.53-.11Q541.66,1195.57,545.42,1195.6Z"/><path class="cls-3" d="M493.14,1193c-2.61-.24-5.22-.51-7.83-.78C487.92,1192.5,490.53,1192.77,493.14,1193Z"/><path class="cls-3" d="M322.52,699.43c5.22-3.1,10.55-6,15.94-8.83C333.07,693.42,327.74,696.33,322.52,699.43Z"/><path class="cls-3" d="M642.67,1190.32c-1.82.21-3.64.4-5.47.6C639,1190.72,640.85,1190.53,642.67,1190.32Z"/><path class="cls-3" d="M217.83,795.32q7.13-9.48,14.78-18.56Q225,785.83,217.83,795.32Z"/><path class="cls-3" d="M283.34,726.67a332.34,332.34,0,0,1,29-20.95A332.34,332.34,0,0,0,283.34,726.67Z"/><path class="cls-3" d="M600.32,1194.14l-6.22.37Z"/><path class="cls-3" d="M656.62,1188.56l-4.5.57Z"/><path class="cls-3" d="M1021.12,1066.59q-.45-4.42-.88-8.87Q1020.68,1062.16,1021.12,1066.59Z"/><path class="cls-3" d="M374.14,666.66c-4.43,1.34-8.84,2.8-13.22,4.34C365.3,669.46,369.71,668,374.14,666.66Z"/><path class="cls-3" d="M263.26,1087.15h0c-1.77-1.72-3.5-3.45-5.17-5.18C259.76,1083.7,261.49,1085.43,263.26,1087.15Z"/><path class="cls-3" d="M614.51,1193.12l-6.11.46Z"/><path class="cls-3" d="M171.79,871.6c2.58-5.52,5.24-11,8.07-16.46C177,860.58,174.37,866.08,171.79,871.6Z"/><path class="cls-3" d="M628.62,1191.84l-5.87.55Z"/><path class="cls-3" d="M204.1,814.62q6.6-9.81,13.73-19.3Q210.71,804.8,204.1,814.62Z"/><path class="cls-3" d="M222.31,319.05l2.42-2.54Z"/><path class="cls-3" d="M219.12,264.24q5.5-3.8,10.94-7.27Q224.63,260.45,219.12,264.24Z"/><path class="cls-3" d="M243.06,249.07q5.79-3.36,11.47-6.36Q248.86,245.71,243.06,249.07Z"/><path class="cls-3" d="M288.21,227.13c1.46-.59,2.91-1.15,4.35-1.7C291.12,226,289.67,226.54,288.21,227.13Z"/><path class="cls-3" d="M249.75,293.17l.66-.55Z"/><path class="cls-3" d="M255.08,288.88l.76-.58Z"/><path class="cls-3" d="M410.92,173.07l11.81.05Z"/><path class="cls-3" d="M237.55,303.88l.31-.29Z"/><path class="cls-3" d="M444,173.35q7.94.14,15.87.31Q451.89,173.48,444,173.35Z"/><path class="cls-3" d="M427.87,173.16q6.28.06,12.57.15Q434.16,173.22,427.87,173.16Z"/><path class="cls-3" d="M404.72,173.05l-2.21,0h2.21Z"/><path class="cls-3" d="M369.51,173.26l1.93,0Z"/><path class="cls-3" d="M191.15,581.85c-.16.33-.32.65-.47,1C190.83,582.5,191,582.18,191.15,581.85Z"/><path class="cls-3" d="M618.35,185q19.24,2.53,38.38,5.71Q637.61,187.51,618.35,185Z"/><path class="cls-3" d="M168.34,392.08q3.34-5.73,6.72-11.13Q171.69,386.35,168.34,392.08Z"/><path class="cls-3" d="M199.68,564.06l-2.49,5.19Z"/><path class="cls-3" d="M232,309.22c.79-.78,1.57-1.54,2.35-2.28C233.53,307.68,232.75,308.44,232,309.22Z"/><path class="cls-3" d="M519.15,1194.82q-3.75-.19-7.47-.42Q515.4,1194.63,519.15,1194.82Z"/><path class="cls-3" d="M208.06,335.16q4-4.8,7.87-9.14Q212,330.37,208.06,335.16Z"/><path class="cls-3" d="M186.2,364q2.78-4,5.54-7.83Q189,360,186.2,364Z"/><path class="cls-3" d="M175.06,381c1.85-3,3.71-5.88,5.57-8.7C178.77,375.07,176.91,378,175.06,381Z"/><path class="cls-3" d="M194.38,575.11c-.17.36-.34.72-.52,1.08C194,575.83,194.21,575.47,194.38,575.11Z"/><path class="cls-3" d="M176.09,575.78q.28,6.33.81,12.63.39,4.77,1,9.51-.57-4.74-1-9.51Q176.38,582.11,176.09,575.78Z"/><path class="cls-3" d="M533.8,176.86q5.87.38,11.73.81Q539.67,177.24,533.8,176.86Z"/><path class="cls-3" d="M165.71,396.62a507.5,507.5,0,0,0-23.3,46.25l2.94-1.42-2.94,1.42A507.5,507.5,0,0,1,165.71,396.62Z"/><path class="cls-3" d="M497.05,174.87q7.93.34,15.86.75Q505,175.21,497.05,174.87Z"/><path class="cls-3" d="M480.93,174.26q6.06.21,12.11.45Q487,174.47,480.93,174.26Z"/><path class="cls-3" d="M550,178c5.27.41,10.54.83,15.8,1.29C560.5,178.82,555.23,178.4,550,178Z"/><path class="cls-3" d="M183,462.62c-1.15,7.9-2.18,15.85-3.08,23.75-.48,4.25-.92,8.52-1.33,12.78.41-4.26.85-8.53,1.33-12.78C180.78,478.47,181.81,470.52,183,462.62Z"/><path class="cls-3" d="M516,175.79q6.45.35,12.88.75Q522.4,176.14,516,175.79Z"/><path class="cls-3" d="M602.63,183.05q7.86.91,15.72,1.93Q610.49,184,602.63,183.05Z"/><path class="cls-3" d="M1117.37,912.9c31.42-89.82,34.78-163.16,34.78-163.16l30.45,28.61h0l-30.45-28.61S1148.79,823.08,1117.37,912.9Z"/><path class="cls-3" d="M586.42,181.27q5.75.6,11.46,1.24Q592.17,181.87,586.42,181.27Z"/><path class="cls-3" d="M567.73,179.46q6.9.61,13.8,1.31Q574.63,180.08,567.73,179.46Z"/><polygon class="cls-3" points="354.62 188.34 337.16 173.75 337.16 173.75 337.16 173.75 354.62 188.34 376.47 206.59 376.47 206.59 354.62 188.34"/><path class="cls-3" d="M179.14,607.34l8.05-17.25.74-1.54-.74,1.54Z"/><path class="cls-3" d="M463.64,173.76q6.12.15,12.24.34Q469.76,173.91,463.64,173.76Z"/><polygon class="cls-3" points="226.1 614.2 252.05 668.7 252.05 668.7 226.1 614.2"/><path class="cls-3" d="M199.68,564.06l1.27-2.65,7.13,15-7.13-15Z"/><path class="cls-2" d="M213.75,656.66l-8.48-22.4-4.22-11.16-1.27,2.71-11.16,24-3.52,7.54L181,666.07l-2.82,6s-6-9.67-12.28-28.63c-8.48-25.56-17.49-68.08-13.22-126.88a471.07,471.07,0,0,1,7.77-57.18l-16.72,9.29L107.29,489s7.53-46.65,34.2-98.08q2.92-5.65,6.18-11.37c-4.49-13.77-11.16-34.55-13.8-43.5l-3.42-11.86a58.27,58.27,0,0,0-3.84-9.6,63.05,63.05,0,0,0-12.29-16.71,60.19,60.19,0,0,0-16.84-11.54,49.42,49.42,0,0,0-19-4.36c-12.95-.21-26.53,5.23-34.69,14.15a32.9,32.9,0,0,0-5.06,7.15,29.76,29.76,0,0,0-1.7,3.89c-.35,1.35-.8,2.52-1.11,4.29a162.42,162.42,0,0,0-2.64,22.39c-1,15.77-.91,32-.6,48.23.81,32.47,3.09,65.08,6.52,97.45s8,64.67,15.11,95.65c3.62,15.36,7.83,30.51,14,43.11S82.67,641,93.84,650.34c4,3.45,9.94,6.67,16.55,9.71s13.8,5.74,21.19,8.29c14.77,5.13,30.56,9.46,46.71,14.62,15.57,4.9,31.13,9.54,46.88,14,.09,0,1.87.71,4.49,1.73Z"/><path class="cls-3" d="M892.73,410.31c-20.14,23.86-44.25,45.33-72.63,61.17a203.62,203.62,0,0,1-45.47,18.62,190.21,190.21,0,0,1-49.27,6.2c-33.22-.42-67.67-10.56-95.08-32.81a132.65,132.65,0,0,1-47-90.51c-1.36-17.44.91-35.66,8-52.31,7.21-16.84,18.58-30.67,30.52-41.53a239.83,239.83,0,0,1,38.28-27.84,336.28,336.28,0,0,1,40.79-20.73c.32-.14.65-.2,1-.31-.86-2.64-1.64-5.31-2.55-7.93-3-8.62-6.29-17.12-9.69-25.58l-3.47-.71q-13.23-2.61-26.56-4.87l-2.85-.48q-19.12-3.18-38.38-5.71-7.86-1-15.72-1.93l-4.75-.54q-5.71-.64-11.46-1.24l-4.89-.5q-6.9-.69-13.8-1.31c-.66-.05-1.32-.12-2-.18-5.26-.46-10.53-.88-15.8-1.29l-4.43-.32q-5.87-.43-11.73-.81l-5-.32q-6.44-.4-12.88-.75l-3-.17q-7.92-.41-15.86-.75l-4-.16q-6.06-.24-12.11-.45l-5.05-.16q-6.12-.19-12.24-.34l-3.82-.1q-7.94-.18-15.87-.31l-3.51,0q-6.29-.09-12.57-.15l-5.14,0-11.81-.05h-6.2l-2.21,0q-15.52,0-31.07.17l-1.93,0q-16.17.18-32.35.49h0l17.46,14.59,21.85,18.25h0s-.6,0-1.71.06l-1.41.06c-.78,0-1.68.1-2.73.18-2.09.15-4.71.39-7.81.75s-6.67.85-10.67,1.5c-1.45.23-3,.49-4.53.78q-5.88,1.05-12.73,2.6-4.1.94-8.51,2.08c-6.87,1.78-14.28,4-22.12,6.62q-5.7,1.92-11.69,4.21c-1.44.55-2.89,1.11-4.35,1.7-2.87,1.14-5.78,2.33-8.73,3.61-8.05,3.46-16.4,7.44-25,12q-5.67,3-11.47,6.36-6.44,3.72-13,7.9-5.43,3.48-10.94,7.27-7.6,5.25-15.29,11.15l22.44.41,46.51.86s-2,1.1-5.63,3.49q-1.8,1.2-4.13,2.83-2,1.39-4.32,3.14c-.91.68-1.87,1.41-2.86,2.18l-.76.58c-1.48,1.16-3,2.4-4.67,3.74l-.66.55c-.91.75-1.84,1.53-2.8,2.34-2.85,2.43-5.89,5.12-9.09,8.08l-.31.29q-1.59,1.49-3.24,3.06c-.77.74-1.56,1.5-2.35,2.28q-3.53,3.43-7.23,7.29l-2.42,2.54c-2.09,2.23-4.22,4.54-6.38,7q-3.88,4.35-7.87,9.14-2.67,3.19-5.37,6.58-5.41,6.79-10.95,14.41Q189,360,186.2,364t-5.57,8.27c-1.86,2.82-3.72,5.73-5.57,8.7q-3.37,5.4-6.72,11.13c-.88,1.49-1.75,3-2.63,4.54a507.5,507.5,0,0,0-23.3,46.25l2.94-1.42L190,419.86l-2.62,15.85q-1.17,6.18-2.23,12.48c-.79,4.77-1.53,9.59-2.23,14.43-1.15,7.9-2.18,15.85-3.08,23.75-.48,4.25-.92,8.52-1.33,12.78q-.5,5.19-.91,10.38c-.76,9.34-1.33,18.68-1.65,28-.08,2.13-.14,4.26-.2,6.39-.26,10.65-.2,21.29.3,31.85q.28,6.33.81,12.63.39,4.77,1,9.51c.37,3.15.81,6.29,1.28,9.42l8.05-17.25.74-1.54.53-1.11c.6-1.23,1.36-2.83,2.22-4.62.15-.32.31-.64.47-1l2.71-5.66c.18-.36.35-.72.52-1.08.54-1.13,1.08-2.26,1.61-3.35.41-.86.82-1.7,1.2-2.51l2.49-5.19,1.27-2.65,7.13,15,7.83,16.44L226.1,614.2l26,54.5h0l7.82,16.41h0l14.39,30.21-.18.07.8.29h0q3.83-2.65,7.7-5.23t7.8-5q7.88-5,15.95-9.52c2-1.14,4.06-2.26,6.1-3.37q9.18-4.95,18.63-9.37,4.2-1.95,8.45-3.8,10.56-4.53,21.41-8.35c4.38-1.54,8.79-3,13.22-4.34q5.88-1.77,11.82-3.3c7.93-2,15.92-3.72,24-5q3.44-.54,6.89-1c5.78-.76,11.57-1.33,17.39-1.65h0c-7.44,1.87-14.83,3.84-22.15,6q-3.56,1-7.1,2.09-11.56,3.51-22.88,7.58-5.65,2.05-11.23,4.27t-11.07,4.63c-4.1,1.81-8.14,3.72-12.16,5.7-1.36.67-2.74,1.32-4.09,2-1.71.85-3.38,1.76-5.07,2.64-5.39,2.82-10.72,5.73-15.94,8.83q-5.14,3-10.16,6.29a332.34,332.34,0,0,0-29,20.95q-4.65,3.75-9.15,7.65t-8.86,8a398.83,398.83,0,0,0-32.72,34.48q-7.65,9.07-14.78,18.56t-13.73,19.3q-6.6,9.84-12.68,20t-11.56,20.55c-2.83,5.44-5.49,10.94-8.07,16.46l44.68-4.31,22.67-2.19,4.85-.47h0l-4.79,15.2-3.91,12.38Q230.79,906.51,227,921c-1.52,5.88-2.9,11.8-4.22,17.73-.86,3.84-1.7,7.68-2.47,11.54Q217.29,965,215,979.9q-1.14,7.43-2.11,14.89t-1.76,15q-1.63,15-2.69,30-.52,7.5-.88,15t-.52,15c-.1,4.3-.14,8.6-.16,12.9l.31-.24c4.41-3.27,8.63-6.42,13.84-10l17.51-11.94,15.1,16.63,2,2.21,2.43,2.57c1.67,1.73,3.4,3.46,5.17,5.18l.26.25c2.3,2.23,4.66,4.42,7.05,6.6,1.21,1.1,2.42,2.21,3.65,3.3,3.75,3.32,7.61,6.56,11.53,9.73s7.91,6.26,11.94,9.31a462.66,462.66,0,0,0,40.47,27.39q2.35,1.41,4.72,2.79,4.72,2.76,9.54,5.39,2.4,1.32,4.83,2.6,4.85,2.57,9.76,5t9.9,4.7q5,2.28,10,4.4a315.12,315.12,0,0,0,36,12.67q5.24,1.47,10.51,2.76,10.55,2.55,21.25,4.25,6.35,1,12.73,1.85l4.23.52c2.86.36,5.71.73,8.58,1l5.07.52c2.61.27,5.22.54,7.83.78l5.4.45c2.52.2,5,.4,7.57.58l5.57.36q3.72.22,7.47.42l5.64.25c2.48.1,5,.19,7.45.27l5.65.15q3.76.08,7.53.11c1.86,0,3.71.05,5.57.05l2.28,0c1.38,0,2.76,0,4.14,0,2.71,0,5.41,0,8.12-.08l6.24-.14q4-.11,8-.25c2.09-.07,4.18-.16,6.26-.25,2.68-.12,5.36-.26,8-.4l6.22-.37q4-.26,8.08-.56l6.11-.46c2.75-.23,5.5-.48,8.24-.73l5.87-.55q4.3-.43,8.58-.92c1.83-.2,3.65-.39,5.47-.6,3.16-.37,6.31-.78,9.45-1.19l4.5-.57q7-.94,13.86-2c48.72-7.43,96.46-22.13,141.89-41.89q9.74-4.23,19.32-8.77,12.78-6,25.29-12.59t24.68-13.53q20.48-11.73,39.84-25,6.43-4.42,12.72-9t12.41-9.4q6.18-4.71,12.29-9.48c8.15-6.38,16.16-12.88,23.92-19.68l33.21-29.12h0l3.53,42.26c.2,2.47.43,4.94.66,7.4q.43,4.44.88,8.87.42,4.07.86,8.13c.28,2.71.57,5.42.84,8.13,1.41-1.67,2.78-3.34,4.15-5q2.91-3.55,5.74-7.14c.78-1,1.56-2,2.33-3q6.56-8.48,12.63-17.1c1-1.41,2-2.81,2.94-4.22q3.24-4.71,6.34-9.43,4-6.09,7.75-12.21,2.52-4.08,4.94-8.19,4.84-8.2,9.33-16.44,2.23-4.11,4.38-8.23c4.58-8.77,8.83-17.53,12.82-26.25.68-1.48,1.34-2.95,2-4.42q2.2-4.94,4.3-9.83c.71-1.68,1.42-3.35,2.11-5q6.3-15.17,11.54-29.92c.42-1.18.84-2.36,1.25-3.54,31.42-89.82,34.78-163.16,34.78-163.16l30.45,28.61h0q-1.83-15-4.07-29.41t-4.85-28.42q-2.61-14-5.57-27.44t-6.24-26.45c-5.47-21.65-11.59-42.29-18.22-61.94-1.68-5-3.41-9.87-5.15-14.73-2.39-6.64-4.83-13.19-7.32-19.6q-6.5-16.64-13.42-32.23T1103.57,508q-7.27-14.58-14.8-28.15-5-9.06-10.12-17.66t-10.26-16.78q-5.15-8.17-10.35-15.92t-10.39-15.06q-10.39-14.62-20.7-27.58-2.57-3.24-5.12-6.38-7.67-9.41-15.14-17.89-10-11.31-19.42-21-7-7.22-13.62-13.57l-.36-.34q-4.34-4.16-8.47-7.94c-5-4.53-9.68-8.67-14.14-12.42l-1.36-1.14a202.54,202.54,0,0,1-7.66,23.95C929.8,360.12,912.59,386.34,892.73,410.31Z"/><path class="cls-3" d="M205.27,634.26l-4.22-11.16-1.27,2.71-11.16,24-3.52,7.54L181,666.07l-2.82,6s-6-9.67-12.28-28.63c-8.48-25.56-17.49-68.08-13.22-126.88a471.07,471.07,0,0,1,7.77-57.18l-16.72,9.29L107.29,489s7.53-46.65,34.2-98.08q2.92-5.65,6.18-11.37c-4.49-13.77-11.16-34.55-13.8-43.5l-3.42-11.86a58.27,58.27,0,0,0-3.84-9.6,63.05,63.05,0,0,0-12.29-16.71,60.19,60.19,0,0,0-16.84-11.54,49.42,49.42,0,0,0-19-4.36c-12.95-.21-26.53,5.23-34.69,14.15a32.9,32.9,0,0,0-5.06,7.15,29.76,29.76,0,0,0-1.7,3.89c-.35,1.35-.8,2.52-1.11,4.29a162.42,162.42,0,0,0-2.64,22.39c-1,15.77-.91,32-.6,48.23.81,32.47,3.09,65.08,6.52,97.45s8,64.67,15.11,95.65c3.62,15.36,7.83,30.51,14,43.11S82.67,641,93.84,650.34c4,3.45,9.94,6.67,16.55,9.71s13.8,5.74,21.19,8.29c14.77,5.13,30.56,9.46,46.71,14.62,15.57,4.9,31.13,9.54,46.88,14,.09,0,1.87.71,4.49,1.73l-15.91-42.05Z"/><path class="cls-4" d="M317,497.58a26.5,26.5,0,0,0,25.5-38.06L292.85,477A26.52,26.52,0,0,0,317,497.58Z"/><path class="cls-4" d="M448.07,416.15a26.51,26.51,0,1,0,45.19-26.27Z"/><path class="cls-2" d="M486.76,533.45c3.2-.09,6.42.1,9.61.25l.24,0-19.73-23.22L462.55,536.7a114.32,114.32,0,0,1,14.61-2.62C480.37,533.83,483.53,533.41,486.76,533.45Z"/><path class="cls-4" d="M515.31,537.76l-.22-.08a77.66,77.66,0,0,0-18.48-3.95l-.24,0c-3.19-.15-6.41-.34-9.61-.25s-6.39.38-9.6.63a114.32,114.32,0,0,0-14.61,2.62c-1.4.33-2.79.67-4.18,1-6.12,1.76-12.09,3.92-17.95,6.26-5.78,2.57-11.45,5.3-16.93,8.37a168.9,168.9,0,0,0-15.8,10.13c-10.12,7.31-19.57,15.53-27.41,25.41l-.14.18a1.06,1.06,0,0,0,1.52,1.46c4.55-3.95,9.37-7.68,14.26-11.28s10-6.84,15.22-10a248.44,248.44,0,0,1,32.36-16.77q8.44-3.45,17.17-6.16A174.09,174.09,0,0,1,478.4,541a139.51,139.51,0,0,1,18.13-1.93,114.15,114.15,0,0,1,18.2,1,1.22,1.22,0,0,0,1.3-.78A1.21,1.21,0,0,0,515.31,537.76Z"/><path class="cls-4" d="M1204.24,758.77c-37.91-309.14-195.7-449.38-250.13-489.46,0-4.08-.16-8.19-.41-12.28A139.71,139.71,0,0,0,949,231.8c-4.87-16.38-12.61-31-21.06-44.12s-17.52-25-26.67-36.84a791.68,791.68,0,0,0-59-67.49A806,806,0,0,0,776.25,23,148.44,148.44,0,0,0,756.48,9C749,4.7,740.1,1.1,730.35.24a61.15,61.15,0,0,0-27.41,4,103.73,103.73,0,0,0-22.05,11.93,202.39,202.39,0,0,0-18.54,14.5c-6,5.34-12.1,11.6-16.77,19.78A51.26,51.26,0,0,0,638.88,78c.26,9.38,2.84,17.79,5.82,25.39a192.08,192.08,0,0,0,10.31,21l10.31,19q4.77,9,9.13,18.29-25.16-4.48-52-8c-63.84-8.32-133-12.19-217.74-12.19-20.84,0-43.13.22-68.15.69l-84.38,1.58,61.88,47.78C197.88,221.13,148.65,299.91,148.65,299.91h67c-20.73,15.66-37.68,34.33-51.5,53.75l-4.71-17.37c-1-3.77-2.07-7.5-3-11.41l-1.4-5.8c-.26-1-.38-1.69-.88-3.42-.4-1.4-.83-2.77-1.29-4.13a87.37,87.37,0,0,0-16.75-29c-.9-1-1.76-2-2.74-3.06s-2.1-2.15-3.12-3.12a85.25,85.25,0,0,0-6.56-5.64c-2.27-1.76-4.62-3.41-7-4.93-1.21-.76-2.44-1.5-3.68-2.19s-2.44-1.34-4-2.12l-2.26-1.05-2-.86c-1.35-.56-2.72-1.1-4.14-1.59a75.13,75.13,0,0,0-8.85-2.56,73,73,0,0,0-19.19-1.68,77.54,77.54,0,0,0-36,10.59,71.38,71.38,0,0,0-8.31,5.78,70.32,70.32,0,0,0-7.71,7.33,61.79,61.79,0,0,0-6.78,9.06,45.5,45.5,0,0,0-2.58,4.76q-1.18,2.48-2.28,5l-.42,1-.68,2.48-1.51,5.51c-.25,1-.31,1.22-.53,2.26l-.55,2.67c-.67,3.5-1.17,6.79-1.59,10-.84,6.36-1.38,12.2-1.85,18.15C.81,350.08.4,361.66.18,373,.06,378.59,0,384.38,0,390.08L.12,407c.16,11.29.46,22.58,1.1,33.83Q3,474.6,6.54,508.33C9,530.86,11.93,553.64,16.7,576.47a358.73,358.73,0,0,0,9,35.64A186.2,186.2,0,0,0,33,631.43a131.36,131.36,0,0,0,11.08,20.09,127.16,127.16,0,0,0,14.61,17.89q4,4,8,7.55l1.85,1.59,2.55,2.13c2.28,1.83,4.37,3.28,6.33,4.57A115.12,115.12,0,0,0,88,691.33l4.73,2.32c1.62.8,3.08,1.36,4.55,2l17.77,7,4.43,1.7,4.27,1.45,8.41,2.73c5.54,1.75,10.92,3.42,16.19,4.93l31.33,9.21c10.75,3.13,21.51,6.25,32.31,9.18a73.29,73.29,0,0,1,7.79,2.58l7.61,2.77,2.39.87c-10.68,9.3-28.48,27.15-51.86,59a478.58,478.58,0,0,0-26,43.43c-2.87,5.53-5.71,11.31-8.74,17.82l-23.28,50,54.88-5.3,25.1-2.42c-4.06,14.45-7.57,29.05-10.48,43.58-4.08,19.61-7.34,40.65-9.64,62.28-2.43,22.27-3.82,42.8-4.26,62.71-.1,4.45-.15,9-.17,13.45l-.29,63.81,50.85-38.56.57-.42c2.42-1.8,4.77-3.54,7.23-5.31l1.49,1.56c2.1,2.18,4.07,4.16,6.09,6.12,3.77,3.67,7.84,7.44,12.06,11.16,7.35,6.51,15.65,13.25,25.33,20.56,55.83,42.16,115,69.11,171.1,77.93a668.11,668.11,0,0,0,103.47,7.77,811.6,811.6,0,0,0,122-9.46c73.71-11.25,148.44-38.36,222.11-80.6a591.93,591.93,0,0,0,55.53-36l.18-.13.18-.14,1.84-1.39c11.54-8.73,23.37-17.67,35-27.14.18,1.63.35,3.25.52,4.86l.92,8.84L999,1159.9l65-72.66c93.44-118.92,97.66-209,110.43-280.3l38.19,38.25Zm-537-664.25c-2.3-6-3.9-11.88-3.94-17.18a26.2,26.2,0,0,1,3.77-14.47c2.66-4.54,6.87-9,11.86-13.23a178.82,178.82,0,0,1,16.23-12.26c11-7.33,22.68-11.79,32.39-10.39,9.7,1.1,20,8.44,30.49,17.73a773.28,773.28,0,0,1,61.6,60.12A762.06,762.06,0,0,1,874,171.39c16.81,23.36,33.24,46.65,39.31,70.39.18.67.32,1.36.48,2A97.24,97.24,0,0,1,914.92,281a142.41,142.41,0,0,1-9.95,34.2c-10.23,24.23-26.19,47.19-44.1,67.8s-38.5,38.31-61.45,50.75A160.73,160.73,0,0,1,763.67,448,145.81,145.81,0,0,1,726,452.23c-25.07-.38-49.81-7.93-68.17-22.64-18.16-14.23-30.62-37.27-33.55-60.54a75.54,75.54,0,0,1,3.44-33.93c3.67-10.45,10.69-20.22,19.69-29.69,17.15-18.09,39.8-32.95,63.09-46.45.44,1.54.89,3.06,1.32,4.6,3.78,13.89,7.2,27.9,10.76,42,3.39,14.13,6.56,28.39,10.33,42.83,3.82-29.57,1.82-59.55-3.42-88.86a519.21,519.21,0,0,0-14.66-57.37q-4.59-14.43-10.07-28.57c-.88-2.18-1.79-4.34-2.69-6.51-4.83-11.65-10-23.17-15.59-34.47C679.83,119.11,671.9,106.44,667.22,94.52ZM225.17,697c-15.75-4.48-31.31-9.12-46.88-14-16.15-5.16-31.94-9.49-46.71-14.62-7.39-2.55-14.59-5.28-21.19-8.29s-12.55-6.26-16.55-9.71C82.67,641,74.34,630.9,68.26,618.26s-10.35-27.75-14-43.11c-7.06-31-11.62-63.32-15.11-95.65s-5.71-65-6.52-97.45c-.31-16.19-.39-32.46.6-48.23a162.42,162.42,0,0,1,2.64-22.39c.31-1.77.76-2.94,1.11-4.29a29.76,29.76,0,0,1,1.7-3.89,32.9,32.9,0,0,1,5.06-7.15c8.16-8.92,21.74-14.36,34.69-14.15a49.42,49.42,0,0,1,19,4.36,60.19,60.19,0,0,1,16.84,11.54,63.05,63.05,0,0,1,12.29,16.71,58.27,58.27,0,0,1,3.84,9.6L133.87,336c2.64,9,9.31,29.73,13.8,43.5q-3.25,5.72-6.18,11.37c-26.67,51.43-34.2,98.08-34.2,98.08l36.45-20.25,16.72-9.29a471.07,471.07,0,0,0-7.77,57.18c-4.27,58.8,4.74,101.32,13.22,126.88,6.29,19,12.28,28.63,12.28,28.63l2.82-6,4.09-8.77,3.52-7.54,11.16-24,1.27-2.71,4.22,11.16,8.48,22.4,15.91,42.05C227,697.69,225.26,697,225.17,697Zm957.43,81.37-30.45-28.61s-3.36,73.34-34.78,163.16c-.41,1.18-.83,2.36-1.25,3.54q-5.25,14.73-11.54,29.92c-.69,1.68-1.4,3.35-2.11,5q-2.1,4.89-4.3,9.83c-.66,1.47-1.32,2.94-2,4.42-4,8.72-8.24,17.48-12.82,26.25q-2.14,4.13-4.38,8.23-4.48,8.24-9.33,16.44-2.42,4.11-4.94,8.19-3.77,6.12-7.75,12.21-3.1,4.72-6.34,9.43c-1,1.41-1.95,2.81-2.94,4.22q-6.08,8.63-12.63,17.1c-.77,1-1.55,2-2.33,3q-2.82,3.58-5.74,7.14c-1.37,1.67-2.74,3.34-4.15,5-.27-2.71-.56-5.42-.84-8.13s-.58-5.42-.86-8.13q-.45-4.42-.88-8.87c-.23-2.46-.46-4.93-.66-7.4l-3.53-42.26h0l-33.21,29.12c-7.76,6.8-15.77,13.3-23.92,19.68q-6.1,4.79-12.29,9.48t-12.41,9.4q-6.29,4.6-12.72,9-19.32,13.29-39.84,25-12.18,7-24.68,13.53t-25.29,12.59q-9.59,4.53-19.32,8.77a621.53,621.53,0,0,1-62.7,23.41c0-.1.1-.21.14-.31a406.15,406.15,0,0,0,15.51-53.07c4-17.76,7-35.56,9.37-53.39q1.77-13.36,3-26.77c.1-1.12.19-2.25.29-3.37l23.29,16.4,1.07-21.4h0l.14-1.7.12-1.64.21-3.26c.13-2.18.26-4.34.35-6.51.18-4.33.36-8.65.45-13,.2-8.64.2-17.29,0-25.94-.31-17.29-1.63-34.55-3.13-51.83-6-69.56-30.08-99-30.08-99,.74,4.36,1.56,8.55,2.3,12.74s1.48,8.32,2.18,12.45l2,12.39c.68,4.12,1.33,8.25,1.87,12.4a497.09,497.09,0,0,1,3.7,50.2c.47,16.81.34,33.67-.14,50.51-.23,8.42-.58,16.84-1,25.25l-.09,1.78-8.7-8-22-20.2-3.19,32.41h0l-.34,3-.39,3.13q-.39,3.15-.83,6.31-.88,6.31-1.9,12.64-2,12.63-4.54,25.18c-3.35,16.7-7.33,33.23-12.11,49.36a363.66,363.66,0,0,1-17.07,46.67,221.39,221.39,0,0,1-11,21.26c-1,1.69-2,3.33-3,5l-1.57,2.41c-.52.81-1.07,1.57-1.6,2.36l0,0c-7.51,1.5-15.05,2.85-22.61,4q-6.9,1-13.86,2l-4.5.57c-3.14.41-6.29.82-9.45,1.19-1.82.21-3.64.4-5.47.6q-4.28.48-8.58.92l-5.87.55c-2.74.25-5.49.5-8.24.73l-6.11.46q-4,.3-8.08.56l-6.22.37c-2.67.14-5.35.28-8,.4-2.08.09-4.17.18-6.26.25q-4,.15-8,.25l-6.24.14c-2.71,0-5.41.07-8.12.08-1.38,0-2.76,0-4.14,0l-2.28,0c-1.86,0-3.71,0-5.57-.05q-3.76,0-7.53-.11l-5.65-.15c-2.48-.08-5-.17-7.45-.27l-5.64-.25q-3.75-.19-7.47-.42l-5.57-.36c-2.53-.18-5.05-.38-7.57-.58l-5.4-.45c-2.61-.24-5.22-.51-7.83-.78l-5.07-.52c-2.87-.32-5.72-.69-8.58-1l-4.23-.52q-6.39-.87-12.73-1.85-10.69-1.68-21.25-4.25-5.28-1.29-10.51-2.76a315.12,315.12,0,0,1-36-12.67q-5-2.11-10-4.4t-9.9-4.7q-4.92-2.43-9.76-5-2.43-1.27-4.83-2.6-4.82-2.62-9.54-5.39-2.37-1.38-4.72-2.79a462.66,462.66,0,0,1-40.47-27.39c-4-3-8-6.14-11.94-9.31s-7.78-6.41-11.53-9.73c-1.23-1.09-2.44-2.2-3.65-3.3-2.39-2.18-4.75-4.37-7.05-6.6l-.26-.25c-1.77-1.72-3.5-3.45-5.17-5.18l-2.43-2.57-2-2.21-15.1-16.63L221,1072.5c-5.21,3.55-9.43,6.7-13.84,10l-.31.24c0-4.3.06-8.6.16-12.9q.16-7.53.52-15t.88-15q1-15,2.69-30,.8-7.49,1.76-15T215,979.9q2.3-14.88,5.34-29.59c.77-3.86,1.61-7.7,2.47-11.54,1.32-5.93,2.7-11.85,4.22-17.73q3.74-14.52,8.25-28.83l3.91-12.38,4.79-15.2h0l-4.85.47-22.67,2.19-44.68,4.31c2.58-5.52,5.24-11,8.07-16.46q5.47-10.41,11.56-20.55t12.68-20q6.6-9.81,13.73-19.3t14.78-18.56a398.83,398.83,0,0,1,32.72-34.48q4.35-4.06,8.86-8t9.15-7.65a332.34,332.34,0,0,1,29-20.95q5-3.24,10.16-6.29c5.22-3.1,10.55-6,15.94-8.83,1.69-.88,3.36-1.79,5.07-2.64,1.35-.7,2.73-1.35,4.09-2,4-2,8.06-3.89,12.16-5.7q5.49-2.41,11.07-4.63t11.23-4.27q11.3-4.1,22.88-7.58,3.54-1.07,7.1-2.09c7.32-2.12,14.71-4.09,22.15-6h0c-5.82.32-11.61.89-17.39,1.65q-3.45.45-6.89,1c-8.05,1.29-16,3-24,5q-5.94,1.53-11.82,3.3c-4.43,1.34-8.84,2.8-13.22,4.34q-10.83,3.81-21.41,8.35-4.25,1.85-8.45,3.8-9.45,4.41-18.63,9.37c-2,1.11-4.08,2.23-6.1,3.37q-8.08,4.56-15.95,9.52-3.93,2.48-7.8,5t-7.7,5.23l-.8-.29.18-.07-14.39-30.21h0l-7.82-16.41h0l-26-54.5-10.19-21.39-7.83-16.44-7.13-15-1.27,2.65-2.49,5.19c-.38.81-.79,1.65-1.2,2.51-.53,1.09-1.07,2.22-1.61,3.35-.17.36-.34.72-.52,1.08l-2.71,5.66c-.16.33-.32.65-.47,1-.86,1.79-1.62,3.39-2.22,4.62l-.53,1.11-.74,1.54-8.05,17.25c-.47-3.13-.91-6.27-1.28-9.42s-.7-6.33-1-9.51q-.53-6.3-.81-12.63c-.5-10.56-.56-21.2-.3-31.85.06-2.13.12-4.26.2-6.39.32-9.33.89-18.67,1.65-28q.42-5.19.91-10.38c.41-4.26.85-8.53,1.33-12.78.9-7.9,1.93-15.85,3.08-23.75.7-4.84,1.44-9.66,2.23-14.43q1.06-6.3,2.23-12.48L190,419.86l-44.69,21.59-2.94,1.42a507.5,507.5,0,0,1,23.3-46.25c.88-1.53,1.75-3.05,2.63-4.54q3.34-5.73,6.72-11.13c1.85-3,3.71-5.88,5.57-8.7s3.72-5.59,5.57-8.27,3.7-5.29,5.54-7.83q5.53-7.62,10.95-14.41,2.7-3.39,5.37-6.58,4-4.8,7.87-9.14c2.16-2.43,4.29-4.74,6.38-7l2.42-2.54q3.71-3.86,7.23-7.29c.79-.78,1.58-1.54,2.35-2.28q1.65-1.57,3.24-3.06l.31-.29c3.2-3,6.24-5.65,9.09-8.08,1-.81,1.89-1.59,2.8-2.34l.66-.55c1.63-1.34,3.19-2.58,4.67-3.74l.76-.58c1-.77,2-1.5,2.86-2.18Q261,284.38,263,283q2.33-1.64,4.13-2.83c3.62-2.39,5.63-3.49,5.63-3.49l-46.51-.86-22.44-.41q7.68-5.91,15.29-11.15,5.5-3.8,10.94-7.27,6.56-4.17,13-7.9,5.79-3.36,11.47-6.36c8.55-4.53,16.9-8.51,25-12,2.95-1.28,5.86-2.47,8.73-3.61,1.46-.59,2.91-1.15,4.35-1.7q6-2.28,11.69-4.21c7.84-2.66,15.25-4.84,22.12-6.62q4.41-1.14,8.51-2.08,6.84-1.56,12.73-2.6c1.56-.29,3.08-.55,4.53-.78,4-.65,7.58-1.14,10.67-1.5s5.72-.6,7.81-.75c1.05-.08,1.95-.13,2.73-.18l1.41-.06c1.11-.05,1.71-.06,1.71-.06h0l-21.85-18.25-17.46-14.59h0q16.18-.31,32.35-.49l1.93,0q15.54-.17,31.07-.17l2.21,0h6.2l11.81.05,5.14,0q6.28.06,12.57.15l3.51,0q7.94.14,15.87.31l3.82.1q6.12.15,12.24.34l5.05.16q6.06.21,12.11.45l4,.16q7.93.34,15.86.75l3,.17q6.45.35,12.88.75l5,.32q5.87.38,11.73.81L550,178c5.27.41,10.54.83,15.8,1.29.65.06,1.31.13,2,.18q6.9.61,13.8,1.31l4.89.5q5.75.6,11.46,1.24l4.75.54q7.86.91,15.72,1.93,19.24,2.53,38.38,5.71l2.85.48q13.32,2.27,26.56,4.87l3.47.71c3.4,8.46,6.69,17,9.69,25.58.91,2.62,1.69,5.29,2.55,7.93-.32.11-.65.17-1,.31a336.28,336.28,0,0,0-40.79,20.73,239.83,239.83,0,0,0-38.28,27.84c-11.94,10.86-23.31,24.69-30.52,41.53-7.11,16.65-9.38,34.87-8,52.31a132.65,132.65,0,0,0,47,90.51c27.41,22.25,61.86,32.39,95.08,32.81a190.21,190.21,0,0,0,49.27-6.2,203.62,203.62,0,0,0,45.47-18.62c28.38-15.84,52.49-37.31,72.63-61.17,19.86-24,37.07-50.19,48.93-80.26a202.54,202.54,0,0,0,7.66-23.95l1.36,1.14c4.46,3.75,9.19,7.89,14.14,12.42q4.13,3.79,8.47,7.94l.36.34q6.61,6.36,13.62,13.57,9.43,9.71,19.42,21,7.45,8.49,15.14,17.89,2.55,3.13,5.12,6.38,10.27,13,20.7,27.58,5.2,7.32,10.39,15.06t10.35,15.92q5.16,8.17,10.26,16.78t10.12,17.66q7.51,13.57,14.8,28.15t14.19,30.18q6.91,15.6,13.42,32.23c2.49,6.41,4.93,13,7.32,19.6,1.74,4.86,3.47,9.75,5.15,14.73,6.63,19.65,12.75,40.29,18.22,61.94q3.29,13,6.24,26.45t5.57,27.44q2.61,14,4.85,28.42t4.07,29.41Z"/><path class="cls-4" d="M1018.51,619.35l-1.45-21.89-14.84,17-6.06,7c-.65-5.58-1.3-11.14-2-16.72-1.87-13.76-3.89-27.5-6.37-41.18s-5.2-27.3-8.55-40.81-7.17-27-13.5-39.43c2.56,13.66,4.42,27.19,6.13,40.78s2.7,27.26,3.48,40.94,1.43,27.37,1.74,41.07.67,27.45.59,41l-.19,32,19-25.81,6.51-8.84c.81,7.39,1.58,14.79,2.36,22.17q2.51,22.77,4.46,45.6c1.39,15.22,2.66,30.45,3.45,45.69.47,7.62.71,15.24.91,22.87,0,3.81.09,7.62.38,11.45a73.78,73.78,0,0,0,1.36,11.57,71.38,71.38,0,0,0,2.88-11.36c.64-3.82.87-7.67,1.2-11.51.5-7.69,1-15.39,1.2-23.09.6-15.4.79-30.79.73-46.18C1021.67,680.82,1020.54,650.15,1018.51,619.35Z"/></g></g></g></svg>