<svg xmlns="http://www.w3.org/2000/svg" viewBox="0 0 458.59 98.53"><defs><style>.cls-1{fill:#fff;}.cls-2{fill:#69ccf4;}.cls-3{fill:none;}.cls-4{fill:#224970;}</style></defs><title>Logo-Icon-Light</title><g id="Layer_2" data-name="Layer 2"><g id="Layer_1-2" data-name="Layer 1"><g id="Logo-Icon-Light"><path class="cls-1" d="M111.35,96.12a6.27,6.27,0,0,1-2.38-.43,5.62,5.62,0,0,1-1.86-1.2,5.55,5.55,0,0,1-1.2-1.82,6,6,0,0,1-.43-2.3v0a5.72,5.72,0,0,1,1.66-4.08A5.81,5.81,0,0,1,109,85a6,6,0,0,1,2.35-.45,8.11,8.11,0,0,1,1.36.1,6.67,6.67,0,0,1,1.15.3,4.53,4.53,0,0,1,1,.48,8.76,8.76,0,0,1,.89.65L114.18,88a6.67,6.67,0,0,0-.64-.48,3.48,3.48,0,0,0-.66-.35,4.26,4.26,0,0,0-.74-.23,4.79,4.79,0,0,0-.88-.08,3,3,0,0,0-1.26.28,3.58,3.58,0,0,0-1,.76,3.34,3.34,0,0,0-.68,1.1,3.56,3.56,0,0,0-.25,1.35v0a3.8,3.8,0,0,0,.25,1.41,3.12,3.12,0,0,0,.7,1.13,3.23,3.23,0,0,0,1.07.75,3.51,3.51,0,0,0,1.36.26,3.88,3.88,0,0,0,2.32-.68v-1.6h-2.48V89.49h4.86v4.86a8.43,8.43,0,0,1-2,1.25A6.72,6.72,0,0,1,111.35,96.12Z"/><path class="cls-1" d="M120.42,96.09a2.7,2.7,0,0,1-2.14-.85,3.34,3.34,0,0,1-.76-2.33V87.37H120v4.76a1.9,1.9,0,0,0,.38,1.3,1.37,1.37,0,0,0,1.08.44,1.45,1.45,0,0,0,1.11-.44,1.81,1.81,0,0,0,.41-1.3V87.37h2.43v8.56h-2.43V94.7a5.72,5.72,0,0,1-.45.53,3.93,3.93,0,0,1-.55.44,2.6,2.6,0,0,1-.68.3A2.64,2.64,0,0,1,120.42,96.09Z"/><path class="cls-1" d="M126.93,84.27h2.55v2.16h-2.55Zm.06,3.1h2.43v8.56H127Z"/><path class="cls-1" d="M134.56,96.09a3.88,3.88,0,0,1-1.46-.29,3.71,3.71,0,0,1-1.24-.85,4.44,4.44,0,0,1-.87-1.39,5.08,5.08,0,0,1-.33-1.9v0a5.06,5.06,0,0,1,.33-1.89,4.31,4.31,0,0,1,.86-1.39,3.48,3.48,0,0,1,1.24-.85,3.71,3.71,0,0,1,1.47-.29,3.08,3.08,0,0,1,1.6.38,4.52,4.52,0,0,1,1.07.9V84.27h2.42V95.93h-2.42V94.7a4,4,0,0,1-1.08,1A3,3,0,0,1,134.56,96.09Zm.62-2.06a2,2,0,0,0,.81-.17,1.81,1.81,0,0,0,.65-.48,2.34,2.34,0,0,0,.45-.75,2.7,2.7,0,0,0,.17-1v0a2.69,2.69,0,0,0-.17-1,2.14,2.14,0,0,0-.45-.75,1.81,1.81,0,0,0-.65-.48,1.84,1.84,0,0,0-.81-.17,1.87,1.87,0,0,0-.81.17,2,2,0,0,0-.66.48,2.19,2.19,0,0,0-.45.74,2.66,2.66,0,0,0-.17,1v0a2.7,2.7,0,0,0,.17,1,2.34,2.34,0,0,0,.45.75,2,2,0,0,0,1.47.65Z"/><path class="cls-1" d="M145.23,96.12a4.94,4.94,0,0,1-1.78-.32,4,4,0,0,1-1.42-.91,4.26,4.26,0,0,1-.94-1.4,4.64,4.64,0,0,1-.33-1.79v0a4.73,4.73,0,0,1,.31-1.72,4.12,4.12,0,0,1,.87-1.42,3.88,3.88,0,0,1,1.33-1,4.2,4.2,0,0,1,1.72-.35,4.24,4.24,0,0,1,1.85.38,3.79,3.79,0,0,1,1.3,1,4.31,4.31,0,0,1,.77,1.49,6.33,6.33,0,0,1,.25,1.75c0,.09,0,.19,0,.3s0,.22,0,.33h-6a2,2,0,0,0,.72,1.26,2.21,2.21,0,0,0,1.37.42,2.72,2.72,0,0,0,1.09-.21,3.46,3.46,0,0,0,1-.67l1.39,1.23a4.54,4.54,0,0,1-1.47,1.18A4.63,4.63,0,0,1,145.23,96.12ZM146.79,91a2.29,2.29,0,0,0-.57-1.32,1.58,1.58,0,0,0-1.23-.5,1.63,1.63,0,0,0-1.24.49,2.46,2.46,0,0,0-.61,1.33Z"/><path class="cls-1" d="M156.49,98.53a3.83,3.83,0,0,1-1.18-.16,4.78,4.78,0,0,1-1-.43l.82-1.76a2.38,2.38,0,0,0,.51.24,1.49,1.49,0,0,0,.52.1.94.94,0,0,0,.51-.12A1.18,1.18,0,0,0,157,96l-3.35-8.59h2.57l1.95,5.83,1.86-5.83h2.53l-3.29,8.77a7.27,7.27,0,0,1-.51,1.11,3,3,0,0,1-.6.74,2,2,0,0,1-.75.41A3,3,0,0,1,156.49,98.53Z"/><path class="cls-1" d="M167.57,96.12a5.06,5.06,0,0,1-1.84-.34,4.55,4.55,0,0,1-1.46-1A4.4,4.4,0,0,1,163,91.7v0a4.22,4.22,0,0,1,.36-1.73,4.33,4.33,0,0,1,1-1.41,4.56,4.56,0,0,1,1.47-1,5.11,5.11,0,0,1,3.69,0,4.38,4.38,0,0,1,2.43,2.35,4.35,4.35,0,0,1,.35,1.73v0a4.4,4.4,0,0,1-.35,1.74,4.54,4.54,0,0,1-2.45,2.37A4.84,4.84,0,0,1,167.57,96.12Zm0-2.09a2.16,2.16,0,0,0,.94-.19,2,2,0,0,0,.69-.5,2.2,2.2,0,0,0,.44-.74,2.66,2.66,0,0,0,.15-.9v0a2.44,2.44,0,0,0-.16-.9,2.25,2.25,0,0,0-1.18-1.27,2.12,2.12,0,0,0-.91-.19,2.27,2.27,0,0,0-.93.18,2,2,0,0,0-.7.51,2.2,2.2,0,0,0-.44.74,2.66,2.66,0,0,0-.15.9v0a2.53,2.53,0,0,0,.16.91,2.41,2.41,0,0,0,.46.75,2.6,2.6,0,0,0,.71.52A2.29,2.29,0,0,0,167.6,94Z"/><path class="cls-1" d="M176.16,96.09a2.74,2.74,0,0,1-2.15-.85,3.38,3.38,0,0,1-.75-2.33V87.37h2.42v4.76a1.91,1.91,0,0,0,.39,1.3,1.35,1.35,0,0,0,1.08.44,1.45,1.45,0,0,0,1.11-.44,1.86,1.86,0,0,0,.41-1.3V87.37h2.43v8.56h-2.43V94.7a4.6,4.6,0,0,1-.46.53,3,3,0,0,1-.55.44,2.4,2.4,0,0,1-.67.3A2.64,2.64,0,0,1,176.16,96.09Z"/><path class="cls-1" d="M182.61,87.37H185v1.72a3.59,3.59,0,0,1,1-1.4,2.45,2.45,0,0,1,1.72-.48v2.54h-.12a2.49,2.49,0,0,0-1.91.73,3.2,3.2,0,0,0-.7,2.29v3.16h-2.43Z"/><path class="cls-1" d="M196.81,96.12a4.56,4.56,0,0,1-1.78-.35,4.32,4.32,0,0,1-2.34-2.36,4.49,4.49,0,0,1-.33-1.71v0a4.54,4.54,0,0,1,.33-1.72,4.43,4.43,0,0,1,.93-1.42,4.11,4.11,0,0,1,1.41-1,4.64,4.64,0,0,1,1.81-.35,4.79,4.79,0,0,1,2,.38,4.51,4.51,0,0,1,1.4,1.06l-1.48,1.59a4,4,0,0,0-.86-.68,2.14,2.14,0,0,0-1.09-.26,1.92,1.92,0,0,0-.84.18,2,2,0,0,0-.65.51,2.2,2.2,0,0,0-.44.74,2.66,2.66,0,0,0-.15.9v0a2.83,2.83,0,0,0,.15.93,2.16,2.16,0,0,0,.44.75,2,2,0,0,0,.69.5,2,2,0,0,0,.89.19,2.17,2.17,0,0,0,1.07-.25,4.69,4.69,0,0,0,.9-.66l1.42,1.43a5.32,5.32,0,0,1-1.42,1.13A4.34,4.34,0,0,1,196.81,96.12Z"/><path class="cls-1" d="M204.08,96.09a2.72,2.72,0,0,1-2.15-.85,3.38,3.38,0,0,1-.76-2.33V87.37h2.43v4.76a2,2,0,0,0,.38,1.3,1.39,1.39,0,0,0,1.09.44,1.45,1.45,0,0,0,1.11-.44,1.86,1.86,0,0,0,.41-1.3V87.37H209v8.56h-2.42V94.7a4.6,4.6,0,0,1-.46.53,3.42,3.42,0,0,1-.55.44,2.54,2.54,0,0,1-.67.3A2.68,2.68,0,0,1,204.08,96.09Z"/><path class="cls-1" d="M213.53,96.09a6.25,6.25,0,0,1-1.86-.31,6.09,6.09,0,0,1-1.81-1l1-1.59a5.68,5.68,0,0,0,1.4.76,3.76,3.76,0,0,0,1.3.26,1.3,1.3,0,0,0,.77-.18.52.52,0,0,0,.25-.46v0a.49.49,0,0,0-.14-.34,1.23,1.23,0,0,0-.39-.24,5.36,5.36,0,0,0-.57-.2l-.67-.21c-.3-.09-.6-.19-.91-.31a3.53,3.53,0,0,1-.82-.48,2.52,2.52,0,0,1-.6-.73,2.26,2.26,0,0,1-.23-1.05v0a2.5,2.5,0,0,1,.25-1.15,2.57,2.57,0,0,1,.67-.86,2.76,2.76,0,0,1,1-.52,4,4,0,0,1,1.22-.18,5.69,5.69,0,0,1,1.66.26,6.41,6.41,0,0,1,1.54.73l-.93,1.68a7.78,7.78,0,0,0-1.25-.59,3.3,3.3,0,0,0-1.07-.21,1.07,1.07,0,0,0-.67.17.5.5,0,0,0-.22.42v0a.43.43,0,0,0,.14.31,1.76,1.76,0,0,0,.39.26,4.15,4.15,0,0,0,.55.23l.66.22a9.39,9.39,0,0,1,.91.35,3.54,3.54,0,0,1,.83.48,2.45,2.45,0,0,1,.61.71,2,2,0,0,1,.24,1v0a2.77,2.77,0,0,1-.25,1.24,2.33,2.33,0,0,1-.69.86,3.19,3.19,0,0,1-1.05.5A4.85,4.85,0,0,1,213.53,96.09Z"/><path class="cls-1" d="M220.78,96.07a3.94,3.94,0,0,1-1-.12,1.85,1.85,0,0,1-.78-.42,2,2,0,0,1-.51-.79,3.4,3.4,0,0,1-.19-1.24V89.44h-1V87.37h1V85.18h2.43v2.19h2v2.07h-2v3.67q0,.84.78.84a2.4,2.4,0,0,0,1.2-.32v2a3.62,3.62,0,0,1-.85.36A3.78,3.78,0,0,1,220.78,96.07Z"/><path class="cls-1" d="M228.07,96.12a5,5,0,0,1-1.84-.34,4.55,4.55,0,0,1-1.46-1,4.45,4.45,0,0,1-1-1.4,4.38,4.38,0,0,1-.35-1.73v0a4.45,4.45,0,0,1,2.8-4.1,5.11,5.11,0,0,1,3.69,0,4.53,4.53,0,0,1,1.46.94,4.3,4.3,0,0,1,1,1.41,4.18,4.18,0,0,1,.35,1.73v0a4.23,4.23,0,0,1-.35,1.74,4.44,4.44,0,0,1-1,1.41,4.73,4.73,0,0,1-1.47,1A4.84,4.84,0,0,1,228.07,96.12Zm0-2.09a2.12,2.12,0,0,0,.93-.19,2.08,2.08,0,0,0,.7-.5,2.2,2.2,0,0,0,.44-.74,2.66,2.66,0,0,0,.15-.9v0a2.44,2.44,0,0,0-.16-.9,2.41,2.41,0,0,0-.46-.75,2.45,2.45,0,0,0-.72-.52,2.12,2.12,0,0,0-.91-.19,2.32,2.32,0,0,0-.94.18,2.07,2.07,0,0,0-.69.51,2.2,2.2,0,0,0-.44.74,2.66,2.66,0,0,0-.15.9v0a2.53,2.53,0,0,0,.16.91,2.23,2.23,0,0,0,.46.75,2.46,2.46,0,0,0,.71.52A2.26,2.26,0,0,0,228.1,94Z"/><path class="cls-1" d="M233.82,87.37h2.42v1.22a5.53,5.53,0,0,1,.46-.52,2.59,2.59,0,0,1,.55-.44,2.82,2.82,0,0,1,.68-.31,3.11,3.11,0,0,1,.84-.11,3,3,0,0,1,1.46.35,2.5,2.5,0,0,1,1,1,3.93,3.93,0,0,1,1.24-1,3.45,3.45,0,0,1,1.57-.34,2.76,2.76,0,0,1,2.12.8,3.25,3.25,0,0,1,.77,2.34v5.58h-2.43V91.16a2,2,0,0,0-.36-1.29,1.29,1.29,0,0,0-1.06-.44,1.35,1.35,0,0,0-1.08.44,1.88,1.88,0,0,0-.39,1.29v4.77h-2.43V91.16a2,2,0,0,0-.36-1.29,1.29,1.29,0,0,0-1.06-.44,1.34,1.34,0,0,0-1.07.44,1.83,1.83,0,0,0-.4,1.29v4.77h-2.42Z"/><path class="cls-1" d="M252.39,96.12a4.94,4.94,0,0,1-1.78-.32,4.12,4.12,0,0,1-1.42-.91,4.26,4.26,0,0,1-.94-1.4,4.64,4.64,0,0,1-.33-1.79v0a4.73,4.73,0,0,1,.31-1.72,4.45,4.45,0,0,1,.87-1.42,4,4,0,0,1,1.33-1,4.2,4.2,0,0,1,1.72-.35,4.24,4.24,0,0,1,1.85.38,3.79,3.79,0,0,1,1.3,1,4.15,4.15,0,0,1,.77,1.49,6,6,0,0,1,.25,1.75c0,.09,0,.19,0,.3s0,.22,0,.33h-6a2,2,0,0,0,.73,1.26,2.16,2.16,0,0,0,1.36.42,2.68,2.68,0,0,0,1.09-.21,3.46,3.46,0,0,0,1-.67l1.39,1.23a4.54,4.54,0,0,1-1.47,1.18A4.6,4.6,0,0,1,252.39,96.12ZM254,91a2.37,2.37,0,0,0-.58-1.32,1.58,1.58,0,0,0-1.23-.5,1.64,1.64,0,0,0-1.24.49A2.46,2.46,0,0,0,250.3,91Z"/><path class="cls-1" d="M257.47,87.37h2.43v1.72a3.57,3.57,0,0,1,1-1.4,2.48,2.48,0,0,1,1.73-.48v2.54h-.13a2.49,2.49,0,0,0-1.91.73,3.25,3.25,0,0,0-.69,2.29v3.16h-2.43Z"/><path class="cls-1" d="M262.82,97.51c1.12-.12,1.64-.64,1.56-1.58h-1V93.37H266v2.16a2.93,2.93,0,0,1-.77,2.27,3.16,3.16,0,0,1-2.17.72Z"/><path class="cls-1" d="M275.79,96.09a7.5,7.5,0,0,1-2.51-.44,6.51,6.51,0,0,1-2.23-1.35l1.45-1.74a7.61,7.61,0,0,0,1.57,1,4.31,4.31,0,0,0,1.77.37,2.23,2.23,0,0,0,1.19-.28.89.89,0,0,0,.42-.78v0a.93.93,0,0,0-.09-.42.86.86,0,0,0-.34-.35,4,4,0,0,0-.68-.32c-.3-.1-.68-.21-1.15-.33a12.81,12.81,0,0,1-1.54-.47,4.11,4.11,0,0,1-1.16-.63,2.51,2.51,0,0,1-.75-.93,3.2,3.2,0,0,1-.26-1.39v0a3.13,3.13,0,0,1,1.08-2.45,3.86,3.86,0,0,1,1.23-.68,5,5,0,0,1,1.58-.24,6.53,6.53,0,0,1,2.26.37,6.44,6.44,0,0,1,1.9,1.05l-1.28,1.85a7.65,7.65,0,0,0-1.47-.8,3.72,3.72,0,0,0-1.44-.3,1.72,1.72,0,0,0-1.08.28.85.85,0,0,0-.36.69v0a.89.89,0,0,0,.48.83,3.74,3.74,0,0,0,.75.3c.31.1.71.21,1.19.34a10.68,10.68,0,0,1,1.51.5,4.39,4.39,0,0,1,1.13.67,2.69,2.69,0,0,1,.69.92,3.19,3.19,0,0,1,.23,1.26v0a3.32,3.32,0,0,1-.31,1.48,3.1,3.1,0,0,1-.84,1.09,3.89,3.89,0,0,1-1.28.67A5.79,5.79,0,0,1,275.79,96.09Z"/><path class="cls-1" d="M281.36,84.75h8.42v2.19h-6V89.2h5.27v2.19h-5.27v2.35h6.07v2.19h-8.5Z"/><path class="cls-1" d="M291.41,84.75h2.46v9h5.57v2.22h-8Z"/><path class="cls-1" d="M300.64,84.75h2.46v9h5.57v2.22h-8Z"/><path class="cls-1" d="M314,84.75h2.65l2.93,4.73,2.94-4.73h2.66V95.93h-2.43v-7.3l-3.15,4.77h-.06l-3.12-4.72v7.25H314Z"/><path class="cls-1" d="M332.64,96.12a6,6,0,0,1-2.38-.46,5.74,5.74,0,0,1-1.87-1.23,5.33,5.33,0,0,1-1.23-1.82,5.56,5.56,0,0,1-.44-2.24v0a5.65,5.65,0,0,1,.45-2.25,5.73,5.73,0,0,1,1.23-1.83A5.88,5.88,0,0,1,330.29,85a6.2,6.2,0,0,1,2.39-.45,6,6,0,0,1,4.25,1.68,5.42,5.42,0,0,1,1.23,1.82,5.82,5.82,0,0,1,.44,2.25v0a5.6,5.6,0,0,1-.45,2.24,5.77,5.77,0,0,1-1.23,1.84A5.7,5.7,0,0,1,335,95.66,6,6,0,0,1,332.64,96.12Zm0-2.27a3.36,3.36,0,0,0,1.35-.27,3.14,3.14,0,0,0,1.07-.75,3.49,3.49,0,0,0,.68-1.11,3.56,3.56,0,0,0,.25-1.35v0a3.65,3.65,0,0,0-.25-1.36,3.42,3.42,0,0,0-.7-1.12,3.33,3.33,0,0,0-2.44-1,3.28,3.28,0,0,0-2.42,1,3.49,3.49,0,0,0-.68,1.11,3.56,3.56,0,0,0-.25,1.35v0a3.65,3.65,0,0,0,.25,1.36,3.37,3.37,0,0,0,.7,1.11,3.26,3.26,0,0,0,1.07.76A3.2,3.2,0,0,0,332.68,93.85Z"/><path class="cls-1" d="M340.13,84.75h5.11a4.42,4.42,0,0,1,3.26,1.13,3.45,3.45,0,0,1,1,2.56v0a3.52,3.52,0,0,1-.66,2.21,3.88,3.88,0,0,1-1.73,1.26l2.73,4h-2.88l-2.39-3.58h-1.94v3.58h-2.46Zm4.95,5.43a2.07,2.07,0,0,0,1.4-.43A1.45,1.45,0,0,0,347,88.6v0a1.41,1.41,0,0,0-.51-1.2A2.24,2.24,0,0,0,345,87h-2.45v3.21Z"/><path class="cls-1" d="M351,84.75h8.41v2.19h-6V89.2h5.27v2.19h-5.27v2.35h6.07v2.19H351Z"/><path class="cls-1" d="M360.72,93.37h2.57v2.56h-2.57Z"/><path class="cls-1" d="M104.66,21.53l13.72,6.71V75.73H104.66Z"/><path class="cls-1" d="M122.45,55.82c0-12.34,9.34-21.21,22.32-21.21s22.32,8.87,22.32,21.21S157.71,77,144.77,77,122.45,68.12,122.45,55.82Zm22.32,8.89c5,0,8.59-3.63,8.59-8.89s-3.59-8.89-8.59-8.89-8.59,3.63-8.59,8.89,3.59,8.89,8.59,8.89Z"/><path class="cls-1" d="M197.45,63.72v12H188c-8.8,0-14.15-5.39-14.15-14.23v-15h-7.29v-3.2l17.84-19h2.81V35.91h10V46.47h-9.66V59.14a4.22,4.22,0,0,0,4.61,4.58Z"/><path class="cls-2" d="M225.92,77c-10.86,0-17.45-5.73-17.58-14.36h13.21c0,2.92,2,4.26,4.62,4.26,2,0,3.91-1,3.91-3.09,0-2.29-3-3-6.84-3.58-6.17-1-14.36-2.86-14.36-12.52,0-8,6.8-13.13,17-13.13s16.7,5.39,16.86,13.46H229.91c0-2.54-1.71-3.73-4.2-3.73-2.19,0-3.67,1.09-3.67,2.94,0,2.26,3,2.79,6.83,3.46,6.29,1.12,14.65,2.43,14.65,12.53,0,8.32-7,13.76-17.61,13.76Z"/><path class="cls-2" d="M287.05,51.75v24H273.33V53.34c0-4.59-1.61-6.93-5.19-6.93-4.15,0-6.74,3-6.74,8.06V75.73H247.69V21.53H261.4v17A17,17,0,0,1,272,34.73C281.17,34.73,287.05,41.43,287.05,51.75Z"/><path class="cls-2" d="M334,55.44a26.46,26.46,0,0,1-.28,3.63H304.18c.9,4.57,3.8,6.93,8.13,6.93a8,8,0,0,0,7.2-3.73h13.64C330.35,71.36,322.3,77,312.31,77c-12.42,0-21.63-9.08-21.63-21.24s9.13-21.18,21.63-21.18c12.83,0,21.72,9.15,21.72,20.83Zm-29.61-4h16.1a8,8,0,0,0-8.21-6.13C308.31,45.35,305.53,47.52,304.42,51.48Z"/><path class="cls-2" d="M364,35.72V48.27h-5.32c-4.86,0-6.89,2.13-6.89,7.21V75.73H338V35.91h9.19l1,4.42c2.81-3.25,7.37-4.61,12.11-4.61Z"/><path class="cls-2" d="M411,55.82c0,12.4-8.7,21.25-20.88,21.25a18.57,18.57,0,0,1-9.7-2.64V90.11L366.9,96.82V35.91h9.33l.57,3.16c3.28-2.83,8.63-4.46,13.36-4.46C402.34,34.61,411,43.41,411,55.82Zm-13.8,0a8.92,8.92,0,1,0-17.83,0,8.92,8.92,0,1,0,17.83,0Z"/><path class="cls-2" d="M458.59,35.87V75.69H448l0-2.82C444.69,75.51,439.42,77,434.8,77c-12.18,0-20.88-8.88-20.88-21.25s8.7-21.11,20.88-21.11c4.69,0,10,1.57,13.3,4.28l.27-3.08Zm-13,19.94a8.91,8.91,0,1,0-17.82,0,8.91,8.91,0,1,0,17.82,0Z"/><path class="cls-2" d="M79.08,75.35c.08-.15.16-.29.25-.43h0l.24-.43.27-.48.32-.61c.15-.27.28-.55.41-.82.06-.1.11-.21.16-.31.13-.28.26-.55.38-.82l.15-.32c.11-.25.22-.49.32-.73l.15-.37.23-.56c.1-.25.2-.5.29-.74,0-.07,0-.13.07-.19l.27-.73.09-.26.24-.71a1.42,1.42,0,0,0,.07-.22c.06-.16.11-.32.16-.48s0-.16.08-.24.09-.32.14-.48l.06-.21c.14-.45.26-.89.37-1.32l.06-.2c0-.15.07-.3.11-.45A1.74,1.74,0,0,0,84,63c0-.14.07-.29.11-.43s0-.13,0-.19.1-.4.14-.59c.07-.35.14-.68.21-1s.12-.63.17-.93.11-.58.15-.86l.06-.4.06-.37v-.12a1.85,1.85,0,0,0,0-.23v-.13l0-.2,0-.13a.88.88,0,0,1,0-.17v-.13a1,1,0,0,0,0-.16v-.12l0-.14v-.34l0-.12V55.5h0l2.26,2.12c-.09-.74-.19-1.47-.3-2.18S87,54,86.85,53.32s-.27-1.37-.41-2-.3-1.32-.47-2c-.4-1.6-.85-3.13-1.34-4.59-.13-.36-.26-.73-.39-1.08s-.35-1-.54-1.46c-.32-.82-.65-1.61-1-2.38-.09-.19-.17-.39-.26-.58s-.23-.5-.35-.74L82,38.31c-.11-.24-.23-.48-.35-.72-.36-.72-.72-1.42-1.1-2.09-.24-.44-.49-.88-.74-1.3L79.06,33c-.26-.4-.51-.79-.77-1.17s-.51-.76-.77-1.12q-.76-1.08-1.53-2c-.13-.16-.25-.32-.38-.47h0l-.34-.41-.08-.1,0,0a3.47,3.47,0,0,0-.25-.29l0-.06-.05-.06-.33-.38q-.73-.84-1.44-1.56c-.34-.36-.68-.69-1-1l0,0-.63-.59-.29-.26,0,0-.24-.21,0,0-.26-.22h0l-.27-.23h0a16.63,16.63,0,0,1-.57,1.77,21.84,21.84,0,0,1-3.62,5.94,19.51,19.51,0,0,1-5.38,4.53,14.84,14.84,0,0,1-3.36,1.38,14,14,0,0,1-3.65.45,11.42,11.42,0,0,1-7-2.42,9.84,9.84,0,0,1-3.48-6.7,8.33,8.33,0,0,1,.59-3.87A9.05,9.05,0,0,1,46,20.66a17.4,17.4,0,0,1,2.83-2.06,24.53,24.53,0,0,1,3-1.54l.07,0-.18-.59q-.34-1-.72-1.89l-.26-.05c-.65-.13-1.31-.25-2-.36l-.21,0c-1-.16-1.89-.3-2.84-.42l-1.17-.14-.35,0-.85-.1-.36,0-1-.1h-.15l-1.16-.1-.33,0-.87-.06-.37,0-1-.05H38l-1.17-.06h-.3l-.89,0h-.38l-.9,0H34l-1.17,0H27.34l-2.39,0h0l1.29,1.08,1.62,1.35h-1l-.14,0H26.7l-.22,0-.42.07-.34,0-.94.2-.63.15c-.51.13-1.06.29-1.64.49-.28.09-.57.2-.86.31l-.32.13-.65.26-.45.2-.69.33-.71.36c-.28.15-.56.3-.84.47s-.64.38-1,.59l-.81.53c-.37.26-.75.54-1.13.83l1.66,0,3.44.06h0l0,0h0l-.13.08h0l-.07.05,0,0-.11.07-.31.21-.32.23-.21.16-.05.05-.35.27-.05,0-.21.18-.29.25-.07.06-.31.28,0,0-.24.22-.18.17-.53.54-.18.19-.47.51c-.19.22-.39.44-.58.68s-.27.32-.4.49c-.27.33-.54.69-.81,1.06l-.41.58-.41.61-.42.65c-.16.27-.33.54-.49.82l-.2.34a36.28,36.28,0,0,0-1.72,3.42l.21-.1,3.31-1.6-.19,1.17c-.06.31-.11.61-.17.92s-.11.71-.16,1.07l-.12.83c0,.28-.07.56-.1.83,0,0,0,.07,0,.1,0,.31-.07.63-.1.95s0,.51-.07.76l-.06.93a1.48,1.48,0,0,0,0,.21c0,.31,0,.62-.05.94,0,.15,0,.31,0,.47,0,.79,0,1.57,0,2.36q0,.47.06.93c0,.24,0,.47.07.7s.06.47.1.7l.59-1.28.06-.11,0-.08,0-.07.13-.27,0-.08.21-.41,0-.08.12-.25.09-.19.19-.38.05-.12,0-.08.53,1.11L16,43.87l.75,1.58,1.92,4,.58,1.22,1.06,2.23h0l.06,0,.57-.39.58-.37c.39-.25.78-.48,1.18-.71l.45-.25h0l.61-.31h0l.77-.38.62-.28c.52-.22,1.05-.43,1.59-.62l1-.32q.43-.13.87-.24c.59-.15,1.18-.28,1.77-.37l.51-.08h0l.55-.06.15,0h0l.59,0h0l-.74.19h0l-.9.25-.52.16c-.57.17-1.14.35-1.7.56l-.83.31-.82.35-.47.21-.43.21-.3.15-.37.19c-.4.21-.8.43-1.18.66l-.76.46A25.35,25.35,0,0,0,21,53.77c-.23.19-.46.37-.68.57l-.66.59c-.43.4-.84.81-1.25,1.24s-.79.86-1.17,1.31-.74.9-1.09,1.37-.69.94-1,1.43-.64,1-.94,1.48-.58,1-.85,1.52-.41.81-.6,1.22L16,64.18,17.7,64l.35,0h0L17.7,65.1l-.29.92c-.22.71-.43,1.42-.61,2.13-.11.44-.21.88-.31,1.32-.07.28-.13.56-.19.85l-.21,1.09-.18,1.1c-.06.37-.11.73-.16,1.1s-.09.74-.13,1.11c-.08.74-.14,1.48-.2,2.22l-.06,1.11c0,.37,0,.74,0,1.11s0,.64,0,1l0,0c.33-.24.64-.48,1-.74l1.29-.88,1.12,1.23.15.16.18.19.38.39h0L20,81l.27.25.85.72.89.69a34.76,34.76,0,0,0,3,2l.35.21.71.4.35.19.73.37.73.35.74.32a22.84,22.84,0,0,0,2.67.94l.77.2c.52.13,1,.24,1.58.32l.94.14.31,0,.64.08.37,0,.58.06.4,0,.56,0,.41,0,.55,0,.42,0,.55,0h2.93l.59,0,.47,0,.59,0,.46,0,.6,0,.45,0,.61-.06.44,0,.63-.07.41,0,.69-.09.34,0,1-.15.82-.13.07,0,.79-.14h0l.12-.17.11-.18.23-.37a16.51,16.51,0,0,0,.81-1.57,25.7,25.7,0,0,0,1.26-3.45c.36-1.2.65-2.42.9-3.66.12-.61.24-1.24.33-1.86.05-.31.1-.62.14-.93,0-.16.05-.32.07-.47l0-.23,0-.22h0l.24-2.4,1.62,1.49.64.6v-.14c0-.62.06-1.24.07-1.86,0-1.25,0-2.5,0-3.74s-.12-2.49-.28-3.72c0-.3-.09-.61-.14-.91l-.15-.92c-.05-.31-.1-.61-.16-.92s-.11-.62-.17-.94c0,0,1.78,2.17,2.23,7.32.11,1.28.2,2.55.23,3.83,0,.64,0,1.28,0,1.92,0,.32,0,.64,0,1,0,.16,0,.32,0,.48l0,.25v.24h0l-.08,1.59L57.57,76.3a2.29,2.29,0,0,0,0,.25c-.07.66-.14,1.32-.23,2-.17,1.32-.39,2.64-.69,4a29.77,29.77,0,0,1-1.15,3.93v0l.07,0,.41-.13.24-.08.37-.12.08,0,.23-.08.27-.09.19-.07.11,0,.33-.12.19-.08.18-.06.34-.13.12,0,.2-.08.41-.17.06,0,.19-.08.65-.28c.48-.21,1-.42,1.43-.65.63-.3,1.26-.61,1.87-.93s1.23-.66,1.83-1c1-.58,2-1.19,3-1.85l.94-.67.92-.69L71,78.2c.6-.47,1.19-1,1.77-1.45l2.45-2.16.26,3.13c0,.18,0,.37,0,.55s.05.44.07.65l.06.61c0,.2,0,.4.07.6l.3-.37.43-.53a1.84,1.84,0,0,1,.17-.22c.32-.42.63-.84.93-1.27.08-.1.15-.21.22-.31l.47-.7q.3-.45.57-.9Z"/><path class="cls-1" d="M67.62,18a.83.83,0,0,1,0-.15,17,17,0,0,0-2.91-5.21,57.47,57.47,0,0,0-4-4.92,58,58,0,0,0-4.56-4.45A4.62,4.62,0,0,0,53.83,2a3.6,3.6,0,0,0-2.39.77,11.73,11.73,0,0,0-1.2.9,4.35,4.35,0,0,0-.88,1,1.93,1.93,0,0,0-.28,1.07A3.68,3.68,0,0,0,49.37,7c.35.89.94,1.82,1.43,2.83.41.83.79,1.68,1.15,2.55.07.16.14.32.2.48.27.69.52,1.4.75,2.11A39.48,39.48,0,0,1,54,19.21a21.31,21.31,0,0,1,.25,6.57c-.27-1.07-.51-2.12-.76-3.17s-.52-2.08-.8-3.11l-.09-.34a20.61,20.61,0,0,0-4.67,3.44,6.21,6.21,0,0,0-1.46,2.2,5.55,5.55,0,0,0-.25,2.51,6.88,6.88,0,0,0,2.48,4.48,8.25,8.25,0,0,0,5,1.67,11,11,0,0,0,2.79-.31,12.64,12.64,0,0,0,2.64-1,16.44,16.44,0,0,0,4.55-3.76,18.92,18.92,0,0,0,3.26-5,10.4,10.4,0,0,0,.74-2.53h0A7.25,7.25,0,0,0,67.62,18Z"/><path class="cls-3" d="M86.85,53.32c.13.68.25,1.39.36,2.1C87.1,54.71,87,54,86.85,53.32Z"/><path class="cls-3" d="M32.13,48.52c-.55.14-1.1.28-1.64.44.54-.16,1.09-.3,1.64-.44Z"/><path class="cls-3" d="M81.58,70.4c-.1.24-.21.48-.32.73C81.37,70.88,81.48,70.64,81.58,70.4Z"/><path class="cls-3" d="M82.59,67.81c-.26.73-.54,1.47-.86,2.22C82.05,69.28,82.33,68.54,82.59,67.81Z"/><path class="cls-3" d="M19.63,54.93l.66-.59-.66.59a29.17,29.17,0,0,0-2.42,2.55A29.17,29.17,0,0,1,19.63,54.93Z"/><polygon class="cls-3" points="17.7 64.01 18.05 63.98 18.05 63.98 17.7 64.01"/><path class="cls-3" d="M86.44,51.29c.14.66.28,1.34.41,2C86.72,52.63,86.58,52,86.44,51.29Z"/><path class="cls-3" d="M77.74,77.43c-.07.1-.14.21-.22.31C77.6,77.64,77.67,77.53,77.74,77.43Z"/><path class="cls-3" d="M20.34,53l.57-.39-.57.39Z"/><polygon class="cls-3" points="19.23 50.7 19.23 50.7 20.29 52.93 20.29 52.93 19.23 50.7"/><path class="cls-3" d="M81.11,71.45c-.29.65-.61,1.3-1,2C80.5,72.75,80.82,72.1,81.11,71.45Z"/><path class="cls-3" d="M78.78,75.83q-.27.45-.57.9Q78.51,76.28,78.78,75.83Z"/><path class="cls-3" d="M79.06,33l.76,1.25Z"/><path class="cls-3" d="M76.59,79a1.84,1.84,0,0,0-.17.22A1.84,1.84,0,0,1,76.59,79Z"/><path class="cls-3" d="M21.14,81.92l.89.69a34.76,34.76,0,0,0,3,2,34.76,34.76,0,0,1-3-2Z"/><path class="cls-3" d="M79.82,34.2c.25.42.5.86.74,1.3C80.32,35.06,80.07,34.62,79.82,34.2Z"/><path class="cls-3" d="M48.81,14.15c.65.11,1.31.23,2,.36C50.12,14.38,49.46,14.26,48.81,14.15Z"/><path class="cls-3" d="M86,49.33c.17.64.32,1.29.47,2C86.29,50.62,86.14,50,86,49.33Z"/><path class="cls-3" d="M72,24.24l0,0Z"/><path class="cls-3" d="M16.49,69.47c-.07.28-.13.56-.19.85q-.23,1.09-.39,2.19.16-1.1.39-2.19C16.36,70,16.42,69.75,16.49,69.47Z"/><path class="cls-3" d="M17.7,65.1l-.29.92c-.22.71-.43,1.42-.61,2.13.18-.71.39-1.42.61-2.13Z"/><path class="cls-3" d="M15.75,73.61c0,.37-.09.74-.13,1.11-.08.74-.14,1.48-.2,2.22.06-.74.12-1.48.2-2.22C15.66,74.35,15.71,74,15.75,73.61Z"/><path class="cls-3" d="M81.66,37.59c.36.72.71,1.46,1,2.23C82.37,39.05,82,38.31,81.66,37.59Z"/><path class="cls-3" d="M83.7,42.2c.19.48.37,1,.54,1.46C84.07,43.16,83.89,42.68,83.7,42.2Z"/><path class="cls-3" d="M72.73,76.75c-.58.5-1.17,1-1.77,1.45.6-.47,1.19-1,1.77-1.45l2.45-2.16h0Z"/><path class="cls-3" d="M42.31,88.46h0Z"/><path class="cls-3" d="M34.59,88.07l-.94-.14Z"/><path class="cls-3" d="M43.37,88.42l-.47,0Z"/><path class="cls-3" d="M40.94,88.48h0Z"/><path class="cls-3" d="M20,81l-.52-.49Z"/><path class="cls-3" d="M26.08,85.24l-.71-.4Z"/><path class="cls-3" d="M27.16,85.8l-.73-.37Z"/><path class="cls-3" d="M39.38,88.45l-.55,0Z"/><path class="cls-3" d="M35.54,88.18l-.64-.08Z"/><path class="cls-3" d="M37.45,88.35l-.56,0Z"/><path class="cls-3" d="M40.36,88.47h0Z"/><path class="cls-3" d="M36.49,88.28l-.58-.06Z"/><path class="cls-3" d="M23.87,51.76c.38-.23.78-.45,1.18-.66C24.65,51.31,24.25,51.53,23.87,51.76Z"/><path class="cls-3" d="M47.56,88.08l-.41,0Z"/><path class="cls-3" d="M16.12,58.85c.35-.47.71-.92,1.09-1.37C16.83,57.93,16.47,58.38,16.12,58.85Z"/><path class="cls-3" d="M21,53.77a25.35,25.35,0,0,1,2.14-1.55A25.35,25.35,0,0,0,21,53.77Z"/><path class="cls-3" d="M44.42,88.36l-.46,0Z"/><path class="cls-3" d="M48.59,88l-.34,0Z"/><path class="cls-3" d="M75.56,78.92c0-.21,0-.43-.07-.65C75.52,78.49,75.54,78.71,75.56,78.92Z"/><path class="cls-3" d="M27.69,49.33l-1,.32Z"/><path class="cls-3" d="M19.48,80.45h0l-.38-.39Z"/><path class="cls-3" d="M45.47,88.29l-.45,0Z"/><path class="cls-3" d="M12.71,64.5c.19-.41.39-.82.6-1.22C13.1,63.68,12.9,64.09,12.71,64.5Z"/><path class="cls-3" d="M46.52,88.19l-.44,0Z"/><path class="cls-3" d="M15.1,60.28c.33-.49.67-1,1-1.43C15.77,59.32,15.43,59.79,15.1,60.28Z"/><path class="cls-3" d="M16.45,23.61l.18-.19Z"/><path class="cls-3" d="M16.21,19.55,17,19Z"/><path class="cls-3" d="M18,18.43c.28-.17.56-.32.84-.47C18.55,18.11,18.27,18.26,18,18.43Z"/><path class="cls-3" d="M21.33,16.81l.32-.13Z"/><path class="cls-3" d="M18.48,21.69l.05,0Z"/><path class="cls-3" d="M18.88,21.38l.05-.05Z"/><path class="cls-3" d="M30.41,12.81h0Z"/><path class="cls-3" d="M17.58,22.49l0,0Z"/><path class="cls-3" d="M32.85,12.83l1.17,0Z"/><path class="cls-3" d="M31.66,12.81h0Z"/><path class="cls-3" d="M30,12.81h0Z"/><path class="cls-3" d="M27.34,12.82h0Z"/><path class="cls-3" d="M14.14,43.05l0,.08Z"/><path class="cls-3" d="M45.76,13.69c1,.12,1.89.26,2.84.42C47.65,14,46.71,13.81,45.76,13.69Z"/><path class="cls-3" d="M12.46,29c.16-.28.33-.55.49-.82C12.79,28.46,12.62,28.73,12.46,29Z"/><path class="cls-3" d="M14.78,41.74l-.19.38Z"/><path class="cls-3" d="M17.16,22.88l.18-.17Z"/><path class="cls-3" d="M38.41,88.41l-.55,0Z"/><path class="cls-3" d="M15.4,24.8c.19-.24.39-.46.58-.68C15.79,24.34,15.59,24.56,15.4,24.8Z"/><path class="cls-3" d="M13.78,26.93l.41-.58Z"/><path class="cls-3" d="M13,28.19l.42-.65Z"/><path class="cls-3" d="M14.38,42.56l0,.08Z"/><path class="cls-3" d="M13,42.61q0,.47.06.93c0,.24,0,.47.07.7,0-.23-.05-.46-.07-.7S13,42.92,13,42.61Z"/><path class="cls-3" d="M39.5,13.09l.87.06Z"/><path class="cls-3" d="M12.26,29.35a36.28,36.28,0,0,0-1.72,3.42l.21-.1-.21.1A36.28,36.28,0,0,1,12.26,29.35Z"/><path class="cls-3" d="M36.78,12.94,38,13Z"/><path class="cls-3" d="M35.59,12.89l.89,0Z"/><path class="cls-3" d="M40.7,13.17l1.16.1Z"/><path class="cls-3" d="M13.54,34.23c-.09.59-.16,1.17-.23,1.76,0,.31-.07.63-.1.95,0-.32.07-.64.1-.95C13.38,35.4,13.45,34.82,13.54,34.23Z"/><path class="cls-3" d="M38.18,13l1,.05Z"/><path class="cls-3" d="M44.59,13.55l1.17.14Z"/><path class="cls-3" d="M82.68,67.55a46.78,46.78,0,0,0,2.57-12.07l2.26,2.12h0l-2.26-2.12A46.78,46.78,0,0,1,82.68,67.55Z"/><path class="cls-3" d="M43.39,13.41l.85.1Z"/><path class="cls-3" d="M42,13.28l1,.1Z"/><polygon class="cls-3" points="26.24 13.94 24.95 12.86 24.95 12.86 24.95 12.86 26.24 13.94 27.86 15.29 27.86 15.29 26.24 13.94"/><path class="cls-3" d="M13.26,44.94l.59-1.28.06-.11-.06.11Z"/><path class="cls-3" d="M34.31,12.86l.9,0Z"/><polygon class="cls-3" points="16.73 45.45 18.65 49.48 18.65 49.48 16.73 45.45"/><path class="cls-3" d="M14.78,41.74l.09-.2.53,1.11-.53-1.11Z"/><path class="cls-1" d="M15.82,48.59l-.63-1.66-.31-.82-.1.2L14,48.08l-.26.56-.31.65-.2.44a10.31,10.31,0,0,1-.91-2.11,24.16,24.16,0,0,1-1-9.39A33.46,33.46,0,0,1,11.87,34l-1.23.68-2.7,1.5a27.07,27.07,0,0,1,2.53-7.26c.14-.27.3-.56.46-.84-.34-1-.83-2.55-1-3.22L9.65,24a4.37,4.37,0,0,0-.28-.71A4.84,4.84,0,0,0,8.46,22a4.33,4.33,0,0,0-1.25-.85,3.72,3.72,0,0,0-1.4-.33,3.54,3.54,0,0,0-2.57,1.05,2.45,2.45,0,0,0-.38.53,2.52,2.52,0,0,0-.12.29,1.86,1.86,0,0,0-.08.32,11.29,11.29,0,0,0-.2,1.65c-.07,1.17-.07,2.37,0,3.57.06,2.4.23,4.82.48,7.21A62.92,62.92,0,0,0,4,42.56a15.91,15.91,0,0,0,1,3.19,7.06,7.06,0,0,0,1.89,2.37,5.18,5.18,0,0,0,1.23.72,16,16,0,0,0,1.57.61c1.09.38,2.26.7,3.45,1.09s2.31.7,3.47,1l.33.13Z"/><path class="cls-3" d="M66.06,30.36a19.51,19.51,0,0,1-5.38,4.53,14.84,14.84,0,0,1-3.36,1.38,14,14,0,0,1-3.65.45,11.42,11.42,0,0,1-7-2.42,9.84,9.84,0,0,1-3.48-6.7,8.33,8.33,0,0,1,.59-3.87A9.05,9.05,0,0,1,46,20.66a17.4,17.4,0,0,1,2.83-2.06,24.53,24.53,0,0,1,3-1.54l.07,0-.18-.59q-.34-1-.72-1.89l-.26-.05c-.65-.13-1.31-.25-2-.36l-.21,0c-1-.16-1.89-.3-2.84-.42l-1.17-.14-.35,0-.85-.1-.36,0-1-.1h-.15l-1.16-.1-.33,0-.87-.06-.37,0-1-.05H38l-1.17-.06h-.3l-.89,0h-.38l-.9,0H34l-1.17,0H27.34l-2.39,0h0l1.29,1.08,1.62,1.35h-.44l-.57,0-.79.12-.34,0-.94.2-.63.15c-.51.13-1.06.29-1.64.49-.28.09-.57.2-.86.31l-.32.13-.65.26c-.6.26-1.21.55-1.85.89-.28.15-.56.3-.84.47s-.64.38-1,.59l-.81.53c-.37.26-.75.54-1.13.83l1.66,0,3.44.06-.41.26-.31.21-.32.23-.21.16-.05.05-.35.27-.05,0-.21.18-.67.59,0,0-.24.22-.18.17-.53.54-.18.19-.47.51c-.19.22-.39.44-.58.68s-.27.32-.4.49c-.27.33-.54.69-.81,1.06l-.41.58-.41.61-.42.65c-.16.27-.33.54-.49.82l-.2.34a36.28,36.28,0,0,0-1.72,3.42l.21-.1,3.31-1.6-.19,1.17c-.06.31-.11.61-.17.92s-.11.71-.16,1.07c-.09.59-.16,1.17-.23,1.76,0,.31-.07.63-.1.95s0,.51-.07.76c-.05.69-.09,1.39-.12,2.08,0,.15,0,.31,0,.47,0,.79,0,1.57,0,2.36q0,.47.06.93c0,.24,0,.47.07.7s.06.47.1.7l.59-1.28.06-.11,0-.08.16-.34,0-.08.21-.41,0-.08.12-.25.09-.19.19-.38.09-.2.53,1.11L16,43.87l.75,1.58,1.92,4h0l.58,1.22h0l1.06,2.23h0l.06,0h0l.57-.39.58-.37c.39-.25.78-.48,1.18-.71l.45-.25q.68-.36,1.38-.69l.62-.28c.52-.22,1.05-.43,1.59-.62l1-.32q.43-.13.87-.24c.59-.15,1.18-.28,1.77-.37l.51-.08c.43,0,.86-.1,1.29-.12h0c-.55.14-1.1.28-1.64.44l-.52.16c-.57.17-1.14.35-1.7.56l-.83.31-.82.35q-.45.19-.9.42l-.3.15-.37.19c-.4.21-.8.43-1.18.66l-.76.46A25.35,25.35,0,0,0,21,53.77c-.23.19-.46.37-.68.57l-.66.59a29.17,29.17,0,0,0-2.42,2.55c-.38.45-.74.9-1.09,1.37s-.69.94-1,1.43-.64,1-.94,1.48-.58,1-.85,1.52-.41.81-.6,1.22L16,64.18,17.7,64l.35,0h0L17.7,65.1l-.29.92c-.22.71-.43,1.42-.61,2.13-.11.44-.21.88-.31,1.32-.07.28-.13.56-.19.85q-.23,1.09-.39,2.19c-.06.37-.11.73-.16,1.1s-.09.74-.13,1.11c-.08.74-.14,1.48-.2,2.22l-.06,1.11c0,.37,0,.74,0,1.11s0,.64,0,1l0,0c.33-.24.64-.48,1-.74l1.29-.88,1.12,1.23.15.16.18.19.38.39h0L20,81l.27.25.85.72.89.69a34.76,34.76,0,0,0,3,2l.35.21.71.4.35.19.73.37.73.35.74.32a22.84,22.84,0,0,0,2.67.94l.77.2c.52.13,1,.24,1.58.32l.94.14.31,0,.64.08.37,0,.58.06.4,0,.56,0,.41,0,.55,0,.42,0,.55,0h2.93l.59,0,.47,0,.59,0,.46,0,.6,0,.45,0,.61-.06.44,0,.63-.07.41,0,.69-.09.34,0,1-.15a42.52,42.52,0,0,0,10.5-3.1c.48-.21,1-.42,1.43-.65.63-.3,1.26-.61,1.87-.93s1.23-.66,1.83-1c1-.58,2-1.19,3-1.85l.94-.67.92-.69L71,78.2c.6-.47,1.19-1,1.77-1.45l2.45-2.16h0l.26,3.13c0,.18,0,.37,0,.55s.05.44.07.65l.06.61c0,.2,0,.4.07.6l.3-.37.43-.53a1.84,1.84,0,0,1,.17-.22c.32-.42.63-.84.93-1.27.08-.1.15-.21.22-.31l.47-.7q.3-.45.57-.9c.13-.2.25-.41.37-.61.24-.4.47-.81.69-1.21l.32-.61c.34-.65.66-1.3,1-2l.15-.32c.11-.25.22-.49.32-.73l.15-.37c.32-.75.6-1.49.86-2.22l.09-.26a46.78,46.78,0,0,0,2.57-12.07l2.26,2.12h0c-.09-.74-.19-1.47-.3-2.18S87,54,86.85,53.32s-.27-1.37-.41-2-.3-1.32-.47-2c-.4-1.6-.85-3.13-1.34-4.59-.13-.36-.26-.73-.39-1.08s-.35-1-.54-1.46c-.32-.82-.65-1.61-1-2.38s-.69-1.51-1-2.23-.72-1.42-1.1-2.09c-.24-.44-.49-.88-.74-1.3L79.06,33c-.26-.4-.51-.79-.77-1.17s-.51-.76-.77-1.12q-.76-1.08-1.53-2c-.13-.16-.25-.32-.38-.47-.38-.46-.75-.91-1.12-1.32s-1-1.08-1.44-1.56-.68-.69-1-1l0,0-.63-.59c-.36-.33-.71-.64-1-.92a.39.39,0,0,1-.1-.08,16.63,16.63,0,0,1-.57,1.77A21.84,21.84,0,0,1,66.06,30.36Z"/><path class="cls-3" d="M15.19,46.93l-.31-.82-.1.2L14,48.08l-.26.56-.31.65-.2.44a10.31,10.31,0,0,1-.91-2.11,24.16,24.16,0,0,1-1-9.39A33.46,33.46,0,0,1,11.87,34l-1.23.68-2.7,1.5a27.07,27.07,0,0,1,2.53-7.26c.14-.27.3-.56.46-.84-.34-1-.83-2.55-1-3.22L9.65,24a4.37,4.37,0,0,0-.28-.71A4.84,4.84,0,0,0,8.46,22a4.33,4.33,0,0,0-1.25-.85,3.72,3.72,0,0,0-1.4-.33,3.54,3.54,0,0,0-2.57,1.05,2.45,2.45,0,0,0-.38.53,2.52,2.52,0,0,0-.12.29,1.86,1.86,0,0,0-.08.32,11.29,11.29,0,0,0-.2,1.65c-.07,1.17-.07,2.37,0,3.57.06,2.4.23,4.82.48,7.21A62.92,62.92,0,0,0,4,42.56a15.91,15.91,0,0,0,1,3.19,7.06,7.06,0,0,0,1.89,2.37,5.18,5.18,0,0,0,1.23.72,16,16,0,0,0,1.57.61c1.09.38,2.26.7,3.45,1.09s2.31.7,3.47,1l.33.13-1.17-3.11Z"/><path class="cls-4" d="M23.46,36.82A2,2,0,0,0,25.54,35a2,2,0,0,0-.19-1l-3.68,1.3A2,2,0,0,0,23.46,36.82Z"/><path class="cls-4" d="M33.16,30.79a2,2,0,1,0,3.34-1.94Z"/><path class="cls-1" d="M36,39.47l.71,0h0l-1.46-1.71-1.06,1.93a9.36,9.36,0,0,1,1.08-.19C35.55,39.5,35.78,39.47,36,39.47Z"/><path class="cls-4" d="M38.13,39.79h0a5.7,5.7,0,0,0-1.36-.3h0l-.71,0c-.24,0-.47,0-.71.05a9.36,9.36,0,0,0-1.08.19l-.31.08c-.45.13-.9.29-1.33.46a13.21,13.21,0,0,0-1.25.62,12.92,12.92,0,0,0-1.17.75,10.06,10.06,0,0,0-2,1.88v0a.09.09,0,0,0,0,.1.08.08,0,0,0,.11,0c.34-.29.7-.57,1.06-.83s.74-.51,1.12-.74a18.16,18.16,0,0,1,2.4-1.24c.41-.17.84-.33,1.27-.46a10,10,0,0,1,2.65-.46,8.73,8.73,0,0,1,1.35.07.07.07,0,0,0,.09-.05A.09.09,0,0,0,38.13,39.79Z"/><path class="cls-4" d="M89.11,56.15C86.3,33.27,74.63,22.89,70.6,19.93c0-.3,0-.61,0-.91a10.81,10.81,0,0,0-.35-1.87,12.6,12.6,0,0,0-1.56-3.26c-.63-1-1.29-1.85-2-2.73A59.13,59.13,0,0,0,57.44,1.7,12.14,12.14,0,0,0,56,.66,4.84,4.84,0,0,0,54,0a4.36,4.36,0,0,0-2,.3,7.74,7.74,0,0,0-1.64.88A15.74,15.74,0,0,0,49,2.27a6.07,6.07,0,0,0-1.24,1.47,3.83,3.83,0,0,0-.5,2,5.52,5.52,0,0,0,.44,1.88,12.56,12.56,0,0,0,.76,1.56l.76,1.41c.24.44.46.89.68,1.35-1.24-.22-2.52-.42-3.85-.59A122.38,122.38,0,0,0,30,10.47c-1.54,0-3.19,0-5.05,0l-6.24.12,4.58,3.54c-8.6,2.18-12.24,8-12.24,8H16a18.34,18.34,0,0,0-3.81,4l-.34-1.29c-.08-.27-.16-.55-.22-.84l-.11-.43-.06-.25a2.81,2.81,0,0,0-.1-.31,6.36,6.36,0,0,0-1.24-2.14c-.06-.08-.13-.15-.2-.23l-.23-.23A6.4,6.4,0,0,0,9.15,20a6,6,0,0,0-.52-.36l-.27-.16a2.72,2.72,0,0,0-.3-.16l-.16-.08-.15-.06-.31-.12C7.23,19,7,19,6.79,18.9a5.75,5.75,0,0,0-4.09.66,5.31,5.31,0,0,0-1.18,1A5.12,5.12,0,0,0,1,21.2l-.19.35c-.06.12-.11.25-.17.37l0,.07-.05.19-.11.4,0,.17,0,.2c0,.26-.09.5-.12.74-.06.47-.1.9-.13,1.34C.06,25.9,0,26.76,0,27.6c0,.41,0,.84,0,1.26v1.26c0,.83,0,1.67.08,2.5.09,1.67.22,3.33.39,5a49.7,49.7,0,0,0,.76,5,25.94,25.94,0,0,0,.66,2.63,14.19,14.19,0,0,0,.54,1.43,10,10,0,0,0,.82,1.49,8.74,8.74,0,0,0,1.08,1.32c.2.2.39.39.59.56l.14.12.19.16.47.34c.29.18.54.32.78.45l.35.17a3.07,3.07,0,0,0,.34.14L8.51,52l.33.13.32.1.62.21,1.2.36,2.32.68,2.39.68a4.76,4.76,0,0,1,.57.19l.57.21.17.06A27,27,0,0,0,13.17,59a37.39,37.39,0,0,0-1.93,3.21c-.21.41-.42.84-.64,1.32l-1.72,3.7,4.06-.39,1.85-.18c-.3,1.07-.56,2.15-.77,3.22-.3,1.45-.55,3-.72,4.61S13,77.64,13,79.11c0,.33,0,.66,0,1l0,4.72L16.72,82l0,0,.54-.39.11.12.45.45c.28.27.58.55.89.82.54.49,1.16,1,1.87,1.53a28.92,28.92,0,0,0,12.66,5.76,49.79,49.79,0,0,0,7.66.58,60.59,60.59,0,0,0,9-.7,47.45,47.45,0,0,0,16.44-6,42.7,42.7,0,0,0,4.11-2.66h0l.13-.1c.86-.65,1.73-1.31,2.59-2l0,.36.07.65.55,5.47,4.82-5.38C85.65,71.65,86,65,86.91,59.71l2.82,2.83ZM49.37,7a3.68,3.68,0,0,1-.29-1.27,1.93,1.93,0,0,1,.28-1.07,4.35,4.35,0,0,1,.88-1,11.73,11.73,0,0,1,1.2-.9A3.6,3.6,0,0,1,53.83,2a4.62,4.62,0,0,1,2.26,1.31,58,58,0,0,1,4.56,4.45,57.47,57.47,0,0,1,4,4.92,17,17,0,0,1,2.91,5.21.83.83,0,0,0,0,.15,7.3,7.3,0,0,1,.08,2.76A10.4,10.4,0,0,1,67,23.33a18.92,18.92,0,0,1-3.26,5,16.44,16.44,0,0,1-4.55,3.76,12.64,12.64,0,0,1-2.64,1,11,11,0,0,1-2.79.31,8.25,8.25,0,0,1-5-1.67,6.88,6.88,0,0,1-2.48-4.48,5.55,5.55,0,0,1,.25-2.51,6.21,6.21,0,0,1,1.46-2.2,20.61,20.61,0,0,1,4.67-3.44l.09.34c.28,1,.54,2.07.8,3.11s.49,2.1.76,3.17A21.31,21.31,0,0,0,54,19.21,39.48,39.48,0,0,0,52.9,15c-.23-.71-.48-1.42-.75-2.11-.06-.16-.13-.32-.2-.48-.36-.87-.74-1.72-1.15-2.55C50.31,8.81,49.72,7.88,49.37,7ZM16.66,51.57c-1.16-.33-2.32-.67-3.47-1s-2.36-.71-3.45-1.09a16,16,0,0,1-1.57-.61,5.18,5.18,0,0,1-1.23-.72,7.06,7.06,0,0,1-1.89-2.37,15.91,15.91,0,0,1-1-3.19A62.92,62.92,0,0,1,2.9,35.48c-.25-2.39-.42-4.81-.48-7.21,0-1.2,0-2.4,0-3.57a11.29,11.29,0,0,1,.2-1.65,1.86,1.86,0,0,1,.08-.32,2.52,2.52,0,0,1,.12-.29,2.45,2.45,0,0,1,.38-.53,3.54,3.54,0,0,1,2.57-1.05,3.72,3.72,0,0,1,1.4.33A4.33,4.33,0,0,1,8.46,22a4.84,4.84,0,0,1,.91,1.24,4.37,4.37,0,0,1,.28.71l.26.87c.19.67.68,2.2,1,3.22-.16.28-.32.57-.46.84a27.07,27.07,0,0,0-2.53,7.26l2.7-1.5L11.87,34a33.46,33.46,0,0,0-.57,4.23,24.16,24.16,0,0,0,1,9.39,10.31,10.31,0,0,0,.91,2.11l.2-.44.31-.65.26-.56.82-1.77.1-.2.31.82.63,1.66L17,51.7Zm70.85,6-2.26-2.12a46.78,46.78,0,0,1-2.57,12.07l-.09.26c-.26.73-.54,1.47-.86,2.22l-.15.37c-.1.24-.21.48-.32.73l-.15.32c-.29.65-.61,1.3-1,2l-.32.61c-.22.4-.45.81-.69,1.21-.12.2-.24.41-.37.61s-.37.6-.57.9l-.47.7c-.07.1-.14.21-.22.31-.3.43-.61.85-.93,1.27a1.84,1.84,0,0,0-.17.22l-.43.53-.3.37c0-.2,0-.4-.07-.6l-.06-.61c0-.21,0-.43-.07-.65s0-.37,0-.55l-.26-3.13h0l-2.45,2.16c-.58.5-1.17,1-1.77,1.45l-.91.71-.92.69-.94.67c-1,.66-1.94,1.27-3,1.85-.6.34-1.21.68-1.83,1s-1.24.63-1.87.93c-.47.23-.95.44-1.43.65a44.52,44.52,0,0,1-4.64,1.73v0a29.77,29.77,0,0,0,1.15-3.93c.3-1.31.52-2.63.69-4,.09-.66.16-1.32.23-2a2.29,2.29,0,0,1,0-.25l1.72,1.22.08-1.59h0v-.24l0-.25c0-.16,0-.32,0-.48,0-.32,0-.64,0-1,0-.64,0-1.28,0-1.92,0-1.28-.12-2.55-.23-3.83C58.79,63.1,57,60.93,57,60.93c.06.32.12.63.17.94s.11.61.16.92l.15.92c0,.3.1.61.14.91.16,1.23.24,2.47.28,3.72s0,2.49,0,3.74c0,.62,0,1.24-.07,1.86v.14l-.64-.6L55.55,72l-.24,2.4h0l0,.22,0,.23c0,.15,0,.31-.07.47,0,.31-.09.62-.14.93-.09.62-.21,1.25-.33,1.86-.25,1.24-.54,2.46-.9,3.66a25.7,25.7,0,0,1-1.26,3.45,16.51,16.51,0,0,1-.81,1.57l-.23.37-.11.18-.12.17h0c-.56.11-1.12.21-1.68.29l-1,.15-.34,0-.69.09-.41,0-.63.07-.44,0-.61.06-.45,0-.6,0-.46,0-.59,0-.47,0-.59,0H39.38l-.55,0-.42,0-.55,0-.41,0-.56,0-.4,0-.58-.06-.37,0-.64-.08-.31,0-.94-.14c-.53-.08-1.06-.19-1.58-.32l-.77-.2a22.84,22.84,0,0,1-2.67-.94l-.74-.32-.73-.35-.73-.37-.35-.19-.71-.4L25,84.63a34.76,34.76,0,0,1-3-2l-.89-.69-.85-.72L20,81l-.52-.49h0l-.38-.39-.18-.19-.15-.16-1.12-1.23-1.29.88c-.39.26-.7.5-1,.74l0,0c0-.32,0-.64,0-1s0-.74,0-1.11l.06-1.11c.06-.74.12-1.48.2-2.22,0-.37.09-.74.13-1.11s.1-.73.16-1.1q.16-1.1.39-2.19c.06-.29.12-.57.19-.85.1-.44.2-.88.31-1.32.18-.71.39-1.42.61-2.13l.29-.92L18.05,64h0l-.35,0L16,64.18l-3.31.32c.19-.41.39-.82.6-1.22s.56-1,.85-1.52.62-1,.94-1.48.67-1,1-1.43.71-.92,1.09-1.37a29.17,29.17,0,0,1,2.42-2.55l.66-.59c.22-.2.45-.38.68-.57a25.35,25.35,0,0,1,2.14-1.55l.76-.46c.38-.23.78-.45,1.18-.66l.37-.19.3-.15q.45-.23.9-.42l.82-.35.83-.31c.56-.21,1.13-.39,1.7-.56l.52-.16c.54-.16,1.09-.3,1.64-.44h0c-.43,0-.86.07-1.29.12l-.51.08c-.59.09-1.18.22-1.77.37q-.43.1-.87.24l-1,.32c-.54.19-1.07.4-1.59.62l-.62.28q-.7.33-1.38.69l-.45.25c-.4.23-.79.46-1.18.71l-.58.37-.57.39-.06,0h0L19.23,50.7h0l-.58-1.22h0l-1.92-4L16,43.87l-.58-1.22-.53-1.11-.09.2-.19.38-.09.19-.12.25,0,.08-.21.41,0,.08-.16.34,0,.08-.06.11-.59,1.28c0-.23-.07-.46-.1-.7s-.05-.46-.07-.7-.05-.62-.06-.93c0-.79,0-1.57,0-2.36,0-.16,0-.32,0-.47,0-.69.07-1.39.12-2.08,0-.25,0-.51.07-.76s.07-.64.1-.95c.07-.59.14-1.17.23-1.76.05-.36.1-.71.16-1.07s.11-.61.17-.92l.19-1.17-3.31,1.6-.21.1a36.28,36.28,0,0,1,1.72-3.42l.2-.34c.16-.28.33-.55.49-.82l.42-.65.41-.61.41-.58c.27-.37.54-.73.81-1.06.13-.17.26-.33.4-.49s.39-.46.58-.68l.47-.51.18-.19.53-.54.18-.17.24-.22,0,0,.67-.59.21-.18.05,0,.35-.27.05-.05.21-.16.32-.23.31-.21.41-.26-3.44-.06-1.66,0c.38-.29.76-.57,1.13-.83L17,19c.33-.21.65-.41,1-.59s.56-.32.84-.47c.64-.34,1.25-.63,1.85-.89l.65-.26.32-.13c.29-.11.58-.22.86-.31.58-.2,1.13-.36,1.64-.49l.63-.15.94-.2.34,0,.79-.12.57,0h.44l-1.62-1.35L25,12.86h0l2.39,0h5.51l1.17,0h.29l.9,0h.38l.89,0h.3L38,13h.23l1,.05.37,0,.87.06.33,0,1.16.1H42l1,.1.36,0,.85.1.35,0,1.17.14c1,.12,1.89.26,2.84.42l.21,0c.65.11,1.31.23,2,.36l.26.05q.38.93.72,1.89l.18.59-.07,0a24.53,24.53,0,0,0-3,1.54A17.4,17.4,0,0,0,46,20.66a9.05,9.05,0,0,0-2.26,3.07,8.33,8.33,0,0,0-.59,3.87,9.84,9.84,0,0,0,3.48,6.7,11.42,11.42,0,0,0,7,2.42,14,14,0,0,0,3.65-.45,14.84,14.84,0,0,0,3.36-1.38,19.51,19.51,0,0,0,5.38-4.53,21.84,21.84,0,0,0,3.62-5.94,16.63,16.63,0,0,0,.57-1.77.39.39,0,0,0,.1.08c.33.28.68.59,1,.92l.63.59,0,0c.32.31.66.64,1,1s1,1,1.44,1.56.74.86,1.12,1.32c.13.15.25.31.38.47q.77,1,1.53,2c.26.36.52.74.77,1.12s.51.77.77,1.17l.76,1.25c.25.42.5.86.74,1.3.38.67.74,1.37,1.1,2.09s.71,1.46,1,2.23.67,1.56,1,2.38c.19.48.37,1,.54,1.46s.26.72.39,1.08c.49,1.46.94,3,1.34,4.59.17.64.32,1.29.47,2s.28,1.34.41,2,.25,1.39.36,2.1.21,1.44.3,2.18Z"/><path class="cls-4" d="M75.37,45.83l-.11-1.62-1.1,1.26-.45.51c0-.41-.09-.82-.15-1.23-.14-1-.29-2-.47-3s-.39-2-.63-3a13.61,13.61,0,0,0-1-2.92c.19,1,.32,2,.45,3s.2,2,.26,3,.1,2,.13,3,0,2,0,3v2.37l1.4-1.91.48-.66.18,1.64c.12,1.13.23,2.25.33,3.38s.2,2.25.25,3.38c0,.56.06,1.13.07,1.69,0,.28,0,.57,0,.85a6.48,6.48,0,0,0,.1.86,5.16,5.16,0,0,0,.21-.84,8.36,8.36,0,0,0,.09-.86c0-.57.07-1.14.09-1.7,0-1.14.06-2.28.06-3.42C75.6,50.38,75.52,48.11,75.37,45.83Z"/></g></g></g></svg>