<svg xmlns="http://www.w3.org/2000/svg" xmlns:xlink="http://www.w3.org/1999/xlink" width="1920" height="244.201" viewBox="0 0 1920 244.201"><defs><linearGradient id="a" x1="0.5" x2="0.5" y2="1" gradientUnits="objectBoundingBox"><stop offset="0.001" stop-color="#fff"/><stop offset="0.15" stop-color="#fafdfe"/><stop offset="0.301" stop-color="#eef9fd"/><stop offset="0.454" stop-color="#daf2fc"/><stop offset="0.607" stop-color="#bde8fa"/><stop offset="0.762" stop-color="#98dcf8"/><stop offset="0.914" stop-color="#6ccdf5"/><stop offset="1" stop-color="#50c4f4"/></linearGradient><linearGradient id="b" y1="0.063" y2="1.063" xlink:href="#a"/><linearGradient id="c" y1="0" y2="1" xlink:href="#a"/></defs><g transform="translate(0 -4016)"><path d="M1920,749.534s-65.183,28.477-219.508,26.909-224.521-1.811-380.863-26.909-351.027-13.762-558.485,17.5C390.857,822.824,193.371,753.437,0,743.5V932.065H1920Z" transform="translate(0.001 3280.201)" fill="url(#a)"/><path d="M1920,849.634s-151.825-.757-297.4-28.424-334.83-41.946-491.173-12.37-224.914,39.774-405.943,40.794S358.1,810.88,219.508,802.721,0,803.741,0,803.741V953.605H1920Z" transform="translate(0.001 3280.201)" fill="url(#b)"/><path d="M1920,883.757c-108.343,0-319,36.817-574.358,36.817s-429.448-36.817-707.2-36.817-450.474,31.412-528.686,33.418S0,920.574,0,920.574V980H1920Z" transform="translate(-0.001 3280.201)" fill="url(#c)"/></g></svg>