<svg xmlns="http://www.w3.org/2000/svg" xmlns:xlink="http://www.w3.org/1999/xlink" width="82.9" height="100" viewBox="0 0 82.9 100"><defs><style>.a{fill:none;}.c{fill:#99daf2;}</style></defs><g class="b" transform="translate(82.9 100) rotate(180)"><g transform="translate(0 44.393)"><path class="c" d="M266.173,471.555a6.707,6.707,0,0,0-4.734-3.772c-2.792-.469-5.458,1.127-8.189,1.875a67.285,67.285,0,0,1-6.849,1.034,14.581,14.581,0,0,0-10.683,8.751c-2.507,5.736-1.636,13.037.922,18.626a26.128,26.128,0,0,0,6.209,8.449c2.974,2.695,6.6,4.814,10.779,4.3a7.53,7.53,0,0,0,6.25-4.649,9.678,9.678,0,0,0-.179-5.744,56.467,56.467,0,0,1-1.63-5.6c-.486-2.8.594-5.144,2.081-7.426,1.525-2.34,3.844-4.045,5.238-6.559a10.963,10.963,0,0,0,1.356-7.693A7.494,7.494,0,0,0,266.173,471.555Z" transform="translate(-230.93 -455.287)"/><path class="c" d="M374.718,411.632a6.993,6.993,0,0,0-.006-.986c-.336-4.377-3.9-8.46-8.58-7.146a5.526,5.526,0,0,0-4.025,4.712c-.178,2.553,1.666,4.818,3.725,6.338,2.175,1.6,5.4,2.836,7.546.477A5.549,5.549,0,0,0,374.718,411.632Z" transform="translate(-334.177 -403.249)"/><path class="c" d="M320.1,415.007q-.09-.034-.185-.064a4.4,4.4,0,0,0-4.408,1.3,6.42,6.42,0,0,0-1.565,4.467,4.97,4.97,0,0,0,1.235,3.448,3.945,3.945,0,0,0,4.062.835C322.7,423.757,324.053,416.493,320.1,415.007Z" transform="translate(-295.298 -412.554)"/><path class="c" d="M275.378,428.53a3.679,3.679,0,0,0-2.551.532,4.892,4.892,0,0,0-1.982,2.743,5.156,5.156,0,0,0,.517,4.262,3.959,3.959,0,0,0,3.793,1.789c3.651-.574,4.2-7.614.973-9.1A3.034,3.034,0,0,0,275.378,428.53Z" transform="translate(-260.309 -423.623)"/><path class="c" d="M239.089,451.031a3.5,3.5,0,0,0-2.438,1.057,4.409,4.409,0,0,0-1.139,3.361,4.484,4.484,0,0,0,1.674,3.25,3.5,3.5,0,0,0,3.556.421c2.7-1.319,2.075-7.054-.745-7.954A2.915,2.915,0,0,0,239.089,451.031Z" transform="translate(-231.962 -441.829)"/><path class="c" d="M219.138,488.855a2.631,2.631,0,0,0-1.8,1.5,3.642,3.642,0,0,0,.228,2.893,3.726,3.726,0,0,0,1.988,2.011,2.456,2.456,0,0,0,3.024-1.47c.755-1.7-.582-4.7-2.524-4.978A2.431,2.431,0,0,0,219.138,488.855Z" transform="translate(-217.128 -472.313)"/></g><g transform="translate(42.344 0)"><path class="c" d="M461.249,241.035a6.707,6.707,0,0,1,4.734-3.772c2.792-.469,5.458,1.127,8.189,1.875a67.29,67.29,0,0,0,6.849,1.035,14.581,14.581,0,0,1,10.683,8.751c2.507,5.736,1.636,13.037-.922,18.626A26.126,26.126,0,0,1,484.573,276c-2.974,2.695-6.6,4.814-10.779,4.3a7.53,7.53,0,0,1-6.25-4.649,9.678,9.678,0,0,1,.179-5.744,56.541,56.541,0,0,0,1.63-5.6c.486-2.8-.594-5.144-2.081-7.426-1.525-2.34-3.844-4.045-5.238-6.559a10.963,10.963,0,0,1-1.356-7.693A7.485,7.485,0,0,1,461.249,241.035Z" transform="translate(-455.937 -224.767)"/><path class="c" d="M437.023,181.111a7.03,7.03,0,0,1,.006-.986c.336-4.377,3.9-8.46,8.58-7.146a5.525,5.525,0,0,1,4.025,4.712c.178,2.553-1.666,4.818-3.725,6.338-2.175,1.605-5.4,2.836-7.546.477A5.55,5.55,0,0,1,437.023,181.111Z" transform="translate(-437.009 -172.729)"/><path class="c" d="M508.707,184.487q.091-.034.185-.064a4.4,4.4,0,0,1,4.408,1.3,6.421,6.421,0,0,1,1.565,4.467,4.969,4.969,0,0,1-1.235,3.448,3.946,3.946,0,0,1-4.062.835C506.111,193.237,504.755,185.973,508.707,184.487Z" transform="translate(-492.954 -182.034)"/><path class="c" d="M557.3,198.01a3.68,3.68,0,0,1,2.551.532,4.893,4.893,0,0,1,1.982,2.743,5.157,5.157,0,0,1-.517,4.262,3.959,3.959,0,0,1-3.793,1.789c-3.651-.574-4.2-7.614-.973-9.1A3.039,3.039,0,0,1,557.3,198.01Z" transform="translate(-531.809 -193.102)"/><path class="c" d="M596.411,220.511a3.5,3.5,0,0,1,2.438,1.057,4.41,4.41,0,0,1,1.14,3.361,4.484,4.484,0,0,1-1.674,3.25,3.5,3.5,0,0,1-3.556.421c-2.7-1.319-2.075-7.054.745-7.954A2.914,2.914,0,0,1,596.411,220.511Z" transform="translate(-562.984 -211.309)"/><path class="c" d="M621.857,258.335a2.632,2.632,0,0,1,1.8,1.5,3.642,3.642,0,0,1-.228,2.893,3.726,3.726,0,0,1-1.988,2.011,2.456,2.456,0,0,1-3.023-1.47c-.755-1.7.582-4.7,2.524-4.978A2.43,2.43,0,0,1,621.857,258.335Z" transform="translate(-583.312 -241.792)"/></g></g></svg>